{
.appVersion = "1295";
copyright = "Copyright (c) 2011, Denis Masharov <denis.masharov@gmail.com>.";
customParameters = (
{
name = glyphOrder;
value = (
.notdef,
NULL,
CR,
space,
E,
F,
G,
H,
I,
J,
K,
L,
M,
N,
O,
P,
Q,
R,
S,
T,
U,
V,
W,
X,
Y,
Z,
a,
b,
c,
d,
e,
f,
g,
h,
i,
j,
k,
l,
m,
n,
o,
p,
q,
r,
s,
t,
u,
v,
w,
x,
y,
z,
A,
B,
C,
D,
two,
zero,
one,
four,
five,
six,
nine,
eight,
seven,
quotesingle,
parenleft,
parenright,
asterisk,
plus,
comma,
hyphen,
period,
slash,
colon,
semicolon,
less,
equal,
greater,
exclam,
quotedbl,
numbersign,
dollar,
percent,
bracketleft,
backslash,
bracketright,
asciicircum,
underscore,
braceleft,
bar,
braceright,
asciitilde,
at,
grave,
bullet,
paragraph,
acute,
dieresis,
notequal,
plusminus,
lessequal,
greaterequal,
endash,
emdash,
quotedblleft,
quotedblright,
quoteleft,
quoteright,
approxequal,
guillemotleft,
guillemotright,
ellipsis,
uni00A0,
divide,
circumflex,
tilde,
breve,
dotaccent,
ring,
cedilla,
hungarumlaut,
ogonek,
caron,
periodcentered,
quotesinglbase,
quotedblbase,
perthousand,
guilsinglleft,
guilsinglright,
currency,
logicalnot,
uni00AD,
uni0410,
uni0411,
uni0413,
uni0412,
uni0415,
uni0414,
uni0416,
uni041A,
uni0417,
three,
uni041B,
uni041C,
uni041D,
uni0418,
uni041E,
uni041F,
uni0420,
uni0421,
uni0422,
uni0423,
uni0425,
uni0426,
question,
uni0424,
uni0427,
uni0428,
uni0429,
uni042C,
uni042B,
uni042D,
uni0404,
uni042E,
uni042F,
uni042A,
uni0409,
Euro,
uni040A,
uni040B,
uni0402,
uni0452,
uni045B,
uni0431,
uni0432,
uni0433,
uni0437,
uni043A,
uni0436,
uni043B,
uni043C,
uni0430,
uni0441,
uni0440,
uni043E,
uni0445,
uni0443,
uni0435,
uni043D,
uni043F,
uni0442,
uni0438,
uni0434,
uni0446,
uni0448,
uni0449,
uni0447,
uni0444,
uni044C,
uni044E,
uni044B,
uni044F,
uni044A,
uni044D,
uni0454,
uni040F,
uni045F,
uni0459,
uni045A,
uni0401,
uni0451,
aring,
Aring,
Ntilde,
section,
ampersand,
cent,
sterling,
yen,
brokenbar,
macron,
degree,
exclamdown,
questiondown,
copyright,
registered,
multiply,
ae,
Ccedilla,
Thorn,
thorn,
Eth,
dagger,
eth,

glyphs = (
{
glyphname = E;
layers = (
{
hints = (
{
horizontal = 1;
place = "{0, 43}";
type = Stem;
},
{
horizontal = 1;
place = "{364, 44}";
type = Stem;
},
{
horizontal = 1;
place = "{707, 43}";
type = Stem;
},
{
horizontal = 1;
place = "{495, -20}";
target = down;
type = TopGhost;
},
{
place = "{189, 105}";
type = Stem;
}
);
layerId = "e11d8b17-ebce-493c-b2b7-02eab722b597";
paths = (
{
closed = 1;
nodes = (
"90 713 LINE",
"189 689 LINE",
"189 60 LINE",
"90 37 LINE",
"90 0 LINE",
"660 0 LINE",
"660 178 LINE",
"607 178 LINE",
"568 43 LINE",
"294 43 LINE",
"294 364 LINE",
"487 364 LINE",
"514 288 LINE",
"551 288 LINE",
"551 495 LINE",
"514 495 LINE",
"487 408 LINE",
"294 408 LINE",
"294 707 LINE",
"550 707 LINE",
"589 571 LINE",
"641 571 LINE",
"641 750 LINE",
"90 750 LINE"
);
}
);
width = 700;
}
);
unicode = 0045;
},
{
glyphname = F;
layers = (
{
hints = (
{
horizontal = 1;
place = "{352, 45}";
type = Stem;
},
{
horizontal = 1;
place = "{707, 43}";
type = Stem;
},
{
horizontal = 1;
place = "{0, 21}";
target = up;
type = BottomGhost;
},
{
place = "{190, 105}";
type = Stem;
}
);
layerId = "e11d8b17-ebce-493c-b2b7-02eab722b597";
paths = (
{
closed = 1;
nodes = (
"552 276 LINE",
"552 482 LINE",
"515 482 LINE",
"487 397 LINE",
"295 397 LINE",
"295 707 LINE",
"551 707 LINE",
"590 571 LINE",
"642 571 LINE",
"642 750 LINE",
"91 750 LINE",
"91 713 LINE",
"190 689 LINE",
"190 60 LINE",
"90 37 LINE",
"90 0 LINE",
"394 0 LINE",
"394 37 LINE",
"295 59 LINE",
"295 352 LINE",
"487 352 LINE",
"515 276 LINE"
);
}
);
width = 682;
}
);
unicode = 0046;
},
{
glyphname = G;
layers = (
{
hints = (
{
horizontal = 1;
place = "{-13, 40}";
type = Stem;
},
{
horizontal = 1;
place = "{728, 38}";
type = Stem;
},
{
place = "{60, 116}";
type = Stem;
},
{
place = "{598, 105}";
type = Stem;
}
);
layerId = "e11d8b17-ebce-493c-b2b7-02eab722b597";
paths = (
{
closed = 1;
nodes = (
"493 287 LINE",
"598 264 LINE",
"598 51 LINE",
"521 32 OFFCURVE",
"456 27 OFFCURVE",
"423 27 CURVE SMOOTH",
"255 27 OFFCURVE",
"176 152 OFFCURVE",
"176 380 CURVE SMOOTH",
"176 596 OFFCURVE",
"249 728 OFFCURVE",
"409 728 CURVE SMOOTH",
"440 728 OFFCURVE",
"541 723 OFFCURVE",
"580 681 CURVE",
"629 515 LINE",
"681 515 LINE",
"681 684 LINE",
"609 751 OFFCURVE",
"487 766 OFFCURVE",
"416 766 CURVE SMOOTH",
"184 766 OFFCURVE",
"60 604 OFFCURVE",
"60 372 CURVE SMOOTH",
"60 137 OFFCURVE",
"188 -13 OFFCURVE",
"425 -13 CURVE SMOOTH",
"507 -13 OFFCURVE",
"631 4 OFFCURVE",
"703 36 CURVE",
"703 264 LINE",
"802 287 LINE",
"802 324 LINE",
"493 324 LINE"
);
}
);
width = 802;
}
);
unicode = 0047;
},
{
glyphname = H;
layers = (
{
hints = (
{
horizontal = 1;
place = "{360, 45}";
type = Stem;
},
{
horizontal = 1;
place = "{0, 21}";
target = up;
type = BottomGhost;
},
{
horizontal = 1;
place = "{750, -20}";
target = down;
type = TopGhost;
},
{
place = "{190, 105}";
type = Stem;
},
{
place = "{661, 105}";
type = Stem;
}
);
layerId = "e11d8b17-ebce-493c-b2b7-02eab722b597";
paths = (
{
closed = 1;
nodes = (
"563 0 LINE",
"867 0 LINE",
"867 37 LINE",
"766 60 LINE",
"766 690 LINE",
"867 713 LINE",
"867 750 LINE",
"563 750 LINE",
"563 713 LINE",
"661 689 LINE",
"661 405 LINE",
"295 405 LINE",
"295 689 LINE",
"395 713 LINE",
"395 750 LINE",
"90 750 LINE",
"90 713 LINE",
"190 689 LINE",
"190 59 LINE",
"90 37 LINE",
"90 0 LINE",
"395 0 LINE",
"395 37 LINE",
"295 59 LINE",
"295 360 LINE",
"661 360 LINE",
"661 59 LINE",
"563 37 LINE"
);
}
);
width = 957;
}
);
unicode = 0048;
},
{
glyphname = I;
layers = (
{
hints = (
{
horizontal = 1;
place = "{0, 21}";
target = up;
type = BottomGhost;
},
{
horizontal = 1;
place = "{750, -20}";
target = down;
type = TopGhost;
},
{
place = "{189, 105}";
type = Stem;
}
);
layerId = "e11d8b17-ebce-493c-b2b7-02eab722b597";
paths = (
{
closed = 1;
nodes = (
"90 713 LINE",
"189 689 LINE",
"189 60 LINE",
"90 37 LINE",
"90 0 LINE",
"394 0 LINE",
"394 37 LINE",
"294 59 LINE",
"294 690 LINE",
"394 713 LINE",
"394 750 LINE",
"90 750 LINE"
);
}
);
width = 484;
}
);
unicode = 0049;
},
{
glyphname = J;
layers = (
{
hints = (
{
horizontal = 1;
place = "{-240, 21}";
target = up;
type = BottomGhost;
},
{
horizontal = 1;
place = "{750, -20}";
target = down;
type = TopGhost;
},
{
place = "{178, 106}";
type = Stem;
}
);
layerId = "e11d8b17-ebce-493c-b2b7-02eab722b597";
paths = (
{
closed = 1;
nodes = (
"81 713 LINE",
"178 690 LINE",
"178 168 LINE SMOOTH",
"178 -24 OFFCURVE",
"177 -84 OFFCURVE",
"70 -223 CURVE",
"98 -240 LINE",
"284 -78 OFFCURVE",
"284 16 OFFCURVE",
"284 278 CURVE SMOOTH",
"284 690 LINE",
"385 713 LINE",
"385 750 LINE",
"81 750 LINE"
);
}
);
width = 475;
}
);
unicode = 004A;
},
{
glyphname = K;
layers = (
{
hints = (
{
horizontal = 1;
place = "{750, -20}";
target = down;
type = TopGhost;
},
{
horizontal = 1;
place = "{0, 21}";
target = up;
type = BottomGhost;
},
{
place = "{189, 105}";
type = Stem;
}
);
layerId = "e11d8b17-ebce-493c-b2b7-02eab722b597";
paths = (
{
closed = 1;
nodes = (
"490 713 LINE",
"568 694 LINE",
"294 398 LINE",
"294 690 LINE",
"394 713 LINE",
"394 750 LINE",
"90 750 LINE",
"90 713 LINE",
"189 689 LINE",
"189 60 LINE",
"90 37 LINE",
"90 0 LINE",
"394 0 LINE",
"394 37 LINE",
"294 59 LINE",
"294 378 LINE",
"602 0 LINE",
"812 0 LINE",
"812 37 LINE",
"694 59 LINE",
"383 435 LINE",
"655 691 LINE",
"744 713 LINE",
"744 750 LINE",
"490 750 LINE"
);
}
);
width = 862;
}
);
unicode = 004B;
},
{
glyphname = L;
layers = (
{
hints = (
{
horizontal = 1;
place = "{0, 44}";
type = Stem;
},
{
horizontal = 1;
place = "{750, -20}";
target = down;
type = TopGhost;
},
{
place = "{190, 105}";
type = Stem;
}
);
layerId = "e11d8b17-ebce-493c-b2b7-02eab722b597";
paths = (
{
closed = 1;
nodes = (
"90 713 LINE",
"190 689 LINE",
"190 60 LINE",
"90 37 LINE",
"90 0 LINE",
"642 0 LINE",
"642 189 LINE",
"590 189 LINE",
"551 44 LINE",
"295 44 LINE",
"295 690 LINE",
"394 713 LINE",
"394 750 LINE",
"90 750 LINE"
);
}
);
width = 702;
}
);
unicode = 004C;
},
{
glyphname = M;
layers = (
{
hints = (
{
horizontal = 1;
place = "{0, 21}";
target = up;
type = BottomGhost;
},
{
horizontal = 1;
place = "{750, -20}";
target = down;
type = TopGhost;
},
{
place = "{186, 52}";
type = Stem;
},
{
place = "{843, 104}";
type = Stem;
}
);
layerId = "e11d8b17-ebce-493c-b2b7-02eab722b597";
paths = (
{
closed = 1;
nodes = (
"745 0 LINE",
"1049 0 LINE",
"1049 37 LINE",
"947 60 LINE",
"947 689 LINE",
"1051 713 LINE",
"1051 750 LINE",
"815 750 LINE",
"569 124 LINE",
"316 750 LINE",
"101 750 LINE",
"101 713 LINE",
"186 687 LINE",
"186 60 LINE",
"90 37 LINE",
"90 0 LINE",
"338 0 LINE",
"338 37 LINE",
"238 60 LINE",
"238 688 LINE",
"510 0 LINE",
"571 0 LINE",
"843 688 LINE",
"843 60 LINE",
"745 37 LINE"
);
}
);
width = 1141;
}
);
unicode = 004D;
},
{
glyphname = N;
layers = (
{
hints = (
{
horizontal = 1;
place = "{750, -20}";
target = down;
type = TopGhost;
},
{
horizontal = 1;
place = "{0, 21}";
target = up;
type = BottomGhost;
},
{
place = "{183, 50}";
type = Stem;
},
{
place = "{721, 50}";
type = Stem;
}
);
layerId = "e11d8b17-ebce-493c-b2b7-02eab722b597";
paths = (
{
closed = 1;
nodes = (
"623 713 LINE",
"721 687 LINE",
"721 158 LINE",
"313 750 LINE",
"90 750 LINE",
"90 713 LINE",
"183 687 LINE",
"183 59 LINE",
"90 37 LINE",
"90 0 LINE",
"331 0 LINE",
"331 37 LINE",
"233 59 LINE",
"233 686 LINE",
"701 0 LINE",
"771 0 LINE",
"771 688 LINE",
"869 713 LINE",
"869 750 LINE",
"623 750 LINE"
);
}
);
width = 959;
}
);
unicode = 004E;
},
{
glyphname = O;
layers = (
{
hints = (
{
horizontal = 1;
place = "{-19, 40}";
type = Stem;
},
{
horizontal = 1;
place = "{728, 40}";
type = Stem;
},
{
place = "{60, 116}";
type = Stem;
},
{
place = "{658, 114}";
type = Stem;
}
);
layerId = "e11d8b17-ebce-493c-b2b7-02eab722b597";
paths = (
{
closed = 1;
nodes = (
"417 728 LINE",
"570 728 OFFCURVE",
"658 610 OFFCURVE",
"658 377 CURVE SMOOTH",
"658 138 OFFCURVE",
"565 21 OFFCURVE",
"413 21 CURVE SMOOTH",
"252 21 OFFCURVE",
"176 153 OFFCURVE",
"176 373 CURVE SMOOTH",
"176 602 OFFCURVE",
"258 728 OFFCURVE",
"417 728 CURVE SMOOTH"
);
},
{
closed = 1;
nodes = (
"416 768 LINE",
"212 768 OFFCURVE",
"60 620 OFFCURVE",
"60 373 CURVE SMOOTH",
"60 133 OFFCURVE",
"202 -19 OFFCURVE",
"415 -19 CURVE SMOOTH",
"629 -19 OFFCURVE",
"772 136 OFFCURVE",
"772 373 CURVE SMOOTH",
"772 610 OFFCURVE",
"627 768 OFFCURVE",
"416 768 CURVE SMOOTH"
);
}
);
width = 832;
}
);
unicode = 004F;
},
{
glyphname = P;
layers = (
{
hints = (
{
horizontal = 1;
place = "{324, 40}";
type = Stem;
},
{
horizontal = 1;
place = "{710, 40}";
type = Stem;
},
{
horizontal = 1;
place = "{0, 21}";
target = up;
type = BottomGhost;
},
{
place = "{187, 105}";
type = Stem;
},
{
place = "{572, 116}";
type = Stem;
}
);
layerId = "e11d8b17-ebce-493c-b2b7-02eab722b597";
paths = (
{
closed = 1;
nodes = (
"90 713 LINE",
"187 690 LINE",
"187 60 LINE",
"90 37 LINE",
"90 0 LINE",
"394 0 LINE",
"394 37 LINE",
"292 60 LINE",
"292 324 LINE",
"383 324 LINE SMOOTH",
"554 324 OFFCURVE",
"688 360 OFFCURVE",
"688 541 CURVE SMOOTH",
"688 681 OFFCURVE",
"608 750 OFFCURVE",
"391 750 CURVE SMOOTH",
"90 750 LINE"
);
},
{
closed = 1;
nodes = (
"292 364 LINE",
"292 710 LINE",
"404 710 LINE SMOOTH",
"516 710 OFFCURVE",
"572 657 OFFCURVE",
"572 537 CURVE SMOOTH",
"572 417 OFFCURVE",
"516 364 OFFCURVE",
"404 364 CURVE"
);
}
);
width = 718;
}
);
unicode = 0050;
},
{
glyphname = Q;
layers = (
{
hints = (
{
horizontal = 1;
place = "{726, 42}";
type = Stem;
},
{
horizontal = 1;
place = "{-232, 21}";
target = up;
type = BottomGhost;
},
{
place = "{60, 115}";
type = Stem;
},
{
place = "{657, 114}";
type = Stem;
}
);
layerId = "e11d8b17-ebce-493c-b2b7-02eab722b597";
paths = (
{
closed = 1;
nodes = (
"565 726 OFFCURVE",
"657 612 OFFCURVE",
"657 374 CURVE SMOOTH",
"657 136 OFFCURVE",
"565 24 OFFCURVE",
"415 24 CURVE SMOOTH",
"251 24 OFFCURVE",
"175 159 OFFCURVE",
"175 375 CURVE SMOOTH",
"175 604 OFFCURVE",
"258 726 OFFCURVE",
"415 726 CURVE SMOOTH"
);
},
{
closed = 1;
nodes = (
"789 -199 LINE",
"635 -186 OFFCURVE",
"586 -161 OFFCURVE",
"493 -12 CURVE",
"528 -2 LINE SMOOTH",
"675 41 OFFCURVE",
"771 178 OFFCURVE",
"771 373 CURVE SMOOTH",
"771 621 OFFCURVE",
"618 768 OFFCURVE",
"415 768 CURVE SMOOTH",
"210 768 OFFCURVE",
"60 617 OFFCURVE",
"60 374 CURVE SMOOTH",
"60 151 OFFCURVE",
"188 0 OFFCURVE",
"383 -19 CURVE",
"454 -151 OFFCURVE",
"546 -232 OFFCURVE",
"751 -232 CURVE SMOOTH",
"789 -232 LINE"
);
}
);
width = 819;
}
);
unicode = 0051;
},
{
glyphname = R;
layers = (
{
hints = (
{
horizontal = 1;
place = "{339, 34}";
type = Stem;
},
{
horizontal = 1;
place = "{710, 40}";
type = Stem;
},
{
horizontal = 1;
place = "{0, 21}";
target = up;
type = BottomGhost;
},
{
place = "{187, 105}";
type = Stem;
},
{
place = "{572, 116}";
type = Stem;
}
);
layerId = "e11d8b17-ebce-493c-b2b7-02eab722b597";
paths = (
{
closed = 1;
nodes = (
"688 59 LINE",
"463 339 LINE",
"588 339 OFFCURVE",
"688 398 OFFCURVE",
"688 549 CURVE SMOOTH",
"688 686 OFFCURVE",
"607 750 OFFCURVE",
"391 750 CURVE SMOOTH",
"90 750 LINE",
"90 713 LINE",
"187 690 LINE",
"187 60 LINE",
"90 37 LINE",
"90 0 LINE",
"394 0 LINE",
"394 37 LINE",
"292 60 LINE",
"292 334 LINE",
"348 334 LINE",
"595 0 LINE",
"797 0 LINE",
"797 37 LINE"
);
},
{
closed = 1;
nodes = (
"292 710 LINE",
"404 710 LINE SMOOTH",
"516 710 OFFCURVE",
"572 662 OFFCURVE",
"572 542 CURVE SMOOTH",
"572 422 OFFCURVE",
"516 373 OFFCURVE",
"404 373 CURVE SMOOTH",
"292 373 LINE"
);
}
);
width = 847;
}
);
unicode = 0052;
},
{
glyphname = S;
layers = (
{
hints = (
{
horizontal = 1;
place = "{-9, 39}";
type = Stem;
},
{
horizontal = 1;
place = "{718, 41}";
type = Stem;
},
{
place = "{70, 99}";
type = Stem;
},
{
place = "{481, 101}";
type = Stem;
}
);
layerId = "e11d8b17-ebce-493c-b2b7-02eab722b597";
paths = (
{
closed = 1;
nodes = (
"379 418 LINE",
"299 458 OFFCURVE",
"169 495 OFFCURVE",
"169 603 CURVE SMOOTH",
"169 678 OFFCURVE",
"240 718 OFFCURVE",
"316 718 CURVE SMOOTH",
"353 718 OFFCURVE",
"402 708 OFFCURVE",
"439 688 CURVE",
"485 536 LINE",
"536 536 LINE",
"536 682 LINE",
"474 741 OFFCURVE",
"376 759 OFFCURVE",
"309 759 CURVE SMOOTH",
"145 759 OFFCURVE",
"70 656 OFFCURVE",
"70 559 CURVE SMOOTH",
"70 453 OFFCURVE",
"160 394 OFFCURVE",
"251 357 CURVE",
"341 312 OFFCURVE",
"478 274 OFFCURVE",
"481 151 CURVE",
"476 55 OFFCURVE",
"363 30 OFFCURVE",
"304 30 CURVE SMOOTH",
"259 30 OFFCURVE",
"209 45 OFFCURVE",
"176 66 CURVE",
"133 228 LINE",
"75 228 LINE",
"75 63 LINE",
"96 50 OFFCURVE",
"119 38 OFFCURVE",
"144 27 CURVE SMOOTH",
"187 8 OFFCURVE",
"243 -9 OFFCURVE",
"307 -9 CURVE SMOOTH",
"423 -9 OFFCURVE",
"582 52 OFFCURVE",
"582 196 CURVE SMOOTH",
"582 311 OFFCURVE",
"480 375 OFFCURVE",
"379 418 CURVE"
);
}
);
width = 604;
}
);
unicode = 0053;
},
{
glyphname = T;
layers = (
{
hints = (
{
horizontal = 1;
place = "{561, 189}";
type = Stem;
},
{
horizontal = 1;
place = "{707, 43}";
type = Stem;
},
{
horizontal = 1;
place = "{0, 21}";
target = up;
type = BottomGhost;
},
{
place = "{304, 105}";
type = Stem;
}
);
layerId = "e11d8b17-ebce-493c-b2b7-02eab722b597";
paths = (
{
closed = 1;
nodes = (
"207 0 LINE",
"511 0 LINE",
"511 37 LINE",
"409 59 LINE",
"409 707 LINE",
"595 707 LINE",
"634 561 LINE",
"686 561 LINE",
"686 750 LINE",
"30 750 LINE",
"30 561 LINE",
"82 561 LINE",
"121 707 LINE",
"304 707 LINE",
"304 60 LINE",
"207 37 LINE"
);
}
);
width = 716;
}
);
unicode = 0054;
},
{
glyphname = U;
layers = (
{
hints = (
{
horizontal = 1;
place = "{-15, 46}";
type = Stem;
},
{
horizontal = 1;
place = "{750, -20}";
target = down;
type = TopGhost;
},
{
place = "{160, 105}";
type = Stem;
},
{
place = "{681, 55}";
type = Stem;
}
);
layerId = "e11d8b17-ebce-493c-b2b7-02eab722b597";
paths = (
{
closed = 1;
nodes = (
"581 714 LINE",
"681 689 LINE",
"681 293 LINE SMOOTH",
"681 103 OFFCURVE",
"596 31 OFFCURVE",
"468 31 CURVE SMOOTH",
"337 31 OFFCURVE",
"265 105 OFFCURVE",
"265 282 CURVE SMOOTH",
"265 690 LINE",
"364 713 LINE",
"364 750 LINE",
"60 750 LINE",
"60 713 LINE",
"160 689 LINE",
"160 301 LINE SMOOTH",
"160 96 OFFCURVE",
"244 -15 OFFCURVE",
"446 -15 CURVE SMOOTH",
"633 -15 OFFCURVE",
"736 79 OFFCURVE",
"736 288 CURVE SMOOTH",
"736 689 LINE",
"830 714 LINE",
"830 750 LINE",
"581 750 LINE"
);
}
);
width = 890;
}
);
unicode = 0055;
},
{
glyphname = V;
layers = (
{
hints = (
{
horizontal = 1;
place = "{750, -20}";
target = down;
type = TopGhost;
},
{
horizontal = 1;
place = "{-8, 21}";
target = up;
type = BottomGhost;
}
);
layerId = "e11d8b17-ebce-493c-b2b7-02eab722b597";
paths = (
{
closed = 1;
nodes = (
"588 714 LINE",
"674 689 LINE",
"471 117 LINE",
"248 691 LINE",
"344 713 LINE",
"344 750 LINE",
"40 750 LINE",
"40 713 LINE",
"131 691 LINE",
"407 -8 LINE",
"466 -8 LINE",
"749 688 LINE",
"833 714 LINE",
"833 750 LINE",
"588 750 LINE"
);
}
);
width = 873;
}
);
unicode = 0056;
},
{
glyphname = W;
layers = (
{
hints = (
{
horizontal = 1;
place = "{750, -20}";
target = down;
type = TopGhost;
},
{
horizontal = 1;
place = "{0, 21}";
target = up;
type = BottomGhost;
}
);
layerId = "e11d8b17-ebce-493c-b2b7-02eab722b597";
paths = (
{
closed = 1;
nodes = (
"1002 714 LINE",
"1090 690 LINE",
"918 132 LINE",
"698 750 LINE",
"636 750 LINE",
"427 141 LINE",
"243 691 LINE",
"344 713 LINE",
"344 750 LINE",
"40 750 LINE",
"40 713 LINE",
"132 690 LINE",
"367 0 LINE",
"427 0 LINE",
"641 619 LINE",
"859 0 LINE",
"919 0 LINE",
"1160 688 LINE",
"1247 714 LINE",
"1247 750 LINE",
"1002 750 LINE"
);
}
);
width = 1287;
}
);
unicode = 0057;
},
{
glyphname = X;
layers = (
{
hints = (
{
horizontal = 1;
place = "{0, 21}";
target = up;
type = BottomGhost;
},
{
horizontal = 1;
place = "{750, -20}";
target = down;
type = TopGhost;
}
);
layerId = "e11d8b17-ebce-493c-b2b7-02eab722b597";
paths = (
{
closed = 1;
nodes = (
"50 713 LINE",
"148 688 LINE",
"359 358 LINE",
"141 59 LINE",
"51 36 LINE",
"51 0 LINE",
"296 0 LINE",
"296 36 LINE",
"216 55 LINE",
"395 319 LINE",
"558 58 LINE",
"476 37 LINE",
"476 0 LINE",
"780 0 LINE",
"780 37 LINE",
"684 61 LINE",
"464 407 LINE",
"666 687 LINE",
"754 714 LINE",
"754 750 LINE",
"509 750 LINE",
"509 714 LINE",
"597 688 LINE",
"431 445 LINE",
"276 692 LINE",
"354 713 LINE",
"354 750 LINE",
"50 750 LINE"
);
}
);
width = 830;
}
);
unicode = 0058;
},
{
glyphname = Y;
layers = (
{
hints = (
{
horizontal = 1;
place = "{0, 21}";
target = up;
type = BottomGhost;
},
{
horizontal = 1;
place = "{750, -20}";
target = down;
type = TopGhost;
},
{
place = "{353, 105}";
type = Stem;
}
);
layerId = "e11d8b17-ebce-493c-b2b7-02eab722b597";
paths = (
{
closed = 1;
nodes = (
"30 713 LINE",
"126 688 LINE",
"353 307 LINE",
"353 59 LINE",
"257 37 LINE",
"257 0 LINE",
"561 0 LINE",
"561 37 LINE",
"458 60 LINE",
"458 321 LINE",
"680 687 LINE",
"769 714 LINE",
"769 750 LINE",
"524 750 LINE",
"524 714 LINE",
"611 689 LINE",
"436 366 LINE",
"246 692 LINE",
"334 713 LINE",
"334 750 LINE",
"30 750 LINE"
);
}
);
width = 799;
}
);
unicode = 0059;
},
{
glyphname = Z;
layers = (
{
hints = (
{
horizontal = 1;
place = "{0, 49}";
type = Stem;
},
{
horizontal = 1;
place = "{703, 47}";
type = Stem;
}
);
layerId = "e11d8b17-ebce-493c-b2b7-02eab722b597";
paths = (
{
closed = 1;
nodes = (
"130 561 LINE",
"167 703 LINE",
"515 703 LINE",
"60 37 LINE",
"60 0 LINE",
"665 0 LINE",
"665 189 LINE",
"613 189 LINE",
"575 49 LINE",
"188 49 LINE",
"646 714 LINE",
"646 750 LINE",
"78 750 LINE",
"78 561 LINE"
);
}
);
width = 725;
}
);
unicode = 005A;
},
{
glyphname = a;
layers = (
{
hints = (
{
horizontal = 1;
place = "{-9, 42}";
type = Stem;
},
{
horizontal = 1;
place = "{255, 35}";
type = Stem;
},
{
horizontal = 1;
place = "{455, 38}";
type = Stem;
},
{
horizontal = 1;
place = "{0, 21}";
target = up;
type = BottomGhost;
},
{
place = "{40, 96}";
type = Stem;
},
{
place = "{364, 94}";
type = Stem;
}
);
layerId = "e11d8b17-ebce-493c-b2b7-02eab722b597";
paths = (
{
closed = 1;
nodes = (
"458 60 LINE",
"458 309 LINE SMOOTH",
"458 453 OFFCURVE",
"377 493 OFFCURVE",
"245 493 CURVE SMOOTH",
"173 493 OFFCURVE",
"111 470 OFFCURVE",
"80 443 CURVE",
"80 330 LINE",
"117 330 LINE",
"150 429 LINE",
"174 444 OFFCURVE",
"214 455 OFFCURVE",
"246 455 CURVE SMOOTH",
"319 455 OFFCURVE",
"364 433 OFFCURVE",
"364 333 CURVE SMOOTH",
"364 290 LINE",
"143 286 OFFCURVE",
"40 242 OFFCURVE",
"40 122 CURVE SMOOTH",
"40 41 OFFCURVE",
"93 -9 OFFCURVE",
"201 -9 CURVE SMOOTH",
"280 -9 OFFCURVE",
"335 28 OFFCURVE",
"366 101 CURVE",
"366 0 LINE",
"542 0 LINE",
"542 37 LINE"
);
},
{
closed = 1;
nodes = (
"227 33 LINE",
"164 33 OFFCURVE",
"136 61 OFFCURVE",
"136 132 CURVE SMOOTH",
"136 216 OFFCURVE",
"178 255 OFFCURVE",
"364 255 CURVE",
"364 80 OFFCURVE",
"304 33 OFFCURVE",
"227 33 CURVE SMOOTH"
);
}
);
width = 582;
}
);
unicode = 0061;
},
{
glyphname = b;
layers = (
{
hints = (
{
horizontal = 1;
place = "{-10, 45}";
type = Stem;
},
{
horizontal = 1;
place = "{450, 45}";
type = Stem;
},
{
horizontal = 1;
place = "{0, 21}";
target = up;
type = BottomGhost;
},
{
horizontal = 1;
place = "{750, -20}";
target = down;
type = TopGhost;
},
{
place = "{40, 178}";
type = Stem;
},
{
place = "{123, 95}";
type = Stem;
},
{
place = "{492, 101}";
type = Stem;
}
);
layerId = "e11d8b17-ebce-493c-b2b7-02eab722b597";
paths = (
{
closed = 1;
nodes = (
"40 714 LINE",
"123 699 LINE",
"123 60 LINE",
"40 37 LINE",
"40 0 LINE",
"212 0 LINE",
"212 118 LINE",
"239 35 OFFCURVE",
"302 -10 OFFCURVE",
"383 -10 CURVE SMOOTH",
"506 -10 OFFCURVE",
"593 79 OFFCURVE",
"593 241 CURVE SMOOTH",
"593 406 OFFCURVE",
"505 495 OFFCURVE",
"384 495 CURVE SMOOTH",
"312 495 OFFCURVE",
"247 457 OFFCURVE",
"218 372 CURVE",
"218 750 LINE",
"40 750 LINE"
);
},
{
closed = 1;
nodes = (
"370 450 LINE",
"450 450 OFFCURVE",
"492 383 OFFCURVE",
"492 238 CURVE SMOOTH",
"492 105 OFFCURVE",
"454 35 OFFCURVE",
"370 35 CURVE SMOOTH",
"276 35 OFFCURVE",
"218 122 OFFCURVE",
"218 241 CURVE SMOOTH",
"218 373 OFFCURVE",
"286 450 OFFCURVE",
"370 450 CURVE SMOOTH"
);
}
);
width = 653;
}
);
unicode = 0062;
},
{
glyphname = c;
layers = (
{
hints = (
{
horizontal = 1;
place = "{-10, 38}";
type = Stem;
},
{
horizontal = 1;
place = "{458, 37}";
type = Stem;
},
{
place = "{50, 103}";
type = Stem;
}
);
layerId = "e11d8b17-ebce-493c-b2b7-02eab722b597";
paths = (
{
closed = 1;
nodes = (
"460 156 LINE",
"423 156 LINE",
"388 42 LINE",
"369 33 OFFCURVE",
"334 28 OFFCURVE",
"307 28 CURVE SMOOTH",
"212 28 OFFCURVE",
"153 91 OFFCURVE",
"153 239 CURVE SMOOTH",
"153 384 OFFCURVE",
"208 458 OFFCURVE",
"300 458 CURVE SMOOTH",
"328 458 OFFCURVE",
"368 452 OFFCURVE",
"388 437 CURVE",
"421 328 LINE",
"458 328 LINE",
"458 452 LINE",
"428 479 OFFCURVE",
"363 495 OFFCURVE",
"304 495 CURVE SMOOTH",
"161 495 OFFCURVE",
"50 402 OFFCURVE",
"50 239 CURVE SMOOTH",
"50 79 OFFCURVE",
"158 -10 OFFCURVE",
"298 -10 CURVE SMOOTH",
"358 -10 OFFCURVE",
"425 6 OFFCURVE",
"460 38 CURVE"
);
}
);
width = 515;
}
);
unicode = 0063;
},
{
glyphname = d;
layers = (
{
hints = (
{
horizontal = 1;
place = "{-10, 45}";
type = Stem;
},
{
horizontal = 1;
place = "{448, 45}";
type = Stem;
},
{
horizontal = 1;
place = "{0, 21}";
target = up;
type = BottomGhost;
},
{
horizontal = 1;
place = "{750, -20}";
target = down;
type = TopGhost;
},
{
place = "{60, 101}";
type = Stem;
},
{
place = "{436, 93}";
type = Stem;
}
);
layerId = "e11d8b17-ebce-493c-b2b7-02eab722b597";
paths = (
{
closed = 1;
nodes = (
"361 714 LINE",
"436 699 LINE",
"436 377 LINE",
"421 444 OFFCURVE",
"359 493 OFFCURVE",
"268 493 CURVE SMOOTH",
"147 493 OFFCURVE",
"60 403 OFFCURVE",
"60 240 CURVE SMOOTH",
"60 76 OFFCURVE",
"148 -10 OFFCURVE",
"269 -10 CURVE SMOOTH",
"350 -10 OFFCURVE",
"415 27 OFFCURVE",
"440 114 CURVE",
"440 0 LINE",
"614 0 LINE",
"614 37 LINE",
"529 58 LINE",
"529 750 LINE",
"361 750 LINE"
);
},
{
closed = 1;
nodes = (
"374 448 OFFCURVE",
"440 368 OFFCURVE",
"440 241 CURVE SMOOTH",
"440 114 OFFCURVE",
"374 35 OFFCURVE",
"286 35 CURVE SMOOTH",
"203 35 OFFCURVE",
"161 104 OFFCURVE",
"161 243 CURVE SMOOTH",
"161 380 OFFCURVE",
"202 448 OFFCURVE",
"285 448 CURVE SMOOTH"
);
}
);
width = 624;
}
);
unicode = 0064;
},
{
glyphname = e;
layers = (
{
hints = (
{
horizontal = 1;
place = "{-10, 38}";
type = Stem;
},
{
horizontal = 1;
place = "{267, 33}";
type = Stem;
},
{
horizontal = 1;
place = "{455, 39}";
type = Stem;
},
{
place = "{51, 100}";
type = Stem;
},
{
place = "{403, 80}";
type = Stem;
}
);
layerId = "e11d8b17-ebce-493c-b2b7-02eab722b597";
paths = (
{
closed = 1;
nodes = (
"483 169 LINE",
"446 169 LINE",
"409 63 LINE",
"409 60 OFFCURVE",
"364 28 OFFCURVE",
"295 28 CURVE SMOOTH",
"173 28 OFFCURVE",
"151 126 OFFCURVE",
"151 267 CURVE",
"490 267 LINE",
"490 340 OFFCURVE",
"474 494 OFFCURVE",
"289 494 CURVE SMOOTH",
"146 494 OFFCURVE",
"51 402 OFFCURVE",
"51 238 CURVE SMOOTH",
"51 90 OFFCURVE",
"127 -10 OFFCURVE",
"295 -10 CURVE SMOOTH",
"380 -10 OFFCURVE",
"448 15 OFFCURVE",
"483 55 CURVE"
);
},
{
closed = 1;
nodes = (
"287 455 LINE",
"356 455 OFFCURVE",
"403 411 OFFCURVE",
"403 300 CURVE",
"153 300 LINE",
"155 329 OFFCURVE",
"161 354 OFFCURVE",
"171 377 CURVE SMOOTH",
"187 417 OFFCURVE",
"223 455 OFFCURVE",
"287 455 CURVE SMOOTH"
);
}
);
width = 551;
}
);
unicode = 0065;
},
{
glyphname = f;
layers = (
{
hints = (
{
horizontal = 1;
place = "{445, 41}";
type = Stem;
},
{
horizontal = 1;
place = "{697, 48}";
type = Stem;
},
{
horizontal = 1;
place = "{0, 21}";
target = up;
type = BottomGhost;
},
{
place = "{131, 72}";
type = Stem;
},
{
place = "{131, 244}";
type = Stem;
},
{
place = "{131, 95}";
type = Stem;
}
);
layerId = "e11d8b17-ebce-493c-b2b7-02eab722b597";
paths = (
{
closed = 1;
nodes = (
"375 600 LINE",
"375 728 LINE",
"335 739 OFFCURVE",
"301 745 OFFCURVE",
"273 745 CURVE SMOOTH",
"167 745 OFFCURVE",
"131 666 OFFCURVE",
"131 486 CURVE",
"40 486 LINE",
"40 445 LINE",
"131 445 LINE",
"131 59 LINE",
"62 37 LINE",
"62 0 LINE",
"302 0 LINE",
"302 37 LINE",
"226 59 LINE",
"226 445 LINE",
"344 445 LINE",
"344 486 LINE",
"224 486 LINE",
"209 511 OFFCURVE",
"203 545 OFFCURVE",
"203 578 CURVE SMOOTH",
"203 642 OFFCURVE",
"225 697 OFFCURVE",
"273 697 CURVE SMOOTH",
"284 697 OFFCURVE",
"297 693 OFFCURVE",
"310 686 CURVE",
"333 600 LINE"
);
}
);
width = 375;
}
);
unicode = 0066;
},
{
glyphname = g;
layers = (
{
hints = (
{
horizontal = 1;
place = "{-329, 35}";
type = Stem;
},
{
horizontal = 1;
place = "{-78, 81}";
type = Stem;
},
{
horizontal = 1;
place = "{121, 37}";
type = Stem;
},
{
horizontal = 1;
place = "{456, 27}";
type = Stem;
},
{
horizontal = 1;
place = "{456, 40}";
type = Stem;
},
{
place = "{25, 65}";
type = Stem;
},
{
place = "{60, 92}";
type = Stem;
},
{
place = "{76, 76}";
type = Stem;
},
{
place = "{376, 93}";
type = Stem;
},
{
place = "{457, 56}";
type = Stem;
}
);
layerId = "e11d8b17-ebce-493c-b2b7-02eab722b597";
paths = (
{
closed = 1;
nodes = (
"157 -65 OFFCURVE",
"180 -70 OFFCURVE",
"219 -73 CURVE SMOOTH",
"361 -84 LINE SMOOTH",
"425 -89 OFFCURVE",
"457 -115 OFFCURVE",
"457 -162 CURVE SMOOTH",
"457 -241 OFFCURVE",
"375 -294 OFFCURVE",
"265 -294 CURVE SMOOTH",
"149 -294 OFFCURVE",
"90 -236 OFFCURVE",
"90 -160 CURVE SMOOTH",
"90 -123 OFFCURVE",
"106 -89 OFFCURVE",
"138 -57 CURVE"
);
},
{
closed = 1;
nodes = (
"342 456 OFFCURVE",
"376 412 OFFCURVE",
"376 304 CURVE SMOOTH",
"376 204 OFFCURVE",
"339 158 OFFCURVE",
"263 158 CURVE SMOOTH",
"188 158 OFFCURVE",
"152 204 OFFCURVE",
"152 307 CURVE SMOOTH",
"152 407 OFFCURVE",
"190 456 OFFCURVE",
"262 456 CURVE SMOOTH"
);
},
{
closed = 1;
nodes = (
"529 483 LINE",
"359 483 LINE",
"324 492 OFFCURVE",
"292 496 OFFCURVE",
"263 496 CURVE SMOOTH",
"138 496 OFFCURVE",
"60 421 OFFCURVE",
"60 307 CURVE SMOOTH",
"60 235 OFFCURVE",
"92 175 OFFCURVE",
"164 138 CURVE",
"99 108 OFFCURVE",
"76 86 OFFCURVE",
"76 31 CURVE SMOOTH",
"76 2 OFFCURVE",
"89 -24 OFFCURVE",
"116 -47 CURVE",
"55 -80 OFFCURVE",
"25 -122 OFFCURVE",
"25 -173 CURVE SMOOTH",
"25 -273 OFFCURVE",
"113 -329 OFFCURVE",
"252 -329 CURVE SMOOTH",
"404 -329 OFFCURVE",
"513 -261 OFFCURVE",
"513 -135 CURVE SMOOTH",
"513 -46 OFFCURVE",
"466 0 OFFCURVE",
"341 3 CURVE",
"242 11 LINE SMOOTH",
"154 19 OFFCURVE",
"144 34 OFFCURVE",
"144 70 CURVE SMOOTH",
"144 90 OFFCURVE",
"152 106 OFFCURVE",
"193 129 CURVE",
"217 124 OFFCURVE",
"237 121 OFFCURVE",
"260 121 CURVE SMOOTH",
"377 121 OFFCURVE",
"469 189 OFFCURVE",
"469 306 CURVE SMOOTH",
"469 358 OFFCURVE",
"456 388 OFFCURVE",
"439 413 CURVE",
"529 448 LINE"
);
}
);
width = 535;
}
);
unicode = 0067;
},
{
glyphname = h;
layers = (
{
hints = (
{
horizontal = 1;
place = "{445, 48}";
type = Stem;
},
{
horizontal = 1;
place = "{0, 21}";
target = up;
type = BottomGhost;
},
{
horizontal = 1;
place = "{750, -20}";
target = down;
type = TopGhost;
},
{
place = "{40, 168}";
type = Stem;
},
{
place = "{113, 95}";
type = Stem;
},
{
place = "{447, 95}";
type = Stem;
}
);
layerId = "e11d8b17-ebce-493c-b2b7-02eab722b597";
paths = (
{
closed = 1;
nodes = (
"46 714 LINE",
"113 702 LINE",
"113 59 LINE",
"40 37 LINE",
"40 0 LINE",
"277 0 LINE",
"277 37 LINE",
"208 57 LINE",
"208 182 LINE SMOOTH",
"208 365 OFFCURVE",
"266 445 OFFCURVE",
"357 445 CURVE SMOOTH",
"416 445 OFFCURVE",
"447 411 OFFCURVE",
"447 315 CURVE SMOOTH",
"447 58 LINE",
"378 37 LINE",
"378 0 LINE",
"615 0 LINE",
"615 37 LINE",
"542 58 LINE",
"542 317 LINE SMOOTH",
"542 436 OFFCURVE",
"480 493 OFFCURVE",
"379 493 CURVE SMOOTH",
"294 493 OFFCURVE",
"231 452 OFFCURVE",
"208 363 CURVE",
"208 750 LINE",
"46 750 LINE"
);
}
);
width = 630;
}
);
unicode = 0068;
},
{
glyphname = i;
layers = (
{
hints = (
{
horizontal = 1;
place = "{640, 116}";
type = Stem;
},
{
horizontal = 1;
place = "{0, 21}";
target = up;
type = BottomGhost;
},
{
place = "{45, 167}";
type = Stem;
},
{
place = "{83, 129}";
type = Stem;
},
{
place = "{118, 94}";
type = Stem;
}
);
layerId = "e11d8b17-ebce-493c-b2b7-02eab722b597";
paths = (
{
closed = 1;
nodes = (
"50 449 LINE",
"118 437 LINE",
"118 59 LINE",
"45 37 LINE",
"45 0 LINE",
"282 0 LINE",
"282 37 LINE",
"212 57 LINE",
"212 485 LINE",
"50 485 LINE"
);
},
{
closed = 1;
nodes = (
"148 756 LINE",
"109 756 OFFCURVE",
"83 735 OFFCURVE",
"83 698 CURVE SMOOTH",
"83 661 OFFCURVE",
"109 640 OFFCURVE",
"148 640 CURVE SMOOTH",
"191 640 OFFCURVE",
"213 665 OFFCURVE",
"213 698 CURVE SMOOTH",
"213 734 OFFCURVE",
"187 756 OFFCURVE",
"148 756 CURVE SMOOTH"
);
}
);
width = 322;
}
);
unicode = 0069;
},
{
glyphname = j;
layers = (
{
hints = (
{
horizontal = 1;
place = "{485, 155}";
type = Stem;
},
{
horizontal = 1;
place = "{640, 116}";
type = Stem;
},
{
horizontal = 1;
place = "{-322, 21}";
target = up;
type = BottomGhost;
},
{
place = "{64, 120}";
type = Stem;
},
{
place = "{89, 95}";
type = Stem;
}
);
layerId = "e11d8b17-ebce-493c-b2b7-02eab722b597";
paths = (
{
closed = 1;
nodes = (
"22 449 LINE",
"89 437 LINE",
"89 -15 LINE SMOOTH",
"89 -159 OFFCURVE",
"88 -207 OFFCURVE",
"16 -293 CURVE SMOOTH",
"10 -300 LINE",
"39 -322 LINE",
"161 -188 OFFCURVE",
"184 -157 OFFCURVE",
"184 38 CURVE SMOOTH",
"184 485 LINE",
"22 485 LINE"
);
},
{
closed = 1;
nodes = (
"129 756 LINE",
"90 756 OFFCURVE",
"64 735 OFFCURVE",
"64 698 CURVE SMOOTH",
"64 661 OFFCURVE",
"90 640 OFFCURVE",
"129 640 CURVE SMOOTH",
"172 640 OFFCURVE",
"194 665 OFFCURVE",
"194 698 CURVE SMOOTH",
"194 734 OFFCURVE",
"168 756 OFFCURVE",
"129 756 CURVE SMOOTH"
);
}
);
width = 241;
}
);
unicode = 006A;
},
{
glyphname = k;
layers = (
{
hints = (
{
horizontal = 1;
place = "{0, 21}";
target = up;
type = BottomGhost;
},
{
horizontal = 1;
place = "{750, -20}";
target = down;
type = TopGhost;
},
{
place = "{60, 178}";
type = Stem;
},
{
place = "{143, 95}";
type = Stem;
}
);
layerId = "e11d8b17-ebce-493c-b2b7-02eab722b597";
paths = (
{
closed = 1;
nodes = (
"60 714 LINE",
"143 700 LINE",
"143 60 LINE",
"60 37 LINE",
"60 0 LINE",
"314 0 LINE",
"314 37 LINE",
"238 61 LINE",
"238 261 LINE",
"467 0 LINE",
"636 0 LINE",
"636 37 LINE",
"538 61 LINE",
"320 304 LINE",
"471 426 LINE",
"559 447 LINE",
"559 484 LINE",
"329 484 LINE",
"329 447 LINE",
"401 429 LINE",
"238 279 LINE",
"238 750 LINE",
"60 750 LINE"
);
}
);
width = 646;
}
);
unicode = 006B;
},
{
glyphname = l;
layers = (
{
hints = (
{
horizontal = 1;
place = "{0, 21}";
target = up;
type = BottomGhost;
},
{
horizontal = 1;
place = "{750, -20}";
target = down;
type = TopGhost;
},
{
place = "{60, 173}";
type = Stem;
},
{
place = "{138, 95}";
type = Stem;
}
);
layerId = "e11d8b17-ebce-493c-b2b7-02eab722b597";
paths = (
{
closed = 1;
nodes = (
"66 714 LINE",
"138 702 LINE",
"138 58 LINE",
"60 37 LINE",
"60 0 LINE",
"314 0 LINE",
"314 37 LINE",
"233 59 LINE",
"233 750 LINE",
"66 750 LINE"
);
}
);
width = 344;
}
);
unicode = 006C;
},
{
glyphname = m;
layers = (
{
hints = (
{
horizontal = 1;
place = "{445, 48}";
type = Stem;
},
{
horizontal = 1;
place = "{0, 21}";
target = up;
type = BottomGhost;
},
{
place = "{55, 174}";
type = Stem;
},
{
place = "{134, 95}";
type = Stem;
},
{
place = "{459, 95}";
type = Stem;
},
{
place = "{784, 94}";
type = Stem;
}
);
layerId = "e11d8b17-ebce-493c-b2b7-02eab722b597";
paths = (
{
closed = 1;
nodes = (
"58 449 LINE",
"134 436 LINE",
"134 58 LINE",
"55 37 LINE",
"55 0 LINE",
"307 0 LINE",
"307 37 LINE",
"229 59 LINE",
"229 193 LINE SMOOTH",
"229 310 OFFCURVE",
"258 445 OFFCURVE",
"372 445 CURVE SMOOTH",
"439 445 OFFCURVE",
"459 398 OFFCURVE",
"459 285 CURVE SMOOTH",
"459 58 LINE",
"385 37 LINE",
"385 0 LINE",
"639 0 LINE",
"639 37 LINE",
"554 58 LINE",
"554 182 LINE SMOOTH",
"554 357 OFFCURVE",
"601 444 OFFCURVE",
"696 444 CURVE SMOOTH",
"750 444 OFFCURVE",
"784 417 OFFCURVE",
"784 301 CURVE SMOOTH",
"784 59 LINE",
"712 37 LINE",
"712 0 LINE",
"962 0 LINE",
"962 37 LINE",
"878 57 LINE",
"878 326 LINE SMOOTH",
"878 437 OFFCURVE",
"818 493 OFFCURVE",
"722 493 CURVE SMOOTH",
"639 493 OFFCURVE",
"582 451 OFFCURVE",
"552 367 CURVE",
"531 460 OFFCURVE",
"480 493 OFFCURVE",
"401 493 CURVE SMOOTH",
"305 493 OFFCURVE",
"249 443 OFFCURVE",
"220 355 CURVE",
"220 485 LINE",
"58 485 LINE"
);
}
);
width = 1010;
}
);
unicode = 006D;
},
{
glyphname = n;
layers = (
{
hints = (
{
horizontal = 1;
place = "{446, 47}";
type = Stem;
},
{
horizontal = 1;
place = "{0, 21}";
target = up;
type = BottomGhost;
},
{
place = "{67, 169}";
type = Stem;
},
{
place = "{141, 95}";
type = Stem;
},
{
place = "{473, 93}";
type = Stem;
}
);
layerId = "e11d8b17-ebce-493c-b2b7-02eab722b597";
paths = (
{
closed = 1;
nodes = (
"67 450 LINE",
"141 436 LINE",
"141 58 LINE",
"67 37 LINE",
"67 0 LINE",
"306 0 LINE",
"306 37 LINE",
"236 57 LINE",
"236 176 LINE SMOOTH",
"236 359 OFFCURVE",
"291 446 OFFCURVE",
"384 446 CURVE SMOOTH",
"445 446 OFFCURVE",
"473 404 OFFCURVE",
"473 295 CURVE SMOOTH",
"473 57 LINE",
"406 37 LINE",
"406 0 LINE",
"643 0 LINE",
"643 37 LINE",
"566 59 LINE",
"566 307 LINE SMOOTH",
"566 417 OFFCURVE",
"519 493 OFFCURVE",
"407 493 CURVE SMOOTH",
"316 493 OFFCURVE",
"256 444 OFFCURVE",
"229 345 CURVE",
"229 486 LINE",
"67 486 LINE"
);
}
);
width = 688;
}
);
unicode = 006E;
},
{
glyphname = o;
layers = (
{
hints = (
{
horizontal = 1;
place = "{-9, 41}";
type = Stem;
},
{
horizontal = 1;
place = "{452, 42}";
type = Stem;
},
{
place = "{47, 101}";
type = Stem;
},
{
place = "{434, 100}";
type = Stem;
}
);
layerId = "e11d8b17-ebce-493c-b2b7-02eab722b597";
paths = (
{
closed = 1;
nodes = (
"292 452 LINE",
"396 452 OFFCURVE",
"434 377 OFFCURVE",
"434 242 CURVE SMOOTH",
"434 91 OFFCURVE",
"386 32 OFFCURVE",
"290 32 CURVE SMOOTH",
"197 32 OFFCURVE",
"148 89 OFFCURVE",
"148 239 CURVE SMOOTH",
"148 390 OFFCURVE",
"196 452 OFFCURVE",
"292 452 CURVE SMOOTH"
);
},
{
closed = 1;
nodes = (
"292 494 LINE",
"145 494 OFFCURVE",
"47 398 OFFCURVE",
"47 239 CURVE SMOOTH",
"47 80 OFFCURVE",
"144 -9 OFFCURVE",
"291 -9 CURVE SMOOTH",
"435 -9 OFFCURVE",
"534 77 OFFCURVE",
"534 240 CURVE SMOOTH",
"534 403 OFFCURVE",
"436 494 OFFCURVE",
"292 494 CURVE SMOOTH"
);
}
);
width = 582;
}
);
unicode = 006F;
},
{
glyphname = p;
layers = (
{
hints = (
{
horizontal = 1;
place = "{-11, 44}";
type = Stem;
},
{
horizontal = 1;
place = "{449, 44}";
type = Stem;
},
{
horizontal = 1;
place = "{-315, 21}";
target = up;
type = BottomGhost;
},
{
place = "{30, 170}";
type = Stem;
},
{
place = "{105, 95}";
type = Stem;
},
{
place = "{473, 102}";
type = Stem;
}
);
layerId = "e11d8b17-ebce-493c-b2b7-02eab722b597";
paths = (
{
closed = 1;
nodes = (
"32 450 LINE",
"105 437 LINE",
"105 -256 LINE",
"30 -278 LINE",
"30 -315 LINE",
"273 -315 LINE",
"273 -278 LINE",
"200 -256 LINE",
"200 108 LINE",
"230 29 OFFCURVE",
"285 -11 OFFCURVE",
"366 -11 CURVE SMOOTH",
"488 -11 OFFCURVE",
"575 78 OFFCURVE",
"575 241 CURVE SMOOTH",
"575 404 OFFCURVE",
"488 493 OFFCURVE",
"365 493 CURVE SMOOTH",
"285 493 OFFCURVE",
"227 457 OFFCURVE",
"194 362 CURVE",
"194 485 LINE",
"32 485 LINE"
);
},
{
closed = 1;
nodes = (
"351 449 LINE",
"431 449 OFFCURVE",
"473 385 OFFCURVE",
"473 241 CURVE SMOOTH",
"473 105 OFFCURVE",
"435 33 OFFCURVE",
"351 33 CURVE SMOOTH",
"259 33 OFFCURVE",
"201 123 OFFCURVE",
"201 244 CURVE SMOOTH",
"201 374 OFFCURVE",
"267 449 OFFCURVE",
"351 449 CURVE SMOOTH"
);
}
);
width = 628;
}
);
unicode = 0070;
},
{
glyphname = q;
layers = (
{
hints = (
{
horizontal = 1;
place = "{-11, 46}";
type = Stem;
},
{
horizontal = 1;
place = "{448, 45}";
type = Stem;
},
{
horizontal = 1;
place = "{-315, 21}";
target = up;
type = BottomGhost;
},
{
place = "{47, 100}";
type = Stem;
},
{
place = "{423, 93}";
type = Stem;
}
);
layerId = "e11d8b17-ebce-493c-b2b7-02eab722b597";
paths = (
{
closed = 1;
nodes = (
"346 -315 LINE",
"591 -315 LINE",
"591 -278 LINE",
"516 -256 LINE",
"516 492 LINE",
"430 364 LINE",
"417 450 OFFCURVE",
"340 493 OFFCURVE",
"258 493 CURVE SMOOTH",
"142 493 OFFCURVE",
"47 403 OFFCURVE",
"47 239 CURVE SMOOTH",
"47 79 OFFCURVE",
"133 -11 OFFCURVE",
"256 -11 CURVE SMOOTH",
"337 -11 OFFCURVE",
"393 29 OFFCURVE",
"423 108 CURVE",
"423 -256 LINE",
"346 -278 LINE"
);
},
{
closed = 1;
nodes = (
"275 448 LINE",
"367 448 OFFCURVE",
"423 369 OFFCURVE",
"423 241 CURVE SMOOTH",
"423 114 OFFCURVE",
"360 35 OFFCURVE",
"271 35 CURVE SMOOTH",
"188 35 OFFCURVE",
"147 104 OFFCURVE",
"147 242 CURVE SMOOTH",
"147 382 OFFCURVE",
"192 448 OFFCURVE",
"275 448 CURVE SMOOTH"
);
}
);
width = 601;
}
);
unicode = 0071;
},
{
glyphname = r;
layers = (
{
hints = (
{
horizontal = 1;
place = "{429, 55}";
type = Stem;
},
{
horizontal = 1;
place = "{0, 21}";
target = up;
type = BottomGhost;
},
{
horizontal = 1;
place = "{485, -20}";
target = down;
type = TopGhost;
},
{
place = "{62, 171}";
type = Stem;
},
{
place = "{138, 95}";
type = Stem;
}
);
layerId = "e11d8b17-ebce-493c-b2b7-02eab722b597";
paths = (
{
closed = 1;
nodes = (
"60 449 LINE",
"138 435 LINE",
"138 58 LINE",
"62 37 LINE",
"62 0 LINE",
"307 0 LINE",
"307 37 LINE",
"233 58 LINE",
"233 267 LINE SMOOTH",
"233 349 OFFCURVE",
"310 429 OFFCURVE",
"366 429 CURVE SMOOTH",
"377 429 OFFCURVE",
"394 427 OFFCURVE",
"409 419 CURVE",
"440 337 LINE",
"479 337 LINE",
"479 457 LINE",
"446 474 OFFCURVE",
"417 484 OFFCURVE",
"390 484 CURVE SMOOTH",
"304 484 OFFCURVE",
"250 415 OFFCURVE",
"226 343 CURVE",
"226 485 LINE",
"60 485 LINE"
);
}
);
width = 489;
}
);
unicode = 0072;
},
{
glyphname = s;
layers = (
{
hints = (
{
horizontal = 1;
place = "{-5, 38}";
type = Stem;
},
{
horizontal = 1;
place = "{461, 38}";
type = Stem;
},
{
place = "{56, 79}";
type = Stem;
},
{
place = "{353, 75}";
type = Stem;
}
);
layerId = "e11d8b17-ebce-493c-b2b7-02eab722b597";
paths = (
{
closed = 1;
nodes = (
"299 279 LINE SMOOTH",
"156 324 OFFCURVE",
"135 347 OFFCURVE",
"135 383 CURVE SMOOTH",
"135 432 OFFCURVE",
"171 461 OFFCURVE",
"239 461 CURVE SMOOTH",
"274 461 OFFCURVE",
"308 454 OFFCURVE",
"332 435 CURVE",
"363 339 LINE",
"402 339 LINE",
"402 454 LINE",
"367 481 OFFCURVE",
"310 499 OFFCURVE",
"243 499 CURVE SMOOTH",
"123 499 OFFCURVE",
"56 442 OFFCURVE",
"56 354 CURVE SMOOTH",
"56 283 OFFCURVE",
"101 249 OFFCURVE",
"202 217 CURVE SMOOTH",
"327 177 OFFCURVE",
"353 159 OFFCURVE",
"353 118 CURVE SMOOTH",
"353 71 OFFCURVE",
"319 33 OFFCURVE",
"243 33 CURVE SMOOTH",
"206 33 OFFCURVE",
"158 41 OFFCURVE",
"131 68 CURVE",
"102 166 LINE",
"63 166 LINE",
"63 50 LINE",
"98 17 OFFCURVE",
"158 -5 OFFCURVE",
"234 -5 CURVE SMOOTH",
"362 -5 OFFCURVE",
"428 56 OFFCURVE",
"428 143 CURVE SMOOTH",
"428 211 OFFCURVE",
"388 252 OFFCURVE",
"299 279 CURVE SMOOTH"
);
}
);
width = 470;
}
);
unicode = 0073;
},
{
glyphname = t;
layers = (
{
hints = (
{
horizontal = 1;
place = "{-12, 41}";
type = Stem;
},
{
horizontal = 1;
place = "{443, 42}";
type = Stem;
},
{
horizontal = 1;
place = "{641, -20}";
target = down;
type = TopGhost;
},
{
place = "{106, 93}";
type = Stem;
},
{
place = "{106, 239}";
type = Stem;
}
);
layerId = "e11d8b17-ebce-493c-b2b7-02eab722b597";
paths = (
{
closed = 1;
nodes = (
"199 641 LINE",
"106 588 LINE",
"106 485 LINE",
"20 485 LINE",
"20 443 LINE",
"106 443 LINE",
"106 135 LINE SMOOTH",
"106 32 OFFCURVE",
"152 -12 OFFCURVE",
"228 -12 CURVE SMOOTH",
"256 -12 OFFCURVE",
"294 -6 OFFCURVE",
"342 7 CURVE",
"342 44 LINE",
"303 33 OFFCURVE",
"279 29 OFFCURVE",
"260 29 CURVE SMOOTH",
"217 29 OFFCURVE",
"199 53 OFFCURVE",
"199 133 CURVE SMOOTH",
"199 443 LINE",
"345 443 LINE",
"345 485 LINE",
"199 485 LINE"
);
}
);
width = 355;
}
);
unicode = 0074;
},
{
glyphname = u;
layers = (
{
hints = (
{
horizontal = 1;
place = "{-11, 52}";
type = Stem;
},
{
horizontal = 1;
place = "{0, 21}";
target = up;
type = BottomGhost;
},
{
horizontal = 1;
place = "{485, -20}";
target = down;
type = TopGhost;
},
{
place = "{114, 94}";
type = Stem;
},
{
place = "{452, 87}";
type = Stem;
}
);
layerId = "e11d8b17-ebce-493c-b2b7-02eab722b597";
paths = (
{
closed = 1;
nodes = (
"42 448 LINE",
"114 435 LINE",
"114 169 LINE SMOOTH",
"114 48 OFFCURVE",
"171 -11 OFFCURVE",
"278 -11 CURVE SMOOTH",
"349 -11 OFFCURVE",
"417 38 OFFCURVE",
"452 135 CURVE",
"452 0 LINE",
"618 0 LINE",
"618 37 LINE",
"539 60 LINE",
"539 485 LINE",
"373 485 LINE",
"373 448 LINE",
"446 435 LINE",
"446 309 LINE SMOOTH",
"446 122 OFFCURVE",
"386 41 OFFCURVE",
"296 41 CURVE SMOOTH",
"235 41 OFFCURVE",
"208 79 OFFCURVE",
"208 186 CURVE SMOOTH",
"208 485 LINE",
"42 485 LINE"
);
}
);
width = 635;
}
);
unicode = 0075;
},
{
glyphname = v;
layers = (
{
hints = (
{
horizontal = 1;
place = "{485, -20}";
target = down;
type = TopGhost;
},
{
horizontal = 1;
place = "{0, 21}";
target = up;
type = BottomGhost;
}
);
layerId = "e11d8b17-ebce-493c-b2b7-02eab722b597";
paths = (
{
closed = 1;
nodes = (
"388 448 LINE",
"460 431 LINE",
"343 100 LINE",
"215 431 LINE",
"284 448 LINE",
"284 485 LINE",
"30 485 LINE",
"30 448 LINE",
"108 431 LINE",
"285 0 LINE",
"344 0 LINE",
"524 431 LINE",
"598 448 LINE",
"598 485 LINE",
"388 485 LINE"
);
}
);
width = 628;
}
);
unicode = 0076;
},
{
glyphname = w;
layers = (
{
hints = (
{
horizontal = 1;
place = "{487, -20}";
target = down;
type = TopGhost;
},
{
horizontal = 1;
place = "{0, 21}";
target = up;
type = BottomGhost;
},
{
horizontal = 1;
place = "{486, -20}";
target = down;
type = TopGhost;
}
);
layerId = "e11d8b17-ebce-493c-b2b7-02eab722b597";
paths = (
{
closed = 1;
nodes = (
"705 448 LINE",
"778 435 LINE",
"672 99 LINE",
"531 487 LINE",
"466 487 LINE",
"331 103 LINE",
"215 434 LINE",
"284 448 LINE",
"284 485 LINE",
"30 485 LINE",
"30 448 LINE",
"115 433 LINE",
"274 0 LINE",
"339 0 LINE",
"475 381 LINE",
"614 0 LINE",
"675 0 LINE",
"835 434 LINE",
"914 448 LINE",
"914 486 LINE",
"705 486 LINE"
);
}
);
width = 944;
}
);
unicode = 0077;
},
{
glyphname = x;
layers = (
{
hints = (
{
horizontal = 1;
place = "{0, 21}";
target = up;
type = BottomGhost;
},
{
horizontal = 1;
place = "{485, -20}";
target = down;
type = TopGhost;
}
);
layerId = "e11d8b17-ebce-493c-b2b7-02eab722b597";
paths = (
{
closed = 1;
nodes = (
"30 448 LINE",
"109 435 LINE",
"258 233 LINE",
"108 54 LINE",
"31 38 LINE",
"31 0 LINE",
"241 0 LINE",
"241 38 LINE",
"171 52 LINE",
"287 203 LINE",
"390 54 LINE",
"326 38 LINE",
"326 0 LINE",
"580 0 LINE",
"580 38 LINE",
"503 54 LINE",
"347 264 LINE",
"497 435 LINE",
"569 448 LINE",
"569 485 LINE",
"365 485 LINE",
"365 448 LINE",
"436 437 LINE",
"321 294 LINE",
"223 436 LINE",
"284 448 LINE",
"284 485 LINE",
"30 485 LINE"
);
}
);
width = 610;
}
);
unicode = 0078;
},
{
glyphname = y;
layers = (
{
hints = (
{
horizontal = 1;
place = "{-240, 56}";
type = Stem;
},
{
horizontal = 1;
place = "{485, -20}";
target = down;
type = TopGhost;
},
{
horizontal = 1;
place = "{486, -20}";
target = down;
type = TopGhost;
}
);
layerId = "e11d8b17-ebce-493c-b2b7-02eab722b597";
paths = (
{
closed = 1;
nodes = (
"377 448 LINE",
"454 435 LINE",
"333 110 LINE",
"196 434 LINE",
"264 448 LINE",
"264 485 LINE",
"10 485 LINE",
"10 448 LINE",
"93 430 LINE",
"284 -2 LINE",
"241 -109 OFFCURVE",
"224 -179 OFFCURVE",
"155 -184 CURVE",
"130 -94 LINE",
"93 -94 LINE",
"93 -240 LINE",
"137 -240 LINE SMOOTH",
"227 -240 OFFCURVE",
"247 -201 OFFCURVE",
"300 -76 CURVE",
"508 436 LINE",
"587 448 LINE",
"587 486 LINE",
"377 486 LINE"
);
}
);
width = 607;
}
);
unicode = 0079;
},
{
glyphname = z;
layers = (
{
hints = (
{
horizontal = 1;
place = "{0, 43}";
type = Stem;
},
{
horizontal = 1;
place = "{443, 42}";
type = Stem;
}
);
layerId = "e11d8b17-ebce-493c-b2b7-02eab722b597";
paths = (
{
closed = 1;
nodes = (
"37 485 LINE",
"37 357 LINE",
"74 357 LINE",
"98 443 LINE",
"306 443 LINE",
"20 27 LINE",
"20 0 LINE",
"442 0 LINE",
"442 129 LINE",
"406 129 LINE",
"381 43 LINE",
"137 43 LINE",
"423 456 LINE",
"423 485 LINE"
);
}
);
width = 452;
}
);
unicode = 007A;
},
{
glyphname = A;
layers = (
{
hints = (
{
horizontal = 1;
place = "{252, 38}";
type = Stem;
},
{
horizontal = 1;
place = "{0, 21}";
target = up;
type = BottomGhost;
},
{
horizontal = 1;
place = "{758, -20}";
target = down;
type = TopGhost;
}
);
layerId = "e11d8b17-ebce-493c-b2b7-02eab722b597";
paths = (
{
closed = 1;
nodes = (
"50 0 LINE",
"302 0 LINE",
"302 37 LINE",
"212 58 LINE",
"287 252 LINE",
"589 252 LINE",
"668 58 LINE",
"581 37 LINE",
"581 0 LINE",
"865 0 LINE",
"865 37 LINE",
"781 59 LINE",
"493 758 LINE",
"442 758 LINE",
"139 59 LINE",
"50 37 LINE"
);
},
{
closed = 1;
nodes = (
"301 290 LINE",
"435 641 LINE",
"575 290 LINE"
);
}
);
width = 915;
}
);
unicode = 0041;
},
{
glyphname = B;
layers = (
{
hints = (
{
horizontal = 1;
place = "{0, 40}";
type = Stem;
},
{
horizontal = 1;
place = "{365, 42}";
type = Stem;
},
{
horizontal = 1;
place = "{710, 40}";
type = Stem;
},
{
place = "{186, 104}";
type = Stem;
},
{
place = "{554, 112}";
type = Stem;
},
{
place = "{572, 94}";
type = Stem;
},
{
place = "{572, 114}";
type = Stem;
}
);
layerId = "e11d8b17-ebce-493c-b2b7-02eab722b597";
paths = (
{
closed = 1;
nodes = (
"90 713 LINE",
"186 690 LINE",
"186 59 LINE",
"90 37 LINE",
"90 0 LINE",
"370 0 LINE SMOOTH",
"506 0 OFFCURVE",
"575 9 OFFCURVE",
"631 65 CURVE SMOOTH",
"668 101 OFFCURVE",
"686 146 OFFCURVE",
"686 199 CURVE SMOOTH",
"686 314 OFFCURVE",
"614 377 OFFCURVE",
"469 390 CURVE",
"609 410 OFFCURVE",
"666 470 OFFCURVE",
"666 567 CURVE SMOOTH",
"666 692 OFFCURVE",
"572 750 OFFCURVE",
"387 750 CURVE SMOOTH",
"90 750 LINE"
);
},
{
closed = 1;
nodes = (
"290 40 LINE",
"290 365 LINE",
"378 365 LINE SMOOTH",
"514 365 OFFCURVE",
"572 314 OFFCURVE",
"572 202 CURVE SMOOTH",
"572 86 OFFCURVE",
"510 40 OFFCURVE",
"369 40 CURVE"
);
},
{
closed = 1;
nodes = (
"290 407 LINE",
"290 710 LINE",
"345 710 LINE SMOOTH",
"462 710 OFFCURVE",
"554 690 OFFCURVE",
"554 565 CURVE SMOOTH",
"554 470 OFFCURVE",
"501 407 OFFCURVE",
"370 407 CURVE"
);
}
);
width = 726;
}
);
unicode = 0042;
},
{
glyphname = C;
layers = (
{
hints = (
{
horizontal = 1;
place = "{-21, 40}";
type = Stem;
},
{
horizontal = 1;
place = "{723, 37}";
type = Stem;
},
{
place = "{60, 116}";
type = Stem;
}
);
layerId = "e11d8b17-ebce-493c-b2b7-02eab722b597";
paths = (
{
closed = 1;
nodes = (
"678 241 LINE",
"631 241 LINE",
"581 75 LINE",
"538 35 OFFCURVE",
"481 19 OFFCURVE",
"428 19 CURVE SMOOTH",
"276 19 OFFCURVE",
"176 153 OFFCURVE",
"176 373 CURVE SMOOTH",
"176 606 OFFCURVE",
"287 723 OFFCURVE",
"432 723 CURVE SMOOTH",
"484 723 OFFCURVE",
"538 709 OFFCURVE",
"577 674 CURVE",
"626 515 LINE",
"678 515 LINE",
"678 677 LINE",
"618 734 OFFCURVE",
"529 760 OFFCURVE",
"438 760 CURVE SMOOTH",
"225 760 OFFCURVE",
"60 614 OFFCURVE",
"60 370 CURVE SMOOTH",
"60 127 OFFCURVE",
"222 -21 OFFCURVE",
"433 -21 CURVE SMOOTH",
"529 -21 OFFCURVE",
"617 8 OFFCURVE",
"678 72 CURVE"
);
}
);
width = 758;
}
);
unicode = 0043;
},
{
glyphname = D;
layers = (
{
hints = (
{
horizontal = 1;
place = "{0, 42}";
type = Stem;
},
{
horizontal = 1;
place = "{708, 42}";
type = Stem;
},
{
place = "{189, 105}";
type = Stem;
},
{
place = "{680, 116}";
type = Stem;
}
);
layerId = "e11d8b17-ebce-493c-b2b7-02eab722b597";
paths = (
{
closed = 1;
nodes = (
"90 713 LINE",
"189 689 LINE",
"189 60 LINE",
"90 37 LINE",
"90 0 LINE",
"338 0 LINE SMOOTH",
"613 0 OFFCURVE",
"796 79 OFFCURVE",
"796 371 CURVE SMOOTH",
"796 663 OFFCURVE",
"615 750 OFFCURVE",
"356 750 CURVE SMOOTH",
"90 750 LINE"
);
},
{
closed = 1;
nodes = (
"294 42 LINE",
"294 708 LINE",
"360 708 LINE SMOOTH",
"578 708 OFFCURVE",
"680 613 OFFCURVE",
"680 374 CURVE SMOOTH",
"680 120 OFFCURVE",
"564 42 OFFCURVE",
"343 42 CURVE"
);
}
);
width = 856;
}
);
unicode = 0044;
},
{
glyphname = two;
layers = (
{
hints = (
{
horizontal = 1;
place = "{0, 89}";
type = Stem;
},
{
horizontal = 1;
place = "{723, 39}";
type = Stem;
},
{
place = "{428, 98}";
type = Stem;
}
);
layerId = "e11d8b17-ebce-493c-b2b7-02eab722b597";
paths = (
{
closed = 1;
nodes = (
"142 89 LINE",
"164 262 OFFCURVE",
"525 371 OFFCURVE",
"526 574 CURVE SMOOTH",
"526 673 OFFCURVE",
"434 762 OFFCURVE",
"297 762 CURVE SMOOTH",
"213 762 OFFCURVE",
"127 732 OFFCURVE",
"78 675 CURVE",
"78 543 LINE",
"129 543 LINE",
"178 675 LINE",
"209 708 OFFCURVE",
"248 723 OFFCURVE",
"287 723 CURVE SMOOTH",
"387 723 OFFCURVE",
"428 656 OFFCURVE",
"428 588 CURVE SMOOTH",
"428 373 OFFCURVE",
"60 232 OFFCURVE",
"60 37 CURVE SMOOTH",
"60 24 OFFCURVE",
"61 11 OFFCURVE",
"64 0 CURVE",
"541 0 LINE",
"541 89 LINE"
);
}
);
width = 621;
}
);
unicode = 0032;
},
{
glyphname = zero;
layers = (
{
hints = (
{
horizontal = 1;
place = "{-8, 39}";
type = Stem;
},
{
horizontal = 1;
place = "{719, 38}";
type = Stem;
},
{
place = "{40, 112}";
type = Stem;
},
{
place = "{468, 110}";
type = Stem;
}
);
layerId = "e11d8b17-ebce-493c-b2b7-02eab722b597";
paths = (
{
closed = 1;
nodes = (
"308 719 LINE",
"417 719 OFFCURVE",
"468 598 OFFCURVE",
"468 370 CURVE SMOOTH",
"468 141 OFFCURVE",
"408 31 OFFCURVE",
"309 31 CURVE SMOOTH",
"194 31 OFFCURVE",
"152 166 OFFCURVE",
"152 385 CURVE SMOOTH",
"152 609 OFFCURVE",
"212 719 OFFCURVE",
"308 719 CURVE SMOOTH"
);
},
{
closed = 1;
nodes = (
"314 757 LINE",
"151 757 OFFCURVE",
"40 623 OFFCURVE",
"40 382 CURVE SMOOTH",
"40 119 OFFCURVE",
"160 -8 OFFCURVE",
"309 -8 CURVE SMOOTH",
"457 -8 OFFCURVE",
"578 120 OFFCURVE",
"578 371 CURVE SMOOTH",
"578 634 OFFCURVE",
"458 757 OFFCURVE",
"314 757 CURVE SMOOTH"
);
}
);
width = 618;
}
);
unicode = 0030;
},
{
glyphname = one;
layers = (
{
hints = (
{
horizontal = 1;
place = "{0, 21}";
target = up;
type = BottomGhost;
},
{
horizontal = 1;
place = "{751, -20}";
target = down;
type = TopGhost;
},
{
place = "{221, 105}";
type = Stem;
}
);
layerId = "e11d8b17-ebce-493c-b2b7-02eab722b597";
paths = (
{
closed = 1;
nodes = (
"124 0 LINE",
"428 0 LINE",
"428 37 LINE",
"326 60 LINE",
"326 751 LINE",
"263 751 LINE",
"50 626 LINE",
"50 578 LINE",
"221 680 LINE",
"221 60 LINE",
"124 37 LINE"
);
}
);
width = 528;
}
);
unicode = 0031;
},
{
glyphname = four;
layers = (
{
hints = (
{
horizontal = 1;
place = "{196, 71}";
type = Stem;
},
{
horizontal = 1;
place = "{0, 21}";
target = up;
type = BottomGhost;
},
{
horizontal = 1;
place = "{762, -20}";
target = down;
type = TopGhost;
},
{
place = "{369, 100}";
type = Stem;
}
);
layerId = "e11d8b17-ebce-493c-b2b7-02eab722b597";
paths = (
{
closed = 1;
nodes = (
"273 0 LINE",
"577 0 LINE",
"577 37 LINE",
"469 61 LINE",
"469 196 LINE",
"581 196 LINE",
"581 267 LINE",
"469 267 LINE",
"469 762 LINE",
"395 762 LINE",
"25 267 LINE",
"25 196 LINE",
"369 196 LINE",
"369 59 LINE",
"273 37 LINE"
);
},
{
closed = 1;
nodes = (
"369 267 LINE",
"74 267 LINE",
"369 660 LINE"
);
}
);
width = 621;
}
);
unicode = 0034;
},
{
glyphname = five;
layers = (
{
hints = (
{
horizontal = 1;
place = "{-11, 43}";
type = Stem;
},
{
horizontal = 1;
place = "{431, 64}";
type = Stem;
},
{
horizontal = 1;
place = "{666, 84}";
type = Stem;
},
{
place = "{419, 103}";
type = Stem;
}
);
layerId = "e11d8b17-ebce-493c-b2b7-02eab722b597";
paths = (
{
closed = 1;
nodes = (
"148 666 LINE",
"465 666 LINE",
"465 750 LINE",
"113 750 LINE",
"65 328 LINE",
"127 328 LINE",
"162 400 OFFCURVE",
"211 431 OFFCURVE",
"262 431 CURVE SMOOTH",
"342 431 OFFCURVE",
"419 351 OFFCURVE",
"419 230 CURVE SMOOTH",
"419 117 OFFCURVE",
"351 32 OFFCURVE",
"262 32 CURVE SMOOTH",
"227 32 OFFCURVE",
"189 41 OFFCURVE",
"153 69 CURVE",
"111 205 LINE",
"60 205 LINE",
"60 66 LINE",
"100 17 OFFCURVE",
"180 -11 OFFCURVE",
"264 -11 CURVE SMOOTH",
"455 -11 OFFCURVE",
"522 121 OFFCURVE",
"522 247 CURVE SMOOTH",
"522 388 OFFCURVE",
"421 495 OFFCURVE",
"304 495 CURVE SMOOTH",
"243 495 OFFCURVE",
"160 470 OFFCURVE",
"115 369 CURVE"
);
}
);
width = 582;
}
);
unicode = 0035;
},
{
glyphname = six;
layers = (
{
hints = (
{
horizontal = 1;
place = "{-9, 44}";
type = Stem;
},
{
horizontal = 1;
place = "{433, 61}";
type = Stem;
},
{
horizontal = 1;
place = "{722, 41}";
type = Stem;
},
{
place = "{60, 105}";
type = Stem;
},
{
place = "{465, 106}";
type = Stem;
}
);
layerId = "e11d8b17-ebce-493c-b2b7-02eab722b597";
paths = (
{
closed = 1;
nodes = (
"165 369 LINE",
"168 590 OFFCURVE",
"215 722 OFFCURVE",
"328 722 CURVE SMOOTH",
"361 722 OFFCURVE",
"399 712 OFFCURVE",
"441 691 CURVE",
"482 544 LINE",
"533 544 LINE",
"533 692 LINE",
"468 741 OFFCURVE",
"406 763 OFFCURVE",
"346 763 CURVE SMOOTH",
"183 763 OFFCURVE",
"60 591 OFFCURVE",
"60 345 CURVE SMOOTH",
"60 165 OFFCURVE",
"143 -9 OFFCURVE",
"329 -9 CURVE SMOOTH",
"492 -9 OFFCURVE",
"571 119 OFFCURVE",
"571 244 CURVE SMOOTH",
"571 366 OFFCURVE",
"496 494 OFFCURVE",
"352 494 CURVE SMOOTH",
"282 494 OFFCURVE",
"208 463 OFFCURVE",
"165 369 CURVE"
);
},
{
closed = 1;
nodes = (
"166 235 LINE",
"166 370 OFFCURVE",
"237 433 OFFCURVE",
"310 433 CURVE SMOOTH",
"411 433 OFFCURVE",
"465 328 OFFCURVE",
"465 227 CURVE SMOOTH",
"465 131 OFFCURVE",
"416 35 OFFCURVE",
"312 35 CURVE SMOOTH",
"238 35 OFFCURVE",
"166 96 OFFCURVE",
"166 227 CURVE"
);
}
);
width = 621;
}
);
unicode = 0036;
},
{
glyphname = nine;
layers = (
{
hints = (
{
horizontal = 1;
place = "{-9, 41}";
type = Stem;
},
{
horizontal = 1;
place = "{260, 61}";
type = Stem;
},
{
horizontal = 1;
place = "{719, 44}";
type = Stem;
},
{
place = "{60, 106}";
type = Stem;
},
{
place = "{466, 105}";
type = Stem;
}
);
layerId = "e11d8b17-ebce-493c-b2b7-02eab722b597";
paths = (
{
closed = 1;
nodes = (
"466 385 LINE",
"461 164 OFFCURVE",
"418 32 OFFCURVE",
"290 32 CURVE SMOOTH",
"257 32 OFFCURVE",
"219 42 OFFCURVE",
"177 63 CURVE",
"136 210 LINE",
"85 210 LINE",
"85 62 LINE",
"150 13 OFFCURVE",
"212 -9 OFFCURVE",
"272 -9 CURVE SMOOTH",
"448 -9 OFFCURVE",
"571 163 OFFCURVE",
"571 409 CURVE SMOOTH",
"571 589 OFFCURVE",
"488 763 OFFCURVE",
"302 763 CURVE SMOOTH",
"139 763 OFFCURVE",
"60 635 OFFCURVE",
"60 510 CURVE SMOOTH",
"60 388 OFFCURVE",
"135 260 OFFCURVE",
"279 260 CURVE SMOOTH",
"351 260 OFFCURVE",
"421 292 OFFCURVE",
"466 385 CURVE"
);
},
{
closed = 1;
nodes = (
"465 519 LINE",
"465 384 OFFCURVE",
"394 321 OFFCURVE",
"321 321 CURVE SMOOTH",
"220 321 OFFCURVE",
"166 426 OFFCURVE",
"166 527 CURVE SMOOTH",
"166 623 OFFCURVE",
"215 719 OFFCURVE",
"319 719 CURVE SMOOTH",
"393 719 OFFCURVE",
"465 658 OFFCURVE",
"465 527 CURVE"
);
}
);
width = 631;
}
);
unicode = 0039;
},
{
glyphname = eight;
layers = (
{
hints = (
{
horizontal = 1;
place = "{-14, 37}";
type = Stem;
},
{
horizontal = 1;
place = "{370, 39}";
type = Stem;
},
{
horizontal = 1;
place = "{726, 35}";
type = Stem;
},
{
place = "{60, 112}";
type = Stem;
},
{
place = "{82, 103}";
type = Stem;
},
{
place = "{456, 94}";
type = Stem;
},
{
place = "{456, 113}";
type = Stem;
}
);
layerId = "e11d8b17-ebce-493c-b2b7-02eab722b597";
paths = (
{
closed = 1;
nodes = (
"322 370 LINE",
"412 370 OFFCURVE",
"456 285 OFFCURVE",
"456 199 CURVE SMOOTH",
"456 82 OFFCURVE",
"384 23 OFFCURVE",
"312 23 CURVE SMOOTH",
"242 23 OFFCURVE",
"172 81 OFFCURVE",
"172 195 CURVE SMOOTH",
"172 282 OFFCURVE",
"220 370 OFFCURVE",
"313 370 CURVE"
);
},
{
closed = 1;
nodes = (
"314 409 LINE",
"227 409 OFFCURVE",
"185 487 OFFCURVE",
"185 566 CURVE SMOOTH",
"185 673 OFFCURVE",
"249 726 OFFCURVE",
"317 726 CURVE SMOOTH",
"382 726 OFFCURVE",
"447 675 OFFCURVE",
"447 571 CURVE SMOOTH",
"447 490 OFFCURVE",
"402 409 OFFCURVE",
"314 409 CURVE SMOOTH"
);
},
{
closed = 1;
nodes = (
"390 391 LINE",
"501 417 OFFCURVE",
"550 490 OFFCURVE",
"550 564 CURVE SMOOTH",
"550 695 OFFCURVE",
"431 761 OFFCURVE",
"316 761 CURVE SMOOTH",
"199 761 OFFCURVE",
"82 694 OFFCURVE",
"82 566 CURVE SMOOTH",
"82 491 OFFCURVE",
"132 418 OFFCURVE",
"241 391 CURVE",
"117 359 OFFCURVE",
"60 275 OFFCURVE",
"60 191 CURVE SMOOTH",
"60 55 OFFCURVE",
"188 -14 OFFCURVE",
"316 -14 CURVE SMOOTH",
"444 -14 OFFCURVE",
"569 55 OFFCURVE",
"569 191 CURVE SMOOTH",
"569 275 OFFCURVE",
"512 359 OFFCURVE",
"390 391 CURVE"
);
}
);
width = 629;
}
);
unicode = 0038;
},
{
glyphname = seven;
layers = (
{
hints = (
{
horizontal = 1;
place = "{670, 80}";
type = Stem;
},
{
horizontal = 1;
place = "{0, 21}";
target = up;
type = BottomGhost;
}
);
layerId = "e11d8b17-ebce-493c-b2b7-02eab722b597";
paths = (
{
closed = 1;
nodes = (
"82 543 LINE",
"109 670 LINE",
"460 670 LINE",
"303 478 OFFCURVE",
"166 194 OFFCURVE",
"124 0 CURVE",
"247 0 LINE",
"252 174 OFFCURVE",
"346 454 OFFCURVE",
"522 702 CURVE",
"522 750 LINE",
"30 750 LINE",
"30 543 LINE"
);
}
);
width = 552;
}
);
unicode = 0037;
},
{
glyphname = quotesingle;
layers = (
{
hints = (
{
horizontal = 1;
place = "{542, 21}";
target = up;
type = BottomGhost;
},
{
horizontal = 1;
place = "{795, -20}";
target = down;
type = TopGhost;
}
);
layerId = "e11d8b17-ebce-493c-b2b7-02eab722b597";
paths = (
{
closed = 1;
nodes = (
"107 542 LINE",
"144 795 LINE",
"22 795 LINE",
"60 542 LINE"
);
}
);
width = 166;
}
);
unicode = 0027;
},
{
glyphname = parenleft;
layers = (
{
hints = (
{
horizontal = 1;
place = "{-324, 21}";
target = up;
type = BottomGhost;
},
{
horizontal = 1;
place = "{802, -20}";
target = down;
type = TopGhost;
},
{
place = "{57, 106}";
type = Stem;
}
);
layerId = "e11d8b17-ebce-493c-b2b7-02eab722b597";
paths = (
{
closed = 1;
nodes = (
"328 -324 LINE",
"223 -233 OFFCURVE",
"163 -59 OFFCURVE",
"163 240 CURVE SMOOTH",
"163 536 OFFCURVE",
"216 701 OFFCURVE",
"328 802 CURVE",
"281 802 LINE",
"130 667 OFFCURVE",
"57 512 OFFCURVE",
"57 240 CURVE SMOOTH",
"57 -17 OFFCURVE",
"121 -180 OFFCURVE",
"281 -324 CURVE"
);
}
);
width = 372;
}
);
unicode = 0028;
},
{
glyphname = parenright;
layers = (
{
hints = (
{
horizontal = 1;
place = "{802, -20}";
target = down;
type = TopGhost;
},
{
horizontal = 1;
place = "{-324, 21}";
target = up;
type = BottomGhost;
},
{
place = "{209, 105}";
type = Stem;
}
);
layerId = "e11d8b17-ebce-493c-b2b7-02eab722b597";
paths = (
{
closed = 1;
nodes = (
"44 802 LINE",
"151 703 OFFCURVE",
"209 538 OFFCURVE",
"209 240 CURVE SMOOTH",
"209 -56 OFFCURVE",
"156 -220 OFFCURVE",
"44 -324 CURVE",
"91 -324 LINE",
"246 -188 OFFCURVE",
"314 -29 OFFCURVE",
"314 240 CURVE SMOOTH",
"314 497 OFFCURVE",
"249 660 OFFCURVE",
"91 802 CURVE"
);
}
);
width = 372;
}
);
unicode = 0029;
},
{
glyphname = asterisk;
layers = (
{
hints = (
{
horizontal = 1;
place = "{795, -20}";
target = down;
type = TopGhost;
},
{
horizontal = 1;
place = "{416, 21}";
target = up;
type = BottomGhost;
}
);
layerId = "e11d8b17-ebce-493c-b2b7-02eab722b597";
paths = (
{
closed = 1;
nodes = (
"282 795 LINE",
"202 795 LINE",
"224 623 LINE",
"69 697 LINE",
"44 621 LINE",
"213 588 LINE",
"94 463 LINE",
"160 416 LINE",
"242 568 LINE",
"325 416 LINE",
"390 463 LINE",
"272 588 LINE",
"442 621 LINE",
"417 697 LINE",
"260 623 LINE"
);
}
);
width = 486;
}
);
unicode = 002A;
},
{
glyphname = plus;
layers = (
{
hints = (
{
horizontal = 1;
place = "{342, 67}";
type = Stem;
},
{
horizontal = 1;
place = "{99, 21}";
target = up;
type = BottomGhost;
},
{
horizontal = 1;
place = "{654, -20}";
target = down;
type = TopGhost;
},
{
place = "{272, 67}";
type = Stem;
}
);
layerId = "e11d8b17-ebce-493c-b2b7-02eab722b597";
paths = (
{
closed = 1;
nodes = (
"43 409 LINE",
"43 342 LINE",
"272 342 LINE",
"272 99 LINE",
"339 99 LINE",
"339 342 LINE",
"568 342 LINE",
"568 409 LINE",
"339 409 LINE",
"339 654 LINE",
"272 654 LINE",
"272 409 LINE"
);
}
);
width = 611;
}
);
unicode = 002B;
},
{
glyphname = comma;
layers = (
{
hints = (
{
horizontal = 1;
place = "{-140, 21}";
target = up;
type = BottomGhost;
},
{
horizontal = 1;
place = "{112, -20}";
target = down;
type = TopGhost;
}
);
layerId = "e11d8b17-ebce-493c-b2b7-02eab722b597";
paths = (
{
closed = 1;
nodes = (
"74 -140 LINE",
"211 112 LINE",
"84 112 LINE",
"28 -140 LINE"
);
}
);
width = 258;
}
);
unicode = 002C;
},
{
glyphname = hyphen;
layers = (
{
hints = (
{
horizontal = 1;
place = "{228, 68}";
type = Stem;
}
);
layerId = "e11d8b17-ebce-493c-b2b7-02eab722b597";
paths = (
{
closed = 1;
nodes = (
"55 296 LINE",
"55 228 LINE",
"308 228 LINE",
"308 296 LINE"
);
}
);
width = 364;
}
);
unicode = 002D;
},
{
glyphname = period;
layers = (
{
hints = (
{
horizontal = 1;
place = "{-11, 130}";
type = Stem;
},
{
place = "{57, 132}";
type = Stem;
}
);
layerId = "e11d8b17-ebce-493c-b2b7-02eab722b597";
paths = (
{
closed = 1;
nodes = (
"124 119 LINE SMOOTH",
"83 119 OFFCURVE",
"57 90 OFFCURVE",
"57 55 CURVE SMOOTH",
"57 18 OFFCURVE",
"85 -11 OFFCURVE",
"124 -11 CURVE SMOOTH",
"163 -11 OFFCURVE",
"189 16 OFFCURVE",
"189 55 CURVE SMOOTH",
"189 94 OFFCURVE",
"160 119 OFFCURVE",
"124 119 CURVE SMOOTH"
);
}
);
width = 249;
}
);
unicode = 002E;
},
{
glyphname = slash;
layers = (
{
hints = (
{
horizontal = 1;
place = "{802, -20}";
target = down;
type = TopGhost;
},
{
horizontal = 1;
place = "{-320, 21}";
target = up;
type = BottomGhost;
}
);
layerId = "e11d8b17-ebce-493c-b2b7-02eab722b597";
paths = (
{
closed = 1;
nodes = (
"411 802 LINE",
"358 802 LINE",
"-88 -320 LINE",
"-34 -320 LINE"
);
}
);
width = 407;
}
);
unicode = 002F;
},
{
glyphname = colon;
layers = (
{
hints = (
{
horizontal = 1;
place = "{-11, 130}";
type = Stem;
},
{
horizontal = 1;
place = "{360, 132}";
type = Stem;
},
{
place = "{57, 132}";
type = Stem;
}
);
layerId = "e11d8b17-ebce-493c-b2b7-02eab722b597";
paths = (
{
closed = 1;
nodes = (
"124 492 LINE",
"81 492 OFFCURVE",
"57 458 OFFCURVE",
"57 426 CURVE SMOOTH",
"57 389 OFFCURVE",
"85 360 OFFCURVE",
"124 360 CURVE SMOOTH",
"163 360 OFFCURVE",
"189 387 OFFCURVE",
"189 426 CURVE SMOOTH",
"189 465 OFFCURVE",
"159 492 OFFCURVE",
"124 492 CURVE SMOOTH"
);
},
{
closed = 1;
nodes = (
"124 119 LINE",
"83 119 OFFCURVE",
"57 90 OFFCURVE",
"57 55 CURVE SMOOTH",
"57 18 OFFCURVE",
"85 -11 OFFCURVE",
"124 -11 CURVE SMOOTH",
"163 -11 OFFCURVE",
"189 16 OFFCURVE",
"189 55 CURVE SMOOTH",
"189 94 OFFCURVE",
"160 119 OFFCURVE",
"124 119 CURVE SMOOTH"
);
}
);
width = 249;
}
);
unicode = 003A;
},
{
glyphname = semicolon;
layers = (
{
hints = (
{
horizontal = 1;
place = "{112, 248}";
type = Stem;
},
{
horizontal = 1;
place = "{360, 132}";
type = Stem;
},
{
horizontal = 1;
place = "{-140, 21}";
target = up;
type = BottomGhost;
},
{
place = "{72, 132}";
type = Stem;
}
);
layerId = "e11d8b17-ebce-493c-b2b7-02eab722b597";
paths = (
{
closed = 1;
nodes = (
"74 -140 LINE",
"211 112 LINE",
"84 112 LINE",
"28 -140 LINE"
);
},
{
closed = 1;
nodes = (
"138 492 LINE",
"95 492 OFFCURVE",
"72 458 OFFCURVE",
"72 426 CURVE SMOOTH",
"72 389 OFFCURVE",
"99 360 OFFCURVE",
"138 360 CURVE SMOOTH",
"177 360 OFFCURVE",
"204 387 OFFCURVE",
"204 426 CURVE SMOOTH",
"204 465 OFFCURVE",
"173 492 OFFCURVE",
"138 492 CURVE SMOOTH"
);
}
);
width = 258;
}
);
unicode = 003B;
},
{
glyphname = less;
layers = (
{
hints = (
{
horizontal = 1;
place = "{612, -20}";
target = down;
type = TopGhost;
},
{
horizontal = 1;
place = "{129, 21}";
target = up;
type = BottomGhost;
}
);
layerId = "e11d8b17-ebce-493c-b2b7-02eab722b597";
paths = (
{
closed = 1;
nodes = (
"524 612 LINE",
"37 394 LINE",
"37 348 LINE",
"524 129 LINE",
"524 200 LINE",
"135 370 LINE",
"524 540 LINE"
);
}
);
width = 562;
}
);
unicode = 003C;
},
{
glyphname = equal;
layers = (
{
hints = (
{
horizontal = 1;
place = "{263, 68}";
type = Stem;
},
{
horizontal = 1;
place = "{422, 67}";
type = Stem;
}
);
layerId = "e11d8b17-ebce-493c-b2b7-02eab722b597";
paths = (
{
closed = 1;
nodes = (
"44 331 LINE",
"44 263 LINE",
"568 263 LINE",
"568 331 LINE"
);
},
{
closed = 1;
nodes = (
"44 489 LINE",
"44 422 LINE",
"568 422 LINE",
"568 489 LINE"
);
}
);
width = 611;
}
);
unicode = 003D;
},
{
glyphname = greater;
layers = (
{
hints = (
{
horizontal = 1;
place = "{129, 21}";
target = up;
type = BottomGhost;
},
{
horizontal = 1;
place = "{612, -20}";
target = down;
type = TopGhost;
}
);
layerId = "e11d8b17-ebce-493c-b2b7-02eab722b597";
paths = (
{
closed = 1;
nodes = (
"38 129 LINE",
"525 348 LINE",
"525 394 LINE",
"38 612 LINE",
"38 540 LINE",
"427 370 LINE",
"38 200 LINE"
);
}
);
width = 562;
}
);
unicode = 003E;
},
{
glyphname = exclam;
layers = (
{
hints = (
{
horizontal = 1;
place = "{-11, 130}";
type = Stem;
},
{
horizontal = 1;
place = "{750, -20}";
target = down;
type = TopGhost;
},
{
place = "{105, 131}";
type = Stem;
},
{
place = "{132, 77}";
type = Stem;
}
);
layerId = "e11d8b17-ebce-493c-b2b7-02eab722b597";
paths = (
{
closed = 1;
nodes = (
"171 119 LINE",
"130 119 OFFCURVE",
"105 90 OFFCURVE",
"105 55 CURVE SMOOTH",
"105 18 OFFCURVE",
"132 -11 OFFCURVE",
"171 -11 CURVE SMOOTH",
"210 -11 OFFCURVE",
"236 16 OFFCURVE",
"236 55 CURVE SMOOTH",
"236 94 OFFCURVE",
"207 119 OFFCURVE",
"171 119 CURVE SMOOTH"
);
},
{
closed = 1;
nodes = (
"191 183 LINE",
"228 750 LINE",
"114 750 LINE",
"150 183 LINE"
);
}
);
width = 341;
}
);
unicode = 0021;
},
{
glyphname = quotedbl;
layers = (
{
hints = (
{
horizontal = 1;
place = "{544, 21}";
target = up;
type = BottomGhost;
},
{
horizontal = 1;
place = "{795, -20}";
target = down;
type = TopGhost;
}
);
layerId = "e11d8b17-ebce-493c-b2b7-02eab722b597";
paths = (
{
closed = 1;
nodes = (
"107 544 LINE",
"144 795 LINE",
"22 795 LINE",
"60 544 LINE"
);
},
{
closed = 1;
nodes = (
"278 544 LINE",
"315 795 LINE",
"193 795 LINE",
"231 544 LINE"
);
}
);
width = 337;
}
);
unicode = 0022;
},
{
glyphname = numbersign;
layers = (
{
hints = (
{
horizontal = 1;
place = "{277, 36}";
type = Stem;
},
{
horizontal = 1;
place = "{454, 39}";
type = Stem;
},
{
horizontal = 1;
place = "{750, -20}";
target = down;
type = TopGhost;
},
{
horizontal = 1;
place = "{0, 21}";
target = up;
type = BottomGhost;
}
);
layerId = "e11d8b17-ebce-493c-b2b7-02eab722b597";
paths = (
{
closed = 1;
nodes = (
"396 454 LINE",
"376 313 LINE",
"263 313 LINE",
"283 454 LINE"
);
},
{
closed = 1;
nodes = (
"439 277 LINE",
"571 277 LINE",
"571 313 LINE",
"444 313 LINE",
"463 454 LINE",
"598 454 LINE",
"598 493 LINE",
"469 493 LINE",
"504 750 LINE",
"439 750 LINE",
"400 493 LINE",
"289 493 LINE",
"325 750 LINE",
"255 750 LINE",
"218 493 LINE",
"76 493 LINE",
"76 454 LINE",
"214 454 LINE",
"193 313 LINE",
"47 313 LINE",
"47 277 LINE",
"189 277 LINE",
"151 0 LINE",
"219 0 LINE",
"258 277 LINE",
"371 277 LINE",
"333 0 LINE",
"399 0 LINE"
);
}
);
width = 647;
}
);
unicode = 0023;
},
{
glyphname = dollar;
layers = (
{
hints = (
{
horizontal = 1;
place = "{717, 42}";
type = Stem;
},
{
horizontal = 1;
place = "{-85, 21}";
target = up;
type = BottomGhost;
},
{
horizontal = 1;
place = "{842, -20}";
target = down;
type = TopGhost;
},
{
place = "{57, 99}";
type = Stem;
},
{
place = "{284, 41}";
type = Stem;
},
{
place = "{468, 101}";
type = Stem;
},
{
place = "{284, 239}";
type = Stem;
}
);
layerId = "e11d8b17-ebce-493c-b2b7-02eab722b597";
paths = (
{
closed = 1;
nodes = (
"284 -85 LINE",
"325 -85 LINE",
"325 -7 LINE",
"436 1 OFFCURVE",
"569 65 OFFCURVE",
"569 196 CURVE SMOOTH",
"569 311 OFFCURVE",
"467 378 OFFCURVE",
"366 418 CURVE",
"325 437 LINE",
"325 717 LINE",
"358 714 OFFCURVE",
"395 704 OFFCURVE",
"426 688 CURVE",
"472 536 LINE",
"523 536 LINE",
"523 682 LINE",
"470 733 OFFCURVE",
"389 753 OFFCURVE",
"325 758 CURVE",
"325 842 LINE",
"284 842 LINE",
"284 759 LINE",
"128 754 OFFCURVE",
"57 653 OFFCURVE",
"57 559 CURVE SMOOTH",
"57 453 OFFCURVE",
"147 394 OFFCURVE",
"238 357 CURVE",
"253 350 OFFCURVE",
"268 342 OFFCURVE",
"284 335 CURVE",
"284 30 LINE",
"241 31 OFFCURVE",
"194 46 OFFCURVE",
"163 66 CURVE",
"120 228 LINE",
"62 228 LINE",
"62 63 LINE",
"83 50 OFFCURVE",
"105 38 OFFCURVE",
"128 28 CURVE SMOOTH",
"168 9 OFFCURVE",
"223 -6 OFFCURVE",
"284 -9 CURVE"
);
},
{
closed = 1;
nodes = (
"468 151 LINE",
"463 70 OFFCURVE",
"386 40 OFFCURVE",
"325 32 CURVE",
"325 317 LINE",
"398 282 OFFCURVE",
"465 239 OFFCURVE",
"468 151 CURVE"
);
},
{
closed = 1;
nodes = (
"156 603 LINE",
"156 671 OFFCURVE",
"216 712 OFFCURVE",
"284 717 CURVE",
"284 455 LINE",
"220 487 OFFCURVE",
"156 528 OFFCURVE",
"156 603 CURVE SMOOTH"
);
}
);
width = 647;
}
);
unicode = 0024;
},
{
glyphname = percent;
layers = (
{
hints = (
{
horizontal = 1;
place = "{-5, 31}";
type = Stem;
},
{
horizontal = 1;
place = "{350, 29}";
type = Stem;
},
{
horizontal = 1;
place = "{370, 30}";
type = Stem;
},
{
horizontal = 1;
place = "{724, 30}";
type = Stem;
},
{
horizontal = 1;
place = "{784, -20}";
target = down;
type = TopGhost;
},
{
horizontal = 1;
place = "{-35, 21}";
target = up;
type = BottomGhost;
},
{
place = "{31, 78}";
type = Stem;
},
{
place = "{286, 76}";
type = Stem;
},
{
place = "{486, 76}";
type = Stem;
},
{
place = "{739, 78}";
type = Stem;
}
);
layerId = "e11d8b17-ebce-493c-b2b7-02eab722b597";
paths = (
{
closed = 1;
nodes = (
"649 350 LINE",
"717 350 OFFCURVE",
"739 291 OFFCURVE",
"739 186 CURVE SMOOTH",
"739 79 OFFCURVE",
"710 26 OFFCURVE",
"651 26 CURVE SMOOTH",
"586 26 OFFCURVE",
"562 80 OFFCURVE",
"562 192 CURVE SMOOTH",
"562 297 OFFCURVE",
"591 350 OFFCURVE",
"649 350 CURVE SMOOTH"
);
},
{
closed = 1;
nodes = (
"654 379 LINE",
"546 379 OFFCURVE",
"486 312 OFFCURVE",
"486 191 CURVE SMOOTH",
"486 60 OFFCURVE",
"553 -5 OFFCURVE",
"650 -5 CURVE SMOOTH",
"749 -5 OFFCURVE",
"817 60 OFFCURVE",
"817 187 CURVE SMOOTH",
"817 315 OFFCURVE",
"747 379 OFFCURVE",
"654 379 CURVE SMOOTH"
);
},
{
closed = 1;
nodes = (
"701 759 LINE",
"665 784 LINE",
"147 -11 LINE",
"182 -35 LINE"
);
},
{
closed = 1;
nodes = (
"196 724 LINE",
"263 724 OFFCURVE",
"286 668 OFFCURVE",
"286 560 CURVE SMOOTH",
"286 453 OFFCURVE",
"256 400 OFFCURVE",
"197 400 CURVE SMOOTH",
"132 400 OFFCURVE",
"109 456 OFFCURVE",
"109 567 CURVE SMOOTH",
"109 672 OFFCURVE",
"138 724 OFFCURVE",
"196 724 CURVE SMOOTH"
);
},
{
closed = 1;
nodes = (
"200 754 LINE",
"93 754 OFFCURVE",
"31 687 OFFCURVE",
"31 566 CURVE SMOOTH",
"31 435 OFFCURVE",
"101 370 OFFCURVE",
"197 370 CURVE SMOOTH",
"294 370 OFFCURVE",
"362 430 OFFCURVE",
"362 561 CURVE SMOOTH",
"362 690 OFFCURVE",
"294 754 OFFCURVE",
"200 754 CURVE SMOOTH"
);
}
);
width = 848;
}
);
unicode = 0025;
},
{
glyphname = bracketleft;
layers = (
{
hints = (
{
horizontal = 1;
place = "{-314, 36}";
type = Stem;
},
{
horizontal = 1;
place = "{758, 37}";
type = Stem;
},
{
place = "{108, 99}";
type = Stem;
},
{
place = "{108, 220}";
type = Stem;
}
);
layerId = "e11d8b17-ebce-493c-b2b7-02eab722b597";
paths = (
{
closed = 1;
nodes = (
"207 758 LINE",
"328 758 LINE",
"328 795 LINE",
"108 795 LINE",
"108 -314 LINE",
"328 -314 LINE",
"328 -278 LINE",
"207 -278 LINE"
);
}
);
width = 376;
}
);
unicode = 005B;
},
{
glyphname = backslash;
layers = (
{
hints = (
{
horizontal = 1;
place = "{802, -20}";
target = down;
type = TopGhost;
},
{
horizontal = 1;
place = "{-320, 21}";
target = up;
type = BottomGhost;
}
);
layerId = "e11d8b17-ebce-493c-b2b7-02eab722b597";
paths = (
{
closed = 1;
nodes = (
"49 802 LINE",
"-5 802 LINE",
"441 -320 LINE",
"494 -320 LINE"
);
}
);
width = 407;
}
);
unicode = 005C;
},
{
glyphname = bracketright;
layers = (
{
hints = (
{
horizontal = 1;
place = "{-314, 36}";
type = Stem;
},
{
horizontal = 1;
place = "{758, 37}";
type = Stem;
},
{
place = "{48, 221}";
type = Stem;
},
{
place = "{170, 99}";
type = Stem;
}
);
layerId = "e11d8b17-ebce-493c-b2b7-02eab722b597";
paths = (
{
closed = 1;
nodes = (
"170 -278 LINE",
"48 -278 LINE",
"48 -314 LINE",
"269 -314 LINE",
"269 795 LINE",
"48 795 LINE",
"48 758 LINE",
"170 758 LINE"
);
}
);
width = 376;
}
);
unicode = 005D;
},
{
glyphname = asciicircum;
layers = (
{
hints = (
{
horizontal = 1;
place = "{431, 21}";
target = up;
type = BottomGhost;
},
{
horizontal = 1;
place = "{750, -20}";
target = down;
type = TopGhost;
}
);
layerId = "e11d8b17-ebce-493c-b2b7-02eab722b597";
paths = (
{
closed = 1;
nodes = (
"112 431 LINE",
"280 697 LINE",
"449 431 LINE",
"521 431 LINE",
"313 750 LINE",
"250 750 LINE",
"43 431 LINE"
);
}
);
width = 562;
}
);
unicode = 005E;
},
{
glyphname = underscore;
layers = (
{
hints = (
{
horizontal = 1;
place = "{-191, 67}";
type = Stem;
}
);
layerId = "e11d8b17-ebce-493c-b2b7-02eab722b597";
paths = (
{
closed = 1;
nodes = (
"0 -124 LINE",
"0 -191 LINE",
"562 -191 LINE",
"562 -124 LINE"
);
}
);
width = 562;
}
);
unicode = 005F;
},
{
glyphname = braceleft;
layers = (
{
hints = (
{
horizontal = 1;
place = "{-320, 38}";
type = Stem;
},
{
horizontal = 1;
place = "{224, 34}";
type = Stem;
},
{
horizontal = 1;
place = "{764, 36}";
type = Stem;
},
{
place = "{142, 98}";
type = Stem;
},
{
place = "{142, 221}";
type = Stem;
}
);
layerId = "e11d8b17-ebce-493c-b2b7-02eab722b597";
paths = (
{
closed = 1;
nodes = (
"139 241 LINE",
"192 254 OFFCURVE",
"237 286 OFFCURVE",
"240 371 CURVE",
"240 649 LINE SMOOTH",
"240 734 OFFCURVE",
"270 759 OFFCURVE",
"363 764 CURVE",
"363 800 LINE",
"292 800 LINE SMOOTH",
"185 800 OFFCURVE",
"145 767 OFFCURVE",
"142 614 CURVE",
"142 367 LINE SMOOTH",
"142 297 OFFCURVE",
"105 261 OFFCURVE",
"30 258 CURVE",
"30 224 LINE",
"106 221 OFFCURVE",
"142 183 OFFCURVE",
"142 115 CURVE SMOOTH",
"142 -134 LINE",
"147 -287 OFFCURVE",
"185 -320 OFFCURVE",
"292 -320 CURVE SMOOTH",
"363 -320 LINE",
"363 -282 LINE",
"276 -279 OFFCURVE",
"240 -253 OFFCURVE",
"240 -168 CURVE SMOOTH",
"240 110 LINE",
"237 196 OFFCURVE",
"197 222 OFFCURVE",
"139 241 CURVE"
);
}
);
width = 373;
}
);
unicode = 007B;
},
{
glyphname = bar;
layers = (
{
hints = (
{
horizontal = 1;
place = "{750, -20}";
target = down;
type = TopGhost;
},
{
horizontal = 1;
place = "{-188, 21}";
target = up;
type = BottomGhost;
},
{
place = "{250, 69}";
type = Stem;
}
);
layerId = "e11d8b17-ebce-493c-b2b7-02eab722b597";
paths = (
{
closed = 1;
nodes = (
"250 750 LINE",
"250 -188 LINE",
"319 -188 LINE",
"319 750 LINE"
);
}
);
width = 569;
}
);
unicode = 007C;
},
{
glyphname = braceright;
layers = (
{
hints = (
{
horizontal = 1;
place = "{-320, 38}";
type = Stem;
},
{
horizontal = 1;
place = "{224, 34}";
type = Stem;
},
{
horizontal = 1;
place = "{764, 36}";
type = Stem;
},
{
place = "{10, 219}";
type = Stem;
},
{
place = "{133, 96}";
type = Stem;
}
);
layerId = "e11d8b17-ebce-493c-b2b7-02eab722b597";
paths = (
{
closed = 1;
nodes = (
"234 241 LINE",
"175 225 OFFCURVE",
"133 191 OFFCURVE",
"133 110 CURVE SMOOTH",
"133 -168 LINE",
"128 -254 OFFCURVE",
"102 -279 OFFCURVE",
"10 -282 CURVE",
"10 -320 LINE",
"81 -320 LINE SMOOTH",
"187 -320 OFFCURVE",
"226 -287 OFFCURVE",
"229 -134 CURVE",
"229 115 LINE SMOOTH",
"229 182 OFFCURVE",
"267 219 OFFCURVE",
"343 224 CURVE",
"343 258 LINE",
"267 260 OFFCURVE",
"229 296 OFFCURVE",
"229 367 CURVE SMOOTH",
"229 614 LINE SMOOTH",
"229 774 OFFCURVE",
"179 800 OFFCURVE",
"81 800 CURVE SMOOTH",
"10 800 LINE",
"10 764 LINE",
"101 760 OFFCURVE",
"133 730 OFFCURVE",
"133 649 CURVE SMOOTH",
"133 371 LINE SMOOTH",
"133 291 OFFCURVE",
"170 256 OFFCURVE",
"234 241 CURVE"
);
}
);
width = 373;
}
);
unicode = 007D;
},
{
glyphname = asciitilde;
layers = (
{
hints = (
{
horizontal = 1;
place = "{308, 63}";
type = Stem;
},
{
horizontal = 1;
place = "{380, 62}";
type = Stem;
}
);
layerId = "e11d8b17-ebce-493c-b2b7-02eab722b597";
paths = (
{
closed = 1;
nodes = (
"114 315 LINE",
"132 335 LINE SMOOTH",
"161 369 OFFCURVE",
"169 380 OFFCURVE",
"195 380 CURVE SMOOTH",
"219 380 OFFCURVE",
"307 308 OFFCURVE",
"339 308 CURVE SMOOTH",
"384 308 OFFCURVE",
"413 334 OFFCURVE",
"457 397 CURVE",
"476 421 LINE",
"448 433 LINE",
"413 389 OFFCURVE",
"393 371 OFFCURVE",
"368 371 CURVE SMOOTH",
"343 371 OFFCURVE",
"259 442 OFFCURVE",
"227 442 CURVE SMOOTH",
"173 442 OFFCURVE",
"140 406 OFFCURVE",
"87 327 CURVE"
);
}
);
width = 562;
}
);
unicode = 007E;
},
{
glyphname = at;
layers = (
{
hints = (
{
horizontal = 1;
place = "{-15, 37}";
type = Stem;
},
{
horizontal = 1;
place = "{172, 37}";
type = Stem;
},
{
horizontal = 1;
place = "{549, 35}";
type = Stem;
},
{
horizontal = 1;
place = "{731, 36}";
type = Stem;
},
{
place = "{62, 70}";
type = Stem;
},
{
place = "{267, 74}";
type = Stem;
},
{
place = "{546, 42}";
type = Stem;
},
{
place = "{794, 69}";
type = Stem;
}
);
layerId = "e11d8b17-ebce-493c-b2b7-02eab722b597";
paths = (
{
closed = 1;
nodes = (
"479 549 LINE",
"524 549 OFFCURVE",
"546 516 OFFCURVE",
"546 467 CURVE SMOOTH",
"546 334 OFFCURVE",
"478 209 OFFCURVE",
"402 209 CURVE SMOOTH",
"369 209 OFFCURVE",
"341 244 OFFCURVE",
"341 299 CURVE SMOOTH",
"341 392 OFFCURVE",
"394 549 OFFCURVE",
"479 549 CURVE SMOOTH"
);
},
{
closed = 1;
nodes = (
"643 574 LINE",
"566 574 LINE",
"558 535 LINE",
"534 568 OFFCURVE",
"505 584 OFFCURVE",
"470 584 CURVE SMOOTH",
"350 584 OFFCURVE",
"267 447 OFFCURVE",
"267 319 CURVE SMOOTH",
"267 226 OFFCURVE",
"318 172 OFFCURVE",
"385 172 CURVE SMOOTH",
"434 172 OFFCURVE",
"477 192 OFFCURVE",
"516 259 CURVE",
"523 200 OFFCURVE",
"566 169 OFFCURVE",
"627 169 CURVE SMOOTH",
"753 169 OFFCURVE",
"863 286 OFFCURVE",
"863 448 CURVE SMOOTH",
"863 638 OFFCURVE",
"717 767 OFFCURVE",
"505 767 CURVE SMOOTH",
"244 767 OFFCURVE",
"62 577 OFFCURVE",
"62 336 CURVE SMOOTH",
"62 120 OFFCURVE",
"219 -15 OFFCURVE",
"415 -15 CURVE SMOOTH",
"453 -15 OFFCURVE",
"496 -10 OFFCURVE",
"544 0 CURVE",
"544 38 LINE",
"496 27 OFFCURVE",
"456 22 OFFCURVE",
"424 22 CURVE SMOOTH",
"256 22 OFFCURVE",
"132 133 OFFCURVE",
"132 324 CURVE SMOOTH",
"132 556 OFFCURVE",
"283 731 OFFCURVE",
"505 731 CURVE SMOOTH",
"673 731 OFFCURVE",
"794 632 OFFCURVE",
"794 469 CURVE SMOOTH",
"794 353 OFFCURVE",
"746 204 OFFCURVE",
"645 204 CURVE SMOOTH",
"606 204 OFFCURVE",
"588 232 OFFCURVE",
"588 267 CURVE SMOOTH",
"588 281 OFFCURVE",
"592 308 OFFCURVE",
"600 348 CURVE"
);
}
);
width = 927;
}
);
unicode = 0040;
},
{
glyphname = grave;
layers = (
{
hints = (
{
horizontal = 1;
place = "{605, 21}";
target = up;
type = BottomGhost;
},
{
horizontal = 1;
place = "{750, -20}";
target = down;
type = TopGhost;
}
);
layerId = "e11d8b17-ebce-493c-b2b7-02eab722b597";
paths = (
{
closed = 1;
nodes = (
"361 605 LINE",
"229 750 LINE",
"95 750 LINE",
"330 605 LINE"
);
}
);
width = 386;
}
);
unicode = 0060;
},
{
glyphname = bullet;
layers = (
{
hints = (
{
horizontal = 1;
place = "{538, -20}";
target = down;
type = TopGhost;
},
{
horizontal = 1;
place = "{225, 21}";
target = up;
type = BottomGhost;
}
);
layerId = "e11d8b17-ebce-493c-b2b7-02eab722b597";
paths = (
{
closed = 1;
nodes = (
"378 538 LINE SMOOTH",
"290 538 OFFCURVE",
"220 468 OFFCURVE",
"220 380 CURVE SMOOTH",
"220 296 OFFCURVE",
"291 225 OFFCURVE",
"376 225 CURVE SMOOTH",
"461 225 OFFCURVE",
"532 296 OFFCURVE",
"532 381 CURVE SMOOTH",
"532 466 OFFCURVE",
"461 538 OFFCURVE",
"378 538 CURVE SMOOTH"
);
}
);
width = 750;
}
);
unicode = 2022;
},
{
glyphname = paragraph;
layers = (
{
hints = (
{
horizontal = 1;
place = "{706, 44}";
type = Stem;
},
{
horizontal = 1;
place = "{-314, 21}";
target = up;
type = BottomGhost;
},
{
place = "{278, 47}";
type = Stem;
},
{
place = "{448, 46}";
type = Stem;
}
);
layerId = "e11d8b17-ebce-493c-b2b7-02eab722b597";
paths = (
{
closed = 1;
nodes = (
"278 -314 LINE",
"325 -314 LINE",
"325 706 LINE",
"448 706 LINE",
"448 -314 LINE",
"494 -314 LINE",
"494 706 LINE",
"559 706 LINE",
"559 750 LINE",
"271 750 LINE SMOOTH",
"119 750 OFFCURVE",
"35 668 OFFCURVE",
"35 547 CURVE SMOOTH",
"35 431 OFFCURVE",
"117 346 OFFCURVE",
"254 346 CURVE SMOOTH",
"278 346 LINE"
);
}
);
width = 618;
}
);
unicode = 00B6;
},
{
glyphname = acute;
layers = (
{
hints = (
{
horizontal = 1;
place = "{604, 21}";
target = up;
type = BottomGhost;
},
{
horizontal = 1;
place = "{750, -20}";
target = down;
type = TopGhost;
}
);
layerId = "e11d8b17-ebce-493c-b2b7-02eab722b597";
paths = (
{
closed = 1;
nodes = (
"66 604 LINE",
"300 750 LINE",
"166 750 LINE",
"34 604 LINE"
);
}
);
width = 388;
}
);
unicode = 00B4;
},
{
glyphname = dieresis;
layers = (
{
hints = (
{
horizontal = 1;
place = "{640, 116}";
type = Stem;
},
{
place = "{103, 130}";
type = Stem;
},
{
place = "{326, 130}";
type = Stem;
}
);
layerId = "e11d8b17-ebce-493c-b2b7-02eab722b597";
paths = (
{
closed = 1;
nodes = (
"168 756 LINE",
"129 756 OFFCURVE",
"103 735 OFFCURVE",
"103 698 CURVE SMOOTH",
"103 661 OFFCURVE",
"129 640 OFFCURVE",
"168 640 CURVE SMOOTH",
"211 640 OFFCURVE",
"233 665 OFFCURVE",
"233 698 CURVE SMOOTH",
"233 734 OFFCURVE",
"207 756 OFFCURVE",
"168 756 CURVE SMOOTH"
);
},
{
closed = 1;
nodes = (
"391 756 LINE",
"352 756 OFFCURVE",
"326 735 OFFCURVE",
"326 698 CURVE SMOOTH",
"326 661 OFFCURVE",
"352 640 OFFCURVE",
"391 640 CURVE SMOOTH",
"434 640 OFFCURVE",
"456 665 OFFCURVE",
"456 698 CURVE SMOOTH",
"456 734 OFFCURVE",
"430 756 OFFCURVE",
"391 756 CURVE SMOOTH"
);
}
);
width = 562;
}
);
unicode = 00A8;
},
{
glyphname = notequal;
layers = (
{
hints = (
{
horizontal = 1;
place = "{160, 62}";
type = Stem;
},
{
horizontal = 1;
place = "{378, 62}";
type = Stem;
},
{
horizontal = 1;
place = "{-28, 21}";
target = up;
type = BottomGhost;
},
{
horizontal = 1;
place = "{618, -20}";
target = down;
type = TopGhost;
}
);
layerId = "e11d8b17-ebce-493c-b2b7-02eab722b597";
paths = (
{
closed = 1;
nodes = (
"211 160 LINE",
"129 -1 LINE",
"181 -28 LINE",
"277 160 LINE",
"607 160 LINE",
"607 222 LINE",
"307 222 LINE",
"387 378 LINE",
"607 378 LINE",
"607 440 LINE",
"418 440 LINE",
"494 591 LINE",
"441 618 LINE",
"352 440 LINE",
"17 440 LINE",
"17 378 LINE",
"321 378 LINE",
"242 222 LINE",
"17 222 LINE",
"17 160 LINE"
);
}
);
width = 618;
}
);
unicode = 2260;
},
{
glyphname = plusminus;
layers = (
{
hints = (
{
horizontal = 1;
place = "{0, 62}";
type = Stem;
},
{
horizontal = 1;
place = "{414, 62}";
type = Stem;
},
{
horizontal = 1;
place = "{745, -20}";
target = down;
type = TopGhost;
},
{
place = "{278, 62}";
type = Stem;
}
);
layerId = "e11d8b17-ebce-493c-b2b7-02eab722b597";
paths = (
{
closed = 1;
nodes = (
"340 745 LINE",
"278 745 LINE",
"278 476 LINE",
"11 476 LINE",
"11 414 LINE",
"278 414 LINE",
"278 145 LINE",
"340 145 LINE",
"340 414 LINE",
"606 414 LINE",
"606 476 LINE",
"340 476 LINE"
);
},
{
closed = 1;
nodes = (
"12 62 LINE",
"12 0 LINE",
"602 0 LINE",
"602 62 LINE"
);
}
);
width = 618;
}
);
unicode = 00B1;
},
{
glyphname = lessequal;
layers = (
{
hints = (
{
horizontal = 1;
place = "{0, 62}";
type = Stem;
},
{
horizontal = 1;
place = "{719, -20}";
target = down;
type = TopGhost;
}
);
layerId = "e11d8b17-ebce-493c-b2b7-02eab722b597";
paths = (
{
closed = 1;
nodes = (
"592 719 LINE",
"33 456 LINE",
"33 394 LINE",
"592 132 LINE",
"592 201 LINE",
"120 425 LINE",
"592 649 LINE"
);
},
{
closed = 1;
nodes = (
"592 62 LINE",
"33 62 LINE",
"33 0 LINE",
"592 0 LINE"
);
}
);
width = 618;
}
);
unicode = 2264;
},
{
glyphname = greaterequal;
layers = (
{
hints = (
{
horizontal = 1;
place = "{0, 62}";
type = Stem;
},
{
horizontal = 1;
place = "{719, -20}";
target = down;
type = TopGhost;
}
);
layerId = "e11d8b17-ebce-493c-b2b7-02eab722b597";
paths = (
{
closed = 1;
nodes = (
"33 719 LINE",
"33 649 LINE",
"503 425 LINE",
"33 201 LINE",
"33 132 LINE",
"592 394 LINE",
"592 456 LINE"
);
},
{
closed = 1;
nodes = (
"592 62 LINE",
"33 62 LINE",
"33 0 LINE",
"592 0 LINE"
);
}
);
width = 618;
}
);
unicode = 2265;
},
{
glyphname = endash;
layers = (
{
hints = (
{
horizontal = 1;
place = "{228, 68}";
type = Stem;
}
);
layerId = "e11d8b17-ebce-493c-b2b7-02eab722b597";
paths = (
{
closed = 1;
nodes = (
"55 296 LINE",
"55 228 LINE",
"610 228 LINE",
"610 296 LINE"
);
}
);
width = 666;
}
);
unicode = 2013;
},
{
glyphname = emdash;
layers = (
{
hints = (
{
horizontal = 1;
place = "{228, 68}";
type = Stem;
}
);
layerId = "e11d8b17-ebce-493c-b2b7-02eab722b597";
paths = (
{
closed = 1;
nodes = (
"55 296 LINE",
"55 228 LINE",
"803 228 LINE",
"803 296 LINE"
);
}
);
width = 858;
}
);
unicode = 2014;
},
{
glyphname = quotedblleft;
layers = (
{
hints = (
{
horizontal = 1;
place = "{796, -20}";
target = down;
type = TopGhost;
},
{
horizontal = 1;
place = "{544, 21}";
target = up;
type = BottomGhost;
}
);
layerId = "e11d8b17-ebce-493c-b2b7-02eab722b597";
paths = (
{
closed = 1;
nodes = (
"321 796 LINE",
"237 544 LINE",
"366 544 LINE",
"366 796 LINE"
);
},
{
closed = 1;
nodes = (
"128 796 LINE",
"47 544 LINE",
"174 544 LINE",
"174 796 LINE"
);
}
);
width = 477;
}
);
unicode = 201C;
},
{
glyphname = quotedblright;
layers = (
{
hints = (
{
horizontal = 1;
place = "{544, 21}";
target = up;
type = BottomGhost;
},
{
horizontal = 1;
place = "{795, -20}";
target = down;
type = TopGhost;
}
);
layerId = "e11d8b17-ebce-493c-b2b7-02eab722b597";
paths = (
{
closed = 1;
nodes = (
"292 544 LINE",
"374 795 LINE",
"247 795 LINE",
"247 544 LINE"
);
},
{
closed = 1;
nodes = (
"101 544 LINE",
"189 795 LINE",
"55 795 LINE",
"55 544 LINE"
);
}
);
width = 477;
}
);
unicode = 201D;
},
{
glyphname = quoteleft;
layers = (
{
hints = (
{
horizontal = 1;
place = "{795, -20}";
target = down;
type = TopGhost;
},
{
horizontal = 1;
place = "{543, 21}";
target = up;
type = BottomGhost;
}
);
layerId = "e11d8b17-ebce-493c-b2b7-02eab722b597";
paths = (
{
closed = 1;
nodes = (
"126 795 LINE",
"47 543 LINE",
"174 543 LINE",
"174 795 LINE"
);
}
);
width = 286;
}
);
unicode = 2018;
},
{
glyphname = quoteright;
layers = (
{
hints = (
{
horizontal = 1;
place = "{543, 21}";
target = up;
type = BottomGhost;
},
{
horizontal = 1;
place = "{795, -20}";
target = down;
type = TopGhost;
}
);
layerId = "e11d8b17-ebce-493c-b2b7-02eab722b597";
paths = (
{
closed = 1;
nodes = (
"102 543 LINE",
"182 795 LINE",
"55 795 LINE",
"55 543 LINE"
);
}
);
width = 286;
}
);
unicode = 2019;
},
{
glyphname = approxequal;
layers = (
{
hints = (
{
horizontal = 1;
place = "{83, 84}";
type = Stem;
},
{
horizontal = 1;
place = "{171, 84}";
type = Stem;
},
{
horizontal = 1;
place = "{290, 84}";
type = Stem;
},
{
horizontal = 1;
place = "{378, 84}";
type = Stem;
},
{
horizontal = 1;
place = "{476, -20}";
target = down;
type = TopGhost;
},
{
horizontal = 1;
place = "{70, 21}";
target = up;
type = BottomGhost;
}
);
layerId = "e11d8b17-ebce-493c-b2b7-02eab722b597";
paths = (
{
closed = 1;
nodes = (
"556 476 LINE",
"532 404 OFFCURVE",
"502 374 OFFCURVE",
"455 374 CURVE SMOOTH",
"430 374 OFFCURVE",
"401 381 OFFCURVE",
"345 404 CURVE SMOOTH",
"280 430 LINE SMOOTH",
"237 447 OFFCURVE",
"200 462 OFFCURVE",
"161 462 CURVE SMOOTH",
"89 462 OFFCURVE",
"39 405 OFFCURVE",
"16 286 CURVE",
"49 277 LINE",
"68 344 OFFCURVE",
"101 378 OFFCURVE",
"149 378 CURVE SMOOTH",
"170 378 OFFCURVE",
"201 370 OFFCURVE",
"241 354 CURVE SMOOTH",
"292 334 LINE SMOOTH",
"374 302 OFFCURVE",
"410 290 OFFCURVE",
"444 290 CURVE SMOOTH",
"537 290 OFFCURVE",
"572 392 OFFCURVE",
"588 465 CURVE"
);
},
{
closed = 1;
nodes = (
"556 269 LINE",
"532 197 OFFCURVE",
"502 167 OFFCURVE",
"455 167 CURVE SMOOTH",
"430 167 OFFCURVE",
"401 174 OFFCURVE",
"345 197 CURVE SMOOTH",
"280 223 LINE SMOOTH",
"237 240 OFFCURVE",
"200 255 OFFCURVE",
"161 255 CURVE SMOOTH",
"89 255 OFFCURVE",
"39 198 OFFCURVE",
"16 79 CURVE",
"49 70 LINE",
"68 137 OFFCURVE",
"101 171 OFFCURVE",
"149 171 CURVE SMOOTH",
"170 171 OFFCURVE",
"201 163 OFFCURVE",
"241 147 CURVE SMOOTH",
"292 127 LINE SMOOTH",
"374 95 OFFCURVE",
"410 83 OFFCURVE",
"444 83 CURVE SMOOTH",
"537 83 OFFCURVE",
"572 185 OFFCURVE",
"588 258 CURVE"
);
}
);
width = 618;
}
);
unicode = 2248;
},
{
glyphname = guillemotleft;
layers = (
{
hints = (
{
horizontal = 1;
place = "{62, 21}";
target = up;
type = BottomGhost;
},
{
horizontal = 1;
place = "{442, -20}";
target = down;
type = TopGhost;
}
);
layerId = "e11d8b17-ebce-493c-b2b7-02eab722b597";
paths = (
{
closed = 1;
nodes = (
"211 62 LINE",
"256 62 LINE",
"160 252 LINE",
"255 442 LINE",
"211 442 LINE",
"55 252 LINE"
);
},
{
closed = 1;
nodes = (
"402 62 LINE",
"447 62 LINE",
"351 252 LINE",
"447 442 LINE",
"402 442 LINE",
"246 252 LINE"
);
}
);
width = 503;
}
);
unicode = 00AB;
},
{
glyphname = guillemotright;
layers = (
{
hints = (
{
horizontal = 1;
place = "{442, -20}";
target = down;
type = TopGhost;
},
{
horizontal = 1;
place = "{62, 21}";
target = up;
type = BottomGhost;
}
);
layerId = "e11d8b17-ebce-493c-b2b7-02eab722b597";
paths = (
{
closed = 1;
nodes = (
"291 442 LINE",
"247 442 LINE",
"343 252 LINE",
"247 62 LINE",
"291 62 LINE",
"447 252 LINE"
);
},
{
closed = 1;
nodes = (
"100 442 LINE",
"55 442 LINE",
"152 252 LINE",
"56 62 LINE",
"100 62 LINE",
"256 252 LINE"
);
}
);
width = 503;
}
);
unicode = 00BB;
},
{
glyphname = ellipsis;
layers = (
{
hints = (
{
horizontal = 1;
place = "{-11, 130}";
type = Stem;
},
{
place = "{57, 132}";
type = Stem;
},
{
place = "{306, 132}";
type = Stem;
},
{
place = "{556, 130}";
type = Stem;
}
);
layerId = "e11d8b17-ebce-493c-b2b7-02eab722b597";
paths = (
{
closed = 1;
nodes = (
"622 119 LINE",
"579 119 OFFCURVE",
"556 90 OFFCURVE",
"556 55 CURVE SMOOTH",
"556 16 OFFCURVE",
"582 -11 OFFCURVE",
"621 -11 CURVE SMOOTH",
"660 -11 OFFCURVE",
"686 16 OFFCURVE",
"686 55 CURVE SMOOTH",
"686 94 OFFCURVE",
"658 119 OFFCURVE",
"622 119 CURVE SMOOTH"
);
},
{
closed = 1;
nodes = (
"373 119 LINE",
"330 119 OFFCURVE",
"306 88 OFFCURVE",
"306 55 CURVE SMOOTH",
"306 18 OFFCURVE",
"333 -11 OFFCURVE",
"372 -11 CURVE SMOOTH",
"411 -11 OFFCURVE",
"438 16 OFFCURVE",
"438 55 CURVE SMOOTH",
"438 94 OFFCURVE",
"409 119 OFFCURVE",
"373 119 CURVE SMOOTH"
);
},
{
closed = 1;
nodes = (
"124 119 LINE",
"83 119 OFFCURVE",
"57 90 OFFCURVE",
"57 55 CURVE SMOOTH",
"57 18 OFFCURVE",
"85 -11 OFFCURVE",
"124 -11 CURVE SMOOTH",
"163 -11 OFFCURVE",
"189 16 OFFCURVE",
"189 55 CURVE SMOOTH",
"189 94 OFFCURVE",
"160 119 OFFCURVE",
"124 119 CURVE SMOOTH"
);
}
);
width = 747;
}
);
unicode = 2026;
},
{
glyphname = divide;
layers = (
{
hints = (
{
horizontal = 1;
place = "{1, 140}";
type = Stem;
},
{
horizontal = 1;
place = "{269, 62}";
type = Stem;
},
{
horizontal = 1;
place = "{451, 138}";
type = Stem;
},
{
place = "{237, 139}";
type = Stem;
}
);
layerId = "e11d8b17-ebce-493c-b2b7-02eab722b597";
paths = (
{
closed = 1;
nodes = (
"11 331 LINE",
"11 269 LINE",
"603 269 LINE",
"603 331 LINE"
);
},
{
closed = 1;
nodes = (
"308 589 LINE",
"267 589 OFFCURVE",
"237 558 OFFCURVE",
"237 521 CURVE SMOOTH",
"237 480 OFFCURVE",
"269 451 OFFCURVE",
"306 451 CURVE SMOOTH",
"346 451 OFFCURVE",
"376 482 OFFCURVE",
"376 521 CURVE SMOOTH",
"376 560 OFFCURVE",
"343 589 OFFCURVE",
"308 589 CURVE SMOOTH"
);
},
{
closed = 1;
nodes = (
"308 141 LINE",
"265 141 OFFCURVE",
"237 107 OFFCURVE",
"237 72 CURVE SMOOTH",
"237 29 OFFCURVE",
"270 1 OFFCURVE",
"306 1 CURVE SMOOTH",
"341 1 OFFCURVE",
"376 31 OFFCURVE",
"376 71 CURVE SMOOTH",
"376 111 OFFCURVE",
"343 141 OFFCURVE",
"308 141 CURVE SMOOTH"
);
}
);
width = 618;
}
);
unicode = 00F7;
},
{
glyphname = circumflex;
layers = (
{
hints = (
{
horizontal = 1;
place = "{750, -20}";
target = down;
type = TopGhost;
},
{
horizontal = 1;
place = "{586, 21}";
target = up;
type = BottomGhost;
}
);
layerId = "e11d8b17-ebce-493c-b2b7-02eab722b597";
paths = (
{
closed = 1;
nodes = (
"294 750 LINE",
"260 750 LINE",
"114 586 LINE",
"153 586 LINE",
"277 661 LINE",
"409 586 LINE",
"449 586 LINE"
);
}
);
width = 562;
}
);
unicode = 02C6;
},
{
glyphname = tilde;
layers = (
{
hints = (
{
horizontal = 1;
place = "{618, 68}";
type = Stem;
},
{
horizontal = 1;
place = "{682, 68}";
type = Stem;
}
);
layerId = "e11d8b17-ebce-493c-b2b7-02eab722b597";
paths = (
{
closed = 1;
nodes = (
"109 624 LINE",
"142 667 OFFCURVE",
"166 682 OFFCURVE",
"189 682 CURVE SMOOTH",
"250 682 OFFCURVE",
"294 618 OFFCURVE",
"347 618 CURVE SMOOTH",
"380 618 OFFCURVE",
"417 640 OFFCURVE",
"468 724 CURVE",
"443 742 LINE",
"414 699 OFFCURVE",
"391 686 OFFCURVE",
"368 686 CURVE SMOOTH",
"320 686 OFFCURVE",
"284 750 OFFCURVE",
"222 750 CURVE SMOOTH",
"173 750 OFFCURVE",
"147 727 OFFCURVE",
"102 663 CURVE SMOOTH",
"87 642 LINE"
);
}
);
width = 562;
}
);
unicode = 02DC;
},
{
glyphname = breve;
layers = (
{
hints = (
{
horizontal = 1;
place = "{594, 70}";
type = Stem;
},
{
horizontal = 1;
place = "{594, 156}";
type = Stem;
},
{
place = "{111, 32}";
type = Stem;
},
{
place = "{420, 30}";
type = Stem;
}
);
layerId = "e11d8b17-ebce-493c-b2b7-02eab722b597";
paths = (
{
closed = 1;
nodes = (
"420 750 LINE",
"420 693 OFFCURVE",
"350 664 OFFCURVE",
"282 664 CURVE SMOOTH",
"213 664 OFFCURVE",
"143 693 OFFCURVE",
"143 750 CURVE",
"111 750 LINE",
"111 645 OFFCURVE",
"196 594 OFFCURVE",
"281 594 CURVE SMOOTH",
"366 594 OFFCURVE",
"450 645 OFFCURVE",
"450 750 CURVE"
);
}
);
width = 562;
}
);
unicode = 02D8;
},
{
glyphname = dotaccent;
layers = (
{
hints = (
{
horizontal = 1;
place = "{640, 116}";
type = Stem;
},
{
place = "{220, 130}";
type = Stem;
}
);
layerId = "e11d8b17-ebce-493c-b2b7-02eab722b597";
paths = (
{
closed = 1;
nodes = (
"285 756 LINE SMOOTH",
"246 756 OFFCURVE",
"220 735 OFFCURVE",
"220 698 CURVE SMOOTH",
"220 661 OFFCURVE",
"246 640 OFFCURVE",
"285 640 CURVE SMOOTH",
"328 640 OFFCURVE",
"350 665 OFFCURVE",
"350 698 CURVE SMOOTH",
"350 734 OFFCURVE",
"324 756 OFFCURVE",
"285 756 CURVE SMOOTH"
);
}
);
width = 564;
}
);
unicode = 02D9;
},
{
glyphname = ring;
layers = (
{
hints = (
{
horizontal = 1;
place = "{566, 30}";
type = Stem;
},
{
horizontal = 1;
place = "{767, 30}";
type = Stem;
},
{
place = "{162, 51}";
type = Stem;
},
{
place = "{349, 48}";
type = Stem;
}
);
layerId = "e11d8b17-ebce-493c-b2b7-02eab722b597";
paths = (
{
closed = 1;
nodes = (
"280 767 LINE",
"325 767 OFFCURVE",
"349 724 OFFCURVE",
"349 681 CURVE SMOOTH",
"349 637 OFFCURVE",
"325 596 OFFCURVE",
"280 596 CURVE SMOOTH",
"235 596 OFFCURVE",
"213 637 OFFCURVE",
"213 681 CURVE SMOOTH",
"213 724 OFFCURVE",
"236 767 OFFCURVE",
"280 767 CURVE SMOOTH"
);
},
{
closed = 1;
nodes = (
"284 797 LINE",
"201 797 OFFCURVE",
"162 739 OFFCURVE",
"162 680 CURVE SMOOTH",
"162 624 OFFCURVE",
"202 566 OFFCURVE",
"279 566 CURVE SMOOTH",
"356 566 OFFCURVE",
"397 624 OFFCURVE",
"397 683 CURVE SMOOTH",
"397 739 OFFCURVE",
"359 797 OFFCURVE",
"284 797 CURVE SMOOTH"
);
}
);
width = 562;
}
);
unicode = 02DA;
},
{
glyphname = cedilla;
layers = (
{
hints = (
{
horizontal = 1;
place = "{0, -20}";
target = down;
type = TopGhost;
},
{
horizontal = 1;
place = "{-236, 21}";
target = up;
type = BottomGhost;
},
{
place = "{81, 124}";
type = Stem;
},
{
place = "{139, 66}";
type = Stem;
}
);
layerId = "e11d8b17-ebce-493c-b2b7-02eab722b597";
paths = (
{
closed = 1;
nodes = (
"123 0 LINE",
"81 0 LINE",
"81 -72 LINE",
"110 -77 OFFCURVE",
"139 -87 OFFCURVE",
"139 -118 CURVE SMOOTH",
"139 -169 OFFCURVE",
"70 -193 OFFCURVE",
"34 -212 CURVE",
"44 -236 LINE",
"103 -223 OFFCURVE",
"205 -191 OFFCURVE",
"205 -118 CURVE SMOOTH",
"205 -68 OFFCURVE",
"165 -46 OFFCURVE",
"123 -43 CURVE"
);
}
);
width = 232;
}
);
unicode = 00B8;
},
{
glyphname = hungarumlaut;
layers = (
{
hints = (
{
horizontal = 1;
place = "{573, 176}";
type = Stem;
}
);
layerId = "e11d8b17-ebce-493c-b2b7-02eab722b597";
paths = (
{
closed = 1;
nodes = (
"368 573 LINE",
"591 749 LINE",
"458 749 LINE",
"335 573 LINE"
);
},
{
closed = 1;
nodes = (
"189 573 LINE",
"412 749 LINE",
"279 749 LINE",
"156 573 LINE"
);
}
);
width = 562;
}
);
unicode = 02DD;
},
{
glyphname = ogonek;
layers = (
{
hints = (
{
horizontal = 1;
place = "{-227, 32}";
type = Stem;
},
{
horizontal = 1;
place = "{-227, 230}";
type = Stem;
},
{
place = "{37, 71}";
type = Stem;
}
);
layerId = "e11d8b17-ebce-493c-b2b7-02eab722b597";
paths = (
{
closed = 1;
nodes = (
"199 -195 LINE",
"135 -194 OFFCURVE",
"108 -152 OFFCURVE",
"108 -105 CURVE SMOOTH",
"108 -59 OFFCURVE",
"135 -13 OFFCURVE",
"182 3 CURVE",
"86 3 OFFCURVE",
"37 -51 OFFCURVE",
"37 -107 CURVE SMOOTH",
"37 -166 OFFCURVE",
"93 -227 OFFCURVE",
"205 -227 CURVE"
);
}
);
width = 228;
}
);
unicode = 02DB;
},
{
glyphname = caron;
layers = (
{
hints = (
{
horizontal = 1;
place = "{587, 21}";
target = up;
type = BottomGhost;
},
{
horizontal = 1;
place = "{750, -20}";
target = down;
type = TopGhost;
}
);
layerId = "e11d8b17-ebce-493c-b2b7-02eab722b597";
paths = (
{
closed = 1;
nodes = (
"266 587 LINE",
"299 587 LINE",
"449 750 LINE",
"409 750 LINE",
"283 677 LINE",
"153 750 LINE",
"114 750 LINE"
);
}
);
width = 562;
}
);
unicode = 02C7;
},
{
glyphname = periodcentered;
layers = (
{
hints = (
{
horizontal = 1;
place = "{214, 131}";
type = Stem;
},
{
place = "{57, 132}";
type = Stem;
}
);
layerId = "e11d8b17-ebce-493c-b2b7-02eab722b597";
paths = (
{
closed = 1;
nodes = (
"124 345 LINE SMOOTH",
"81 345 OFFCURVE",
"57 312 OFFCURVE",
"57 280 CURVE SMOOTH",
"57 243 OFFCURVE",
"85 214 OFFCURVE",
"124 214 CURVE SMOOTH",
"161 214 OFFCURVE",
"189 241 OFFCURVE",
"189 281 CURVE SMOOTH",
"189 317 OFFCURVE",
"161 345 OFFCURVE",
"124 345 CURVE SMOOTH"
);
}
);
width = 249;
}
);
unicode = 00B7;
},
{
glyphname = quotesinglbase;
layers = (
{
hints = (
{
horizontal = 1;
place = "{-140, 21}";
target = up;
type = BottomGhost;
},
{
horizontal = 1;
place = "{112, -20}";
target = down;
type = TopGhost;
}
);
layerId = "e11d8b17-ebce-493c-b2b7-02eab722b597";
paths = (
{
closed = 1;
nodes = (
"85 -140 LINE",
"223 112 LINE",
"96 112 LINE",
"39 -140 LINE"
);
}
);
width = 270;
}
);
unicode = 201A;
},
{
glyphname = quotedblbase;
layers = (
{
hints = (
{
horizontal = 1;
place = "{-140, 21}";
target = up;
type = BottomGhost;
},
{
horizontal = 1;
place = "{112, -20}";
target = down;
type = TopGhost;
}
);
layerId = "e11d8b17-ebce-493c-b2b7-02eab722b597";
paths = (
{
closed = 1;
nodes = (
"277 -140 LINE",
"414 112 LINE",
"286 112 LINE",
"229 -140 LINE"
);
},
{
closed = 1;
nodes = (
"85 -140 LINE",
"229 112 LINE",
"96 112 LINE",
"39 -140 LINE"
);
}
);
width = 461;
}
);
unicode = 201E;
},
{
glyphname = perthousand;
layers = (
{
hints = (
{
horizontal = 1;
place = "{-5, 31}";
type = Stem;
},
{
horizontal = 1;
place = "{350, 29}";
type = Stem;
},
{
horizontal = 1;
place = "{370, 30}";
type = Stem;
},
{
horizontal = 1;
place = "{724, 30}";
type = Stem;
},
{
horizontal = 1;
place = "{784, -20}";
target = down;
type = TopGhost;
},
{
horizontal = 1;
place = "{-35, 21}";
target = up;
type = BottomGhost;
},
{
place = "{31, 78}";
type = Stem;
},
{
place = "{286, 76}";
type = Stem;
},
{
place = "{486, 76}";
type = Stem;
},
{
place = "{739, 78}";
type = Stem;
},
{
place = "{898, 77}";
type = Stem;
},
{
place = "{1152, 76}";
type = Stem;
}
);
layerId = "e11d8b17-ebce-493c-b2b7-02eab722b597";
paths = (
{
closed = 1;
nodes = (
"1062 350 LINE",
"1129 350 OFFCURVE",
"1152 293 OFFCURVE",
"1152 186 CURVE SMOOTH",
"1152 79 OFFCURVE",
"1122 26 OFFCURVE",
"1063 26 CURVE SMOOTH",
"999 26 OFFCURVE",
"975 80 OFFCURVE",
"975 192 CURVE SMOOTH",
"975 297 OFFCURVE",
"1004 350 OFFCURVE",
"1062 350 CURVE SMOOTH"
);
},
{
closed = 1;
nodes = (
"1066 379 LINE",
"961 379 OFFCURVE",
"898 314 OFFCURVE",
"898 191 CURVE SMOOTH",
"898 60 OFFCURVE",
"967 -5 OFFCURVE",
"1063 -5 CURVE SMOOTH",
"1156 -5 OFFCURVE",
"1228 55 OFFCURVE",
"1228 187 CURVE SMOOTH",
"1228 315 OFFCURVE",
"1160 379 OFFCURVE",
"1066 379 CURVE SMOOTH"
);
},
{
closed = 1;
nodes = (
"649 350 LINE",
"717 350 OFFCURVE",
"739 291 OFFCURVE",
"739 186 CURVE SMOOTH",
"739 79 OFFCURVE",
"710 26 OFFCURVE",
"651 26 CURVE SMOOTH",
"586 26 OFFCURVE",
"562 80 OFFCURVE",
"562 192 CURVE SMOOTH",
"562 297 OFFCURVE",
"591 350 OFFCURVE",
"649 350 CURVE SMOOTH"
);
},
{
closed = 1;
nodes = (
"654 379 LINE",
"546 379 OFFCURVE",
"486 312 OFFCURVE",
"486 191 CURVE SMOOTH",
"486 60 OFFCURVE",
"553 -5 OFFCURVE",
"650 -5 CURVE SMOOTH",
"749 -5 OFFCURVE",
"817 60 OFFCURVE",
"817 187 CURVE SMOOTH",
"817 315 OFFCURVE",
"747 379 OFFCURVE",
"654 379 CURVE SMOOTH"
);
},
{
closed = 1;
nodes = (
"701 759 LINE",
"665 784 LINE",
"147 -11 LINE",
"182 -35 LINE"
);
},
{
closed = 1;
nodes = (
"196 724 LINE",
"263 724 OFFCURVE",
"286 668 OFFCURVE",
"286 560 CURVE SMOOTH",
"286 453 OFFCURVE",
"256 400 OFFCURVE",
"197 400 CURVE SMOOTH",
"132 400 OFFCURVE",
"109 456 OFFCURVE",
"109 567 CURVE SMOOTH",
"109 672 OFFCURVE",
"138 724 OFFCURVE",
"196 724 CURVE SMOOTH"
);
},
{
closed = 1;
nodes = (
"200 754 LINE",
"93 754 OFFCURVE",
"31 687 OFFCURVE",
"31 566 CURVE SMOOTH",
"31 435 OFFCURVE",
"101 370 OFFCURVE",
"197 370 CURVE SMOOTH",
"294 370 OFFCURVE",
"362 430 OFFCURVE",
"362 561 CURVE SMOOTH",
"362 690 OFFCURVE",
"294 754 OFFCURVE",
"200 754 CURVE SMOOTH"
);
}
);
width = 1261;
}
);
unicode = 2030;
},
{
glyphname = guilsinglleft;
layers = (
{
hints = (
{
horizontal = 1;
place = "{62, 21}";
target = up;
type = BottomGhost;
},
{
horizontal = 1;
place = "{442, -20}";
target = down;
type = TopGhost;
}
);
layerId = "e11d8b17-ebce-493c-b2b7-02eab722b597";
paths = (
{
closed = 1;
nodes = (
"211 62 LINE",
"256 62 LINE",
"160 252 LINE",
"255 442 LINE",
"211 442 LINE",
"55 252 LINE"
);
}
);
width = 312;
}
);
unicode = 2039;
},
{
glyphname = guilsinglright;
layers = (
{
hints = (
{
horizontal = 1;
place = "{442, -20}";
target = down;
type = TopGhost;
},
{
horizontal = 1;
place = "{62, 21}";
target = up;
type = BottomGhost;
}
);
layerId = "e11d8b17-ebce-493c-b2b7-02eab722b597";
paths = (
{
closed = 1;
nodes = (
"100 442 LINE",
"55 442 LINE",
"152 252 LINE",
"56 62 LINE",
"100 62 LINE",
"256 252 LINE"
);
}
);
width = 312;
}
);
unicode = 203A;
},
{
glyphname = currency;
layers = (
{
hints = (
{
horizontal = 1;
place = "{129, 67}";
type = Stem;
},
{
horizontal = 1;
place = "{591, 65}";
type = Stem;
},
{
horizontal = 1;
place = "{93, 21}";
target = up;
type = BottomGhost;
},
{
horizontal = 1;
place = "{691, -20}";
target = down;
type = TopGhost;
},
{
place = "{97, 67}";
type = Stem;
},
{
place = "{557, 67}";
type = Stem;
}
);
layerId = "e11d8b17-ebce-493c-b2b7-02eab722b597";
paths = (
{
closed = 1;
nodes = (
"358 591 LINE",
"465 591 OFFCURVE",
"557 505 OFFCURVE",
"557 393 CURVE SMOOTH",
"557 281 OFFCURVE",
"466 196 OFFCURVE",
"360 196 CURVE SMOOTH",
"256 196 OFFCURVE",
"164 281 OFFCURVE",
"164 393 CURVE SMOOTH",
"164 504 OFFCURVE",
"257 591 OFFCURVE",
"358 591 CURVE SMOOTH"
);
},
{
closed = 1;
nodes = (
"65 141 LINE",
"108 97 LINE",
"198 188 LINE",
"250 149 OFFCURVE",
"305 129 OFFCURVE",
"362 129 CURVE SMOOTH",
"421 129 OFFCURVE",
"475 149 OFFCURVE",
"524 188 CURVE",
"619 93 LINE",
"661 137 LINE",
"567 231 LINE",
"605 281 OFFCURVE",
"624 335 OFFCURVE",
"624 393 CURVE SMOOTH",
"624 449 OFFCURVE",
"605 503 OFFCURVE",
"567 555 CURVE",
"657 645 LINE",
"614 687 LINE",
"523 597 LINE",
"473 636 OFFCURVE",
"419 656 OFFCURVE",
"361 656 CURVE SMOOTH",
"302 656 OFFCURVE",
"248 637 OFFCURVE",
"197 597 CURVE",
"102 691 LINE",
"60 648 LINE",
"154 555 LINE",
"116 503 OFFCURVE",
"97 449 OFFCURVE",
"97 393 CURVE SMOOTH",
"97 334 OFFCURVE",
"116 280 OFFCURVE",
"154 231 CURVE"
);
}
);
width = 721;
}
);
unicode = 00A4;
},
{
glyphname = logicalnot;
layers = (
{
hints = (
{
horizontal = 1;
place = "{237, 67}";
type = Stem;
},
{
horizontal = 1;
place = "{0, 21}";
target = up;
type = BottomGhost;
},
{
place = "{457, 67}";
type = Stem;
}
);
layerId = "e11d8b17-ebce-493c-b2b7-02eab722b597";
paths = (
{
closed = 1;
nodes = (
"457 0 LINE",
"524 0 LINE",
"524 304 LINE",
"37 304 LINE",
"37 237 LINE",
"457 237 LINE"
);
}
);
width = 562;
}
);
unicode = 00AC;
},
{
glyphname = uni00AD;
layers = (
{
hints = (
{
horizontal = 1;
place = "{228, 68}";
type = Stem;
}
);
layerId = "e11d8b17-ebce-493c-b2b7-02eab722b597";
paths = (
{
closed = 1;
nodes = (
"55 296 LINE",
"55 228 LINE",
"308 228 LINE",
"308 296 LINE"
);
}
);
width = 364;
}
);
unicode = 00AD;
},
{
glyphname = uni0410;
layers = (
{
hints = (
{
horizontal = 1;
place = "{252, 38}";
type = Stem;
},
{
horizontal = 1;
place = "{0, 21}";
target = up;
type = BottomGhost;
},
{
horizontal = 1;
place = "{758, -20}";
target = down;
type = TopGhost;
}
);
layerId = "e11d8b17-ebce-493c-b2b7-02eab722b597";
paths = (
{
closed = 1;
nodes = (
"5 0 LINE",
"257 0 LINE",
"257 37 LINE",
"167 58 LINE",
"242 252 LINE",
"544 252 LINE",
"623 58 LINE",
"536 37 LINE",
"536 0 LINE",
"820 0 LINE",
"820 37 LINE",
"736 59 LINE",
"448 758 LINE",
"397 758 LINE",
"94 59 LINE",
"5 37 LINE"
);
},
{
closed = 1;
nodes = (
"256 290 LINE",
"390 641 LINE",
"530 290 LINE"
);
}
);
width = 825;
}
);
unicode = 0410;
},
{
glyphname = uni0411;
layers = (
{
hints = (
{
horizontal = 1;
place = "{0, 40}";
type = Stem;
},
{
horizontal = 1;
place = "{409, 40}";
type = Stem;
},
{
horizontal = 1;
place = "{707, 43}";
type = Stem;
},
{
place = "{149, 106}";
type = Stem;
},
{
place = "{534, 116}";
type = Stem;
}
);
layerId = "e11d8b17-ebce-493c-b2b7-02eab722b597";
paths = (
{
closed = 1;
nodes = (
"50 37 LINE",
"50 0 LINE",
"353 0 LINE SMOOTH",
"570 0 OFFCURVE",
"650 80 OFFCURVE",
"650 220 CURVE SMOOTH",
"650 400 OFFCURVE",
"516 449 OFFCURVE",
"345 449 CURVE SMOOTH",
"255 449 LINE",
"255 707 LINE",
"511 707 LINE",
"550 571 LINE",
"602 571 LINE",
"602 750 LINE",
"52 750 LINE",
"52 713 LINE",
"149 689 LINE",
"149 60 LINE"
);
},
{
closed = 1;
nodes = (
"255 40 LINE",
"255 409 LINE",
"366 409 LINE SMOOTH",
"478 409 OFFCURVE",
"534 344 OFFCURVE",
"534 224 CURVE SMOOTH",
"534 104 OFFCURVE",
"478 40 OFFCURVE",
"366 40 CURVE"
);
}
);
width = 710;
}
);
unicode = 0411;
},
{
glyphname = uni0413;
layers = (
{
hints = (
{
horizontal = 1;
place = "{707, 43}";
type = Stem;
},
{
horizontal = 1;
place = "{0, 21}";
target = up;
type = BottomGhost;
},
{
place = "{148, 105}";
type = Stem;
}
);
layerId = "e11d8b17-ebce-493c-b2b7-02eab722b597";
paths = (
{
closed = 1;
nodes = (
"253 707 LINE",
"509 707 LINE",
"548 571 LINE",
"600 571 LINE",
"600 750 LINE",
"49 750 LINE",
"49 713 LINE",
"148 689 LINE",
"148 60 LINE",
"48 37 LINE",
"48 0 LINE",
"352 0 LINE",
"352 37 LINE",
"253 59 LINE"
);
}
);
width = 605;
}
);
unicode = 0413;
},
{
glyphname = uni0412;
layers = (
{
hints = (
{
horizontal = 1;
place = "{0, 40}";
type = Stem;
},
{
horizontal = 1;
place = "{365, 42}";
type = Stem;
},
{
horizontal = 1;
place = "{710, 40}";
type = Stem;
},
{
place = "{146, 104}";
type = Stem;
},
{
place = "{514, 112}";
type = Stem;
},
{
place = "{532, 94}";
type = Stem;
},
{
place = "{532, 114}";
type = Stem;
}
);
layerId = "e11d8b17-ebce-493c-b2b7-02eab722b597";
paths = (
{
closed = 1;
nodes = (
"50 713 LINE",
"146 690 LINE",
"146 59 LINE",
"50 37 LINE",
"50 0 LINE",
"330 0 LINE SMOOTH",
"466 0 OFFCURVE",
"535 9 OFFCURVE",
"591 65 CURVE SMOOTH",
"628 101 OFFCURVE",
"646 146 OFFCURVE",
"646 199 CURVE SMOOTH",
"646 314 OFFCURVE",
"574 377 OFFCURVE",
"429 390 CURVE",
"569 410 OFFCURVE",
"626 470 OFFCURVE",
"626 567 CURVE SMOOTH",
"626 692 OFFCURVE",
"532 750 OFFCURVE",
"347 750 CURVE SMOOTH",
"50 750 LINE"
);
},
{
closed = 1;
nodes = (
"250 40 LINE",
"250 365 LINE",
"338 365 LINE SMOOTH",
"474 365 OFFCURVE",
"532 314 OFFCURVE",
"532 202 CURVE SMOOTH",
"532 86 OFFCURVE",
"470 40 OFFCURVE",
"329 40 CURVE"
);
},
{
closed = 1;
nodes = (
"250 407 LINE",
"250 710 LINE",
"305 710 LINE SMOOTH",
"422 710 OFFCURVE",
"514 690 OFFCURVE",
"514 565 CURVE SMOOTH",
"514 470 OFFCURVE",
"461 407 OFFCURVE",
"330 407 CURVE"
);
}
);
width = 706;
}
);
unicode = 0412;
},
{
glyphname = uni0415;
layers = (
{
hints = (
{
horizontal = 1;
place = "{0, 43}";
type = Stem;
},
{
horizontal = 1;
place = "{364, 44}";
type = Stem;
},
{
horizontal = 1;
place = "{707, 43}";
type = Stem;
},
{
horizontal = 1;
place = "{495, -20}";
target = down;
type = TopGhost;
},
{
place = "{149, 105}";
type = Stem;
}
);
layerId = "e11d8b17-ebce-493c-b2b7-02eab722b597";
paths = (
{
closed = 1;
nodes = (
"50 713 LINE",
"149 689 LINE",
"149 60 LINE",
"50 37 LINE",
"50 0 LINE",
"620 0 LINE",
"620 178 LINE",
"567 178 LINE",
"528 43 LINE",
"254 43 LINE",
"254 364 LINE",
"447 364 LINE",
"474 288 LINE",
"511 288 LINE",
"511 495 LINE",
"474 495 LINE",
"447 408 LINE",
"254 408 LINE",
"254 707 LINE",
"510 707 LINE",
"549 571 LINE",
"601 571 LINE",
"601 750 LINE",
"50 750 LINE"
);
}
);
width = 680;
}
);
unicode = 0415;
},
{
glyphname = uni0414;
layers = (
{
hints = (
{
horizontal = 1;
place = "{-151, 189}";
type = Stem;
},
{
horizontal = 1;
place = "{0, 38}";
type = Stem;
},
{
horizontal = 1;
place = "{758, -20}";
target = down;
type = TopGhost;
}
);
layerId = "e11d8b17-ebce-493c-b2b7-02eab722b597";
paths = (
{
closed = 1;
nodes = (
"915 -151 LINE",
"915 38 LINE",
"791 38 LINE",
"496 758 LINE",
"446 758 LINE",
"134 38 LINE",
"10 38 LINE",
"10 -151 LINE",
"56 -151 LINE",
"118 0 LINE",
"806 0 LINE",
"869 -151 LINE"
);
},
{
closed = 1;
nodes = (
"208 38 LINE",
"439 641 LINE",
"680 38 LINE"
);
}
);
width = 925;
}
);
unicode = 0414;
},
{
glyphname = uni0416;
layers = (
{
hints = (
{
horizontal = 1;
place = "{750, -20}";
target = down;
type = TopGhost;
},
{
horizontal = 1;
place = "{0, 21}";
target = up;
type = BottomGhost;
},
{
place = "{528, 105}";
type = Stem;
}
);
layerId = "e11d8b17-ebce-493c-b2b7-02eab722b597";
paths = (
{
closed = 1;
nodes = (
"332 750 LINE",
"78 750 LINE",
"78 713 LINE",
"167 691 LINE",
"439 435 LINE",
"128 59 LINE",
"10 37 LINE",
"10 0 LINE",
"220 0 LINE",
"528 378 LINE",
"528 60 LINE",
"428 37 LINE",
"428 0 LINE",
"733 0 LINE",
"733 37 LINE",
"633 60 LINE",
"633 378 LINE",
"941 0 LINE",
"1151 0 LINE",
"1151 37 LINE",
"1033 59 LINE",
"722 435 LINE",
"994 691 LINE",
"1083 713 LINE",
"1083 750 LINE",
"829 750 LINE",
"829 713 LINE",
"907 694 LINE",
"633 398 LINE",
"633 689 LINE",
"733 713 LINE",
"733 750 LINE",
"429 750 LINE",
"429 713 LINE",
"528 689 LINE",
"528 398 LINE",
"254 694 LINE",
"332 713 LINE"
);
}
);
width = 1161;
}
);
unicode = 0416;
},
{
glyphname = uni041A;
layers = (
{
hints = (
{
horizontal = 1;
place = "{750, -20}";
target = down;
type = TopGhost;
},
{
horizontal = 1;
place = "{0, 21}";
target = up;
type = BottomGhost;
},
{
place = "{159, 105}";
type = Stem;
}
);
layerId = "e11d8b17-ebce-493c-b2b7-02eab722b597";
paths = (
{
closed = 1;
nodes = (
"60 750 LINE",
"60 713 LINE",
"159 689 LINE",
"159 60 LINE",
"60 37 LINE",
"60 0 LINE",
"364 0 LINE",
"364 37 LINE",
"264 59 LINE",
"264 378 LINE",
"572 0 LINE",
"782 0 LINE",
"782 37 LINE",
"664 59 LINE",
"353 435 LINE",
"625 691 LINE",
"735 713 LINE",
"735 750 LINE",
"589 750 LINE",
"264 398 LINE",
"264 690 LINE",
"364 713 LINE",
"364 750 LINE"
);
}
);
width = 802;
}
);
unicode = 041A;
},
{
glyphname = uni0417;
layers = (
{
hints = (
{
horizontal = 1;
place = "{-9, 37}";
type = Stem;
},
{
horizontal = 1;
place = "{366, 37}";
type = Stem;
},
{
horizontal = 1;
place = "{723, 36}";
type = Stem;
},
{
place = "{405, 103}";
type = Stem;
},
{
place = "{421, 87}";
type = Stem;
},
{
place = "{421, 101}";
type = Stem;
}
);
layerId = "e11d8b17-ebce-493c-b2b7-02eab722b597";
paths = (
{
closed = 1;
nodes = (
"297 385 LINE",
"441 388 OFFCURVE",
"508 477 OFFCURVE",
"508 565 CURVE SMOOTH",
"508 688 OFFCURVE",
"386 759 OFFCURVE",
"262 759 CURVE SMOOTH",
"182 759 OFFCURVE",
"110 730 OFFCURVE",
"65 663 CURVE",
"65 544 LINE",
"116 544 LINE",
"159 663 LINE",
"189 703 OFFCURVE",
"226 723 OFFCURVE",
"271 723 CURVE SMOOTH",
"339 723 OFFCURVE",
"405 674 OFFCURVE",
"405 580 CURVE SMOOTH",
"405 465 OFFCURVE",
"342 406 OFFCURVE",
"215 403 CURVE",
"215 366 LINE",
"367 363 OFFCURVE",
"421 294 OFFCURVE",
"421 180 CURVE SMOOTH",
"421 80 OFFCURVE",
"343 28 OFFCURVE",
"266 28 CURVE SMOOTH",
"226 28 OFFCURVE",
"185 43 OFFCURVE",
"152 72 CURVE",
"109 203 LINE",
"60 203 LINE",
"60 72 LINE",
"111 16 OFFCURVE",
"195 -9 OFFCURVE",
"267 -9 CURVE SMOOTH",
"400 -9 OFFCURVE",
"522 73 OFFCURVE",
"522 200 CURVE SMOOTH",
"522 292 OFFCURVE",
"449 385 OFFCURVE",
"297 385 CURVE"
);
}
);
width = 572;
}
);
unicode = 0417;
},
{
glyphname = three;
layers = (
{
hints = (
{
horizontal = 1;
place = "{-15, 34}";
type = Stem;
},
{
horizontal = 1;
place = "{705, 45}";
type = Stem;
},
{
place = "{441, 102}";
type = Stem;
}
);
layerId = "e11d8b17-ebce-493c-b2b7-02eab722b597";
paths = (
{
closed = 1;
nodes = (
"525 714 LINE",
"525 750 LINE",
"62 750 LINE",
"62 543 LINE",
"113 543 LINE",
"151 705 LINE",
"410 705 LINE",
"208 411 LINE",
"273 411 LINE SMOOTH",
"371 411 OFFCURVE",
"433 360 OFFCURVE",
"441 215 CURVE",
"438 79 OFFCURVE",
"370 19 OFFCURVE",
"291 19 CURVE SMOOTH",
"244 19 OFFCURVE",
"200 37 OFFCURVE",
"159 73 CURVE",
"111 207 LINE",
"60 207 LINE",
"60 70 LINE",
"119 13 OFFCURVE",
"199 -15 OFFCURVE",
"279 -15 CURVE SMOOTH",
"414 -15 OFFCURVE",
"543 63 OFFCURVE",
"543 215 CURVE SMOOTH",
"543 344 OFFCURVE",
"471 427 OFFCURVE",
"331 442 CURVE"
);
}
);
width = 603;
}
);
unicode = 0033;
},
{
glyphname = uni041B;
layers = (
{
hints = (
{
horizontal = 1;
place = "{0, 21}";
target = up;
type = BottomGhost;
},
{
horizontal = 1;
place = "{750, -20}";
target = down;
type = TopGhost;
}
);
layerId = "e11d8b17-ebce-493c-b2b7-02eab722b597";
paths = (
{
closed = 1;
nodes = (
"367 625 LINE",
"590 59 LINE",
"494 37 LINE",
"494 0 LINE",
"798 0 LINE",
"798 37 LINE",
"707 59 LINE",
"431 750 LINE",
"372 750 LINE",
"89 62 LINE",
"5 36 LINE",
"5 0 LINE",
"144 0 LINE"
);
}
);
width = 803;
}
);
unicode = 041B;
},
{
glyphname = uni041C;
layers = (
{
hints = (
{
horizontal = 1;
place = "{0, 21}";
target = up;
type = BottomGhost;
},
{
horizontal = 1;
place = "{750, -20}";
target = down;
type = TopGhost;
},
{
place = "{156, 52}";
type = Stem;
},
{
place = "{813, 104}";
type = Stem;
}
);
layerId = "e11d8b17-ebce-493c-b2b7-02eab722b597";
paths = (
{
closed = 1;
nodes = (
"715 0 LINE",
"1019 0 LINE",
"1019 37 LINE",
"917 60 LINE",
"917 689 LINE",
"1021 713 LINE",
"1021 750 LINE",
"785 750 LINE",
"539 124 LINE",
"286 750 LINE",
"71 750 LINE",
"71 713 LINE",
"156 687 LINE",
"156 60 LINE",
"60 37 LINE",
"60 0 LINE",
"308 0 LINE",
"308 37 LINE",
"208 60 LINE",
"208 688 LINE",
"480 0 LINE",
"541 0 LINE",
"813 688 LINE",
"813 60 LINE",
"715 37 LINE"
);
}
);
width = 1081;
}
);
unicode = 041C;
},
{
glyphname = uni041D;
layers = (
{
hints = (
{
horizontal = 1;
place = "{360, 45}";
type = Stem;
},
{
horizontal = 1;
place = "{0, 21}";
target = up;
type = BottomGhost;
},
{
horizontal = 1;
place = "{750, -20}";
target = down;
type = TopGhost;
},
{
place = "{160, 105}";
type = Stem;
},
{
place = "{631, 105}";
type = Stem;
}
);
layerId = "e11d8b17-ebce-493c-b2b7-02eab722b597";
paths = (
{
closed = 1;
nodes = (
"533 0 LINE",
"837 0 LINE",
"837 37 LINE",
"736 60 LINE",
"736 690 LINE",
"837 713 LINE",
"837 750 LINE",
"533 750 LINE",
"533 713 LINE",
"631 689 LINE",
"631 405 LINE",
"265 405 LINE",
"265 689 LINE",
"365 713 LINE",
"365 750 LINE",
"60 750 LINE",
"60 713 LINE",
"160 689 LINE",
"160 59 LINE",
"60 37 LINE",
"60 0 LINE",
"365 0 LINE",
"365 37 LINE",
"265 59 LINE",
"265 360 LINE",
"631 360 LINE",
"631 59 LINE",
"533 37 LINE"
);
}
);
width = 897;
}
);
unicode = 041D;
},
{
glyphname = uni0418;
layers = (
{
hints = (
{
horizontal = 1;
place = "{0, 21}";
target = up;
type = BottomGhost;
},
{
horizontal = 1;
place = "{750, -20}";
target = down;
type = TopGhost;
},
{
place = "{157, 105}";
type = Stem;
},
{
place = "{628, 105}";
type = Stem;
}
);
layerId = "e11d8b17-ebce-493c-b2b7-02eab722b597";
paths = (
{
closed = 1;
nodes = (
"533 0 LINE",
"837 0 LINE",
"837 37 LINE",
"733 60 LINE",
"733 689 LINE",
"837 713 LINE",
"837 750 LINE",
"533 750 LINE",
"533 713 LINE",
"599 697 LINE",
"262 79 LINE",
"262 690 LINE",
"364 713 LINE",
"364 750 LINE",
"60 750 LINE",
"60 713 LINE",
"157 690 LINE",
"157 60 LINE",
"60 37 LINE",
"60 0 LINE",
"364 0 LINE",
"364 37 LINE",
"291 53 LINE",
"628 672 LINE",
"628 59 LINE",
"533 37 LINE"
);
}
);
width = 897;
}
);
unicode = 0418;
},
{
glyphname = uni041E;
layers = (
{
hints = (
{
horizontal = 1;
place = "{-19, 40}";
type = Stem;
},
{
horizontal = 1;
place = "{728, 40}";
type = Stem;
},
{
place = "{50, 116}";
type = Stem;
},
{
place = "{648, 114}";
type = Stem;
}
);
layerId = "e11d8b17-ebce-493c-b2b7-02eab722b597";
paths = (
{
closed = 1;
nodes = (
"407 728 LINE",
"560 728 OFFCURVE",
"648 610 OFFCURVE",
"648 377 CURVE SMOOTH",
"648 138 OFFCURVE",
"555 21 OFFCURVE",
"403 21 CURVE SMOOTH",
"242 21 OFFCURVE",
"166 153 OFFCURVE",
"166 373 CURVE SMOOTH",
"166 602 OFFCURVE",
"248 728 OFFCURVE",
"407 728 CURVE SMOOTH"
);
},
{
closed = 1;
nodes = (
"406 768 LINE",
"202 768 OFFCURVE",
"50 620 OFFCURVE",
"50 373 CURVE SMOOTH",
"50 133 OFFCURVE",
"192 -19 OFFCURVE",
"405 -19 CURVE SMOOTH",
"619 -19 OFFCURVE",
"762 136 OFFCURVE",
"762 373 CURVE SMOOTH",
"762 610 OFFCURVE",
"617 768 OFFCURVE",
"406 768 CURVE SMOOTH"
);
}
);
width = 812;
}
);
unicode = 041E;
},
{
glyphname = uni041F;
layers = (
{
hints = (
{
horizontal = 1;
place = "{704, 46}";
type = Stem;
},
{
horizontal = 1;
place = "{0, 21}";
target = up;
type = BottomGhost;
},
{
place = "{159, 105}";
type = Stem;
},
{
place = "{630, 105}";
type = Stem;
}
);
layerId = "e11d8b17-ebce-493c-b2b7-02eab722b597";
paths = (
{
closed = 1;
nodes = (
"60 0 LINE",
"364 0 LINE",
"364 37 LINE",
"264 59 LINE",
"264 704 LINE",
"630 704 LINE",
"630 60 LINE",
"533 37 LINE",
"533 0 LINE",
"837 0 LINE",
"837 37 LINE",
"735 60 LINE",
"735 690 LINE",
"837 713 LINE",
"837 750 LINE",
"60 750 LINE",
"60 713 LINE",
"159 689 LINE",
"159 60 LINE",
"60 37 LINE"
);
}
);
width = 897;
}
);
unicode = 041F;
},
{
glyphname = uni0420;
layers = (
{
hints = (
{
horizontal = 1;
place = "{324, 40}";
type = Stem;
},
{
horizontal = 1;
place = "{710, 40}";
type = Stem;
},
{
horizontal = 1;
place = "{0, 21}";
target = up;
type = BottomGhost;
},
{
place = "{157, 105}";
type = Stem;
},
{
place = "{542, 116}";
type = Stem;
}
);
layerId = "e11d8b17-ebce-493c-b2b7-02eab722b597";
paths = (
{
closed = 1;
nodes = (
"60 713 LINE",
"157 690 LINE",
"157 60 LINE",
"60 37 LINE",
"60 0 LINE",
"364 0 LINE",
"364 37 LINE",
"262 60 LINE",
"262 324 LINE",
"353 324 LINE SMOOTH",
"524 324 OFFCURVE",
"658 360 OFFCURVE",
"658 541 CURVE SMOOTH",
"658 681 OFFCURVE",
"578 750 OFFCURVE",
"361 750 CURVE SMOOTH",
"60 750 LINE"
);
},
{
closed = 1;
nodes = (
"262 364 LINE",
"262 710 LINE",
"374 710 LINE SMOOTH",
"486 710 OFFCURVE",
"542 657 OFFCURVE",
"542 537 CURVE SMOOTH",
"542 417 OFFCURVE",
"486 364 OFFCURVE",
"374 364 CURVE"
);
}
);
width = 663;
}
);
unicode = 0420;
},
{
glyphname = uni0421;
layers = (
{
hints = (
{
horizontal = 1;
place = "{-21, 40}";
type = Stem;
},
{
horizontal = 1;
place = "{723, 37}";
type = Stem;
},
{
place = "{40, 116}";
type = Stem;
}
);
layerId = "e11d8b17-ebce-493c-b2b7-02eab722b597";
paths = (
{
closed = 1;
nodes = (
"658 241 LINE",
"611 241 LINE",
"561 75 LINE",
"518 35 OFFCURVE",
"461 19 OFFCURVE",
"408 19 CURVE SMOOTH",
"256 19 OFFCURVE",
"156 153 OFFCURVE",
"156 373 CURVE SMOOTH",
"156 606 OFFCURVE",
"267 723 OFFCURVE",
"412 723 CURVE SMOOTH",
"464 723 OFFCURVE",
"518 709 OFFCURVE",
"557 674 CURVE",
"606 515 LINE",
"658 515 LINE",
"658 677 LINE",
"598 734 OFFCURVE",
"509 760 OFFCURVE",
"418 760 CURVE SMOOTH",
"205 760 OFFCURVE",
"40 614 OFFCURVE",
"40 370 CURVE SMOOTH",
"40 127 OFFCURVE",
"202 -21 OFFCURVE",
"413 -21 CURVE SMOOTH",
"509 -21 OFFCURVE",
"597 8 OFFCURVE",
"658 72 CURVE"
);
}
);
width = 733;
}
);
unicode = 0421;
},
{
glyphname = uni0422;
layers = (
{
hints = (
{
horizontal = 1;
place = "{561, 189}";
type = Stem;
},
{
horizontal = 1;
place = "{707, 43}";
type = Stem;
},
{
horizontal = 1;
place = "{0, 21}";
target = up;
type = BottomGhost;
},
{
place = "{295, 105}";
type = Stem;
}
);
layerId = "e11d8b17-ebce-493c-b2b7-02eab722b597";
paths = (
{
closed = 1;
nodes = (
"198 0 LINE",
"502 0 LINE",
"502 37 LINE",
"400 59 LINE",
"400 707 LINE",
"586 707 LINE",
"625 561 LINE",
"677 561 LINE",
"677 750 LINE",
"21 750 LINE",
"21 561 LINE",
"73 561 LINE",
"112 707 LINE",
"295 707 LINE",
"295 60 LINE",
"198 37 LINE"
);
}
);
width = 698;
}
);
unicode = 0422;
},
{
glyphname = uni0423;
layers = (
{
hints = (
{
horizontal = 1;
place = "{0, 21}";
target = up;
type = BottomGhost;
},
{
horizontal = 1;
place = "{750, -20}";
target = down;
type = TopGhost;
}
);
layerId = "e11d8b17-ebce-493c-b2b7-02eab722b597";
paths = (
{
closed = 1;
nodes = (
"119 0 LINE",
"311 0 LINE",
"690 690 LINE",
"773 714 LINE",
"773 750 LINE",
"528 750 LINE",
"528 714 LINE",
"609 691 LINE",
"430 373 LINE",
"244 694 LINE",
"314 713 LINE",
"314 750 LINE",
"30 750 LINE",
"30 713 LINE",
"122 692 LINE",
"369 279 LINE",
"243 65 LINE",
"119 37 LINE"
);
}
);
width = 778;
}
);
unicode = 0423;
},
{
glyphname = uni0425;
layers = (
{
hints = (
{
horizontal = 1;
place = "{0, 21}";
target = up;
type = BottomGhost;
},
{
horizontal = 1;
place = "{750, -20}";
target = down;
type = TopGhost;
}
);
layerId = "e11d8b17-ebce-493c-b2b7-02eab722b597";
paths = (
{
closed = 1;
nodes = (
"54 713 LINE",
"152 688 LINE",
"363 358 LINE",
"145 59 LINE",
"55 36 LINE",
"55 0 LINE",
"300 0 LINE",
"300 36 LINE",
"220 55 LINE",
"399 319 LINE",
"562 58 LINE",
"480 37 LINE",
"480 0 LINE",
"784 0 LINE",
"784 37 LINE",
"688 61 LINE",
"468 407 LINE",
"670 687 LINE",
"758 714 LINE",
"758 750 LINE",
"513 750 LINE",
"513 714 LINE",
"601 688 LINE",
"435 445 LINE",
"280 692 LINE",
"358 713 LINE",
"358 750 LINE",
"54 750 LINE"
);
}
);
width = 831;
}
);
unicode = 0425;
},
{
glyphname = uni0426;
layers = (
{
hints = (
{
horizontal = 1;
place = "{0, 46}";
type = Stem;
},
{
horizontal = 1;
place = "{-151, 21}";
target = up;
type = BottomGhost;
},
{
horizontal = 1;
place = "{750, -20}";
target = down;
type = TopGhost;
},
{
place = "{159, 105}";
type = Stem;
},
{
place = "{630, 105}";
type = Stem;
}
);
layerId = "e11d8b17-ebce-493c-b2b7-02eab722b597";
paths = (
{
closed = 1;
nodes = (
"887 -151 LINE",
"887 46 LINE",
"735 46 LINE",
"735 690 LINE",
"837 713 LINE",
"837 750 LINE",
"533 750 LINE",
"533 713 LINE",
"630 690 LINE",
"630 46 LINE",
"264 46 LINE",
"264 691 LINE",
"364 713 LINE",
"364 750 LINE",
"60 750 LINE",
"60 713 LINE",
"159 690 LINE",
"159 61 LINE",
"60 37 LINE",
"60 0 LINE",
"783 0 LINE",
"849 -151 LINE"
);
}
);
width = 897;
}
);
unicode = 0426;
},
{
glyphname = question;
layers = (
{
hints = (
{
horizontal = 1;
place = "{-11, 130}";
type = Stem;
},
{
horizontal = 1;
place = "{726, 36}";
type = Stem;
},
{
place = "{167, 131}";
type = Stem;
},
{
place = "{208, 45}";
type = Stem;
},
{
place = "{385, 108}";
type = Stem;
}
);
layerId = "e11d8b17-ebce-493c-b2b7-02eab722b597";
paths = (
{
closed = 1;
nodes = (
"108 543 LINE",
"157 677 LINE",
"182 712 OFFCURVE",
"220 726 OFFCURVE",
"257 726 CURVE SMOOTH",
"321 726 OFFCURVE",
"385 680 OFFCURVE",
"385 596 CURVE SMOOTH",
"385 548 OFFCURVE",
"366 496 OFFCURVE",
"333 460 CURVE SMOOTH",
"299 424 LINE SMOOTH",
"227 347 OFFCURVE",
"208 309 OFFCURVE",
"208 221 CURVE SMOOTH",
"208 182 LINE",
"253 182 LINE",
"253 202 LINE SMOOTH",
"253 292 OFFCURVE",
"269 344 OFFCURVE",
"351 397 CURVE SMOOTH",
"382 417 LINE SMOOTH",
"458 465 OFFCURVE",
"493 531 OFFCURVE",
"493 592 CURVE SMOOTH",
"493 707 OFFCURVE",
"377 762 OFFCURVE",
"262 762 CURVE SMOOTH",
"178 762 OFFCURVE",
"97 732 OFFCURVE",
"57 675 CURVE",
"57 543 LINE"
);
},
{
closed = 1;
nodes = (
"233 119 LINE",
"192 119 OFFCURVE",
"167 90 OFFCURVE",
"167 55 CURVE SMOOTH",
"167 18 OFFCURVE",
"194 -11 OFFCURVE",
"233 -11 CURVE SMOOTH",
"272 -11 OFFCURVE",
"298 16 OFFCURVE",
"298 55 CURVE SMOOTH",
"298 94 OFFCURVE",
"269 119 OFFCURVE",
"233 119 CURVE SMOOTH"
);
}
);
width = 551;
}
);
unicode = 003F;
},
{
glyphname = uni0424;
layers = (
{
hints = (
{
horizontal = 1;
place = "{0, 161}";
type = Stem;
},
{
horizontal = 1;
place = "{112, 49}";
type = Stem;
},
{
horizontal = 1;
place = "{598, 50}";
type = Stem;
},
{
horizontal = 1;
place = "{598, 152}";
type = Stem;
},
{
place = "{22, 115}";
type = Stem;
},
{
place = "{367, 104}";
type = Stem;
},
{
place = "{700, 117}";
type = Stem;
}
);
layerId = "e11d8b17-ebce-493c-b2b7-02eab722b597";
paths = (
{
closed = 1;
nodes = (
"270 713 LINE",
"367 690 LINE",
"367 648 LINE",
"137 648 OFFCURVE",
"22 509 OFFCURVE",
"22 377 CURVE SMOOTH",
"22 244 OFFCURVE",
"137 112 OFFCURVE",
"367 112 CURVE",
"367 60 LINE",
"270 37 LINE",
"270 0 LINE",
"574 0 LINE",
"574 37 LINE",
"471 60 LINE",
"471 112 LINE",
"701 112 OFFCURVE",
"817 246 OFFCURVE",
"817 378 CURVE SMOOTH",
"817 510 OFFCURVE",
"702 648 OFFCURVE",
"471 648 CURVE",
"471 689 LINE",
"574 713 LINE",
"574 750 LINE",
"270 750 LINE"
);
},
{
closed = 1;
nodes = (
"367 161 LINE",
"214 161 OFFCURVE",
"137 270 OFFCURVE",
"137 378 CURVE SMOOTH",
"137 485 OFFCURVE",
"213 598 OFFCURVE",
"367 598 CURVE"
);
},
{
closed = 1;
nodes = (
"471 598 LINE",
"623 598 OFFCURVE",
"700 485 OFFCURVE",
"700 378 CURVE SMOOTH",
"700 271 OFFCURVE",
"623 161 OFFCURVE",
"471 161 CURVE"
);
}
);
width = 839;
}
);
unicode = 0424;
},
{
glyphname = uni0427;
layers = (
{
hints = (
{
horizontal = 1;
place = "{324, 38}";
type = Stem;
},
{
horizontal = 1;
place = "{0, 21}";
target = up;
type = BottomGhost;
},
{
horizontal = 1;
place = "{750, -20}";
target = down;
type = TopGhost;
},
{
place = "{109, 105}";
type = Stem;
},
{
place = "{564, 104}";
type = Stem;
}
);
layerId = "e11d8b17-ebce-493c-b2b7-02eab722b597";
paths = (
{
closed = 1;
nodes = (
"10 713 LINE",
"109 689 LINE",
"109 538 LINE SMOOTH",
"109 360 OFFCURVE",
"242 324 OFFCURVE",
"414 324 CURVE SMOOTH",
"564 324 LINE",
"564 60 LINE",
"467 37 LINE",
"467 0 LINE",
"771 0 LINE",
"771 37 LINE",
"668 60 LINE",
"668 689 LINE",
"771 713 LINE",
"771 750 LINE",
"467 750 LINE",
"467 713 LINE",
"564 690 LINE",
"564 362 LINE",
"393 362 LINE SMOOTH",
"280 362 OFFCURVE",
"214 421 OFFCURVE",
"214 540 CURVE SMOOTH",
"214 690 LINE",
"314 713 LINE",
"314 750 LINE",
"10 750 LINE"
);
}
);
width = 831;
}
);
unicode = 0427;
},
{
glyphname = uni0428;
layers = (
{
hints = (
{
horizontal = 1;
place = "{0, 46}";
type = Stem;
},
{
horizontal = 1;
place = "{750, -20}";
target = down;
type = TopGhost;
},
{
place = "{169, 105}";
type = Stem;
},
{
place = "{528, 104}";
type = Stem;
},
{
place = "{887, 104}";
type = Stem;
}
);
layerId = "e11d8b17-ebce-493c-b2b7-02eab722b597";
paths = (
{
closed = 1;
nodes = (
"437 713 LINE",
"528 690 LINE",
"528 46 LINE",
"274 46 LINE",
"274 691 LINE",
"366 713 LINE",
"366 750 LINE",
"74 750 LINE",
"74 713 LINE",
"169 690 LINE",
"169 61 LINE",
"70 37 LINE",
"70 0 LINE",
"1094 0 LINE",
"1094 37 LINE",
"991 59 LINE",
"991 690 LINE",
"1090 713 LINE",
"1090 750 LINE",
"798 750 LINE",
"798 713 LINE",
"887 690 LINE",
"887 46 LINE",
"632 46 LINE",
"632 690 LINE",
"727 713 LINE",
"727 750 LINE",
"437 750 LINE"
);
}
);
width = 1164;
}
);
unicode = 0428;
},
{
glyphname = uni0429;
layers = (
{
hints = (
{
horizontal = 1;
place = "{0, 46}";
type = Stem;
},
{
horizontal = 1;
place = "{-151, 21}";
target = up;
type = BottomGhost;
},
{
horizontal = 1;
place = "{750, -20}";
target = down;
type = TopGhost;
},
{
place = "{169, 105}";
type = Stem;
},
{
place = "{528, 104}";
type = Stem;
},
{
place = "{887, 104}";
type = Stem;
}
);
layerId = "e11d8b17-ebce-493c-b2b7-02eab722b597";
paths = (
{
closed = 1;
nodes = (
"1151 -151 LINE",
"1151 46 LINE",
"991 46 LINE",
"991 690 LINE",
"1090 713 LINE",
"1090 750 LINE",
"798 750 LINE",
"798 713 LINE",
"887 690 LINE",
"887 46 LINE",
"632 46 LINE",
"632 690 LINE",
"727 713 LINE",
"727 750 LINE",
"437 750 LINE",
"437 713 LINE",
"528 690 LINE",
"528 46 LINE",
"274 46 LINE",
"274 691 LINE",
"366 713 LINE",
"366 750 LINE",
"74 750 LINE",
"74 713 LINE",
"169 690 LINE",
"169 61 LINE",
"70 37 LINE",
"70 0 LINE",
"1047 0 LINE",
"1113 -151 LINE"
);
}
);
width = 1191;
}
);
unicode = 0429;
},
{
glyphname = uni042C;
layers = (
{
hints = (
{
horizontal = 1;
place = "{0, 40}";
type = Stem;
},
{
horizontal = 1;
place = "{365, 40}";
type = Stem;
},
{
horizontal = 1;
place = "{750, -20}";
target = down;
type = TopGhost;
},
{
place = "{157, 105}";
type = Stem;
},
{
place = "{539, 116}";
type = Stem;
}
);
layerId = "e11d8b17-ebce-493c-b2b7-02eab722b597";
paths = (
{
closed = 1;
nodes = (
"60 0 LINE",
"361 0 LINE SMOOTH",
"578 0 OFFCURVE",
"655 57 OFFCURVE",
"655 198 CURVE SMOOTH",
"655 379 OFFCURVE",
"525 405 OFFCURVE",
"353 405 CURVE SMOOTH",
"262 405 LINE",
"262 690 LINE",
"364 713 LINE",
"364 750 LINE",
"60 750 LINE",
"60 713 LINE",
"157 690 LINE",
"157 60 LINE",
"60 37 LINE"
);
},
{
closed = 1;
nodes = (
"374 365 LINE",
"485 365 OFFCURVE",
"539 321 OFFCURVE",
"539 202 CURVE SMOOTH",
"539 83 OFFCURVE",
"485 40 OFFCURVE",
"374 40 CURVE SMOOTH",
"262 40 LINE",
"262 365 LINE"
);
}
);
width = 665;
}
);
unicode = 042C;
},
{
glyphname = uni042B;
layers = (
{
hints = (
{
horizontal = 1;
place = "{0, 40}";
type = Stem;
},
{
horizontal = 1;
place = "{365, 40}";
type = Stem;
},
{
horizontal = 1;
place = "{750, -20}";
target = down;
type = TopGhost;
},
{
place = "{167, 105}";
type = Stem;
},
{
place = "{549, 116}";
type = Stem;
},
{
place = "{805, 105}";
type = Stem;
}
);
layerId = "e11d8b17-ebce-493c-b2b7-02eab722b597";
paths = (
{
closed = 1;
nodes = (
"70 0 LINE",
"371 0 LINE SMOOTH",
"588 0 OFFCURVE",
"665 57 OFFCURVE",
"665 198 CURVE SMOOTH",
"665 379 OFFCURVE",
"535 405 OFFCURVE",
"363 405 CURVE SMOOTH",
"272 405 LINE",
"272 690 LINE",
"374 713 LINE",
"374 750 LINE",
"70 750 LINE",
"70 713 LINE",
"167 690 LINE",
"167 60 LINE",
"70 37 LINE"
);
},
{
closed = 1;
nodes = (
"384 365 LINE",
"495 365 OFFCURVE",
"549 321 OFFCURVE",
"549 202 CURVE SMOOTH",
"549 83 OFFCURVE",
"495 40 OFFCURVE",
"384 40 CURVE SMOOTH",
"272 40 LINE",
"272 365 LINE"
);
},
{
closed = 1;
nodes = (
"706 713 LINE",
"805 689 LINE",
"805 60 LINE",
"706 37 LINE",
"706 0 LINE",
"1010 0 LINE",
"1010 37 LINE",
"910 59 LINE",
"910 690 LINE",
"1010 713 LINE",
"1010 750 LINE",
"706 750 LINE"
);
}
);
width = 1080;
}
);
unicode = 042B;
},
{
glyphname = uni042D;
layers = (
{
hints = (
{
horizontal = 1;
place = "{-21, 40}";
type = Stem;
},
{
horizontal = 1;
place = "{366, 44}";
type = Stem;
},
{
horizontal = 1;
place = "{723, 37}";
type = Stem;
},
{
horizontal = 1;
place = "{491, -20}";
target = down;
type = TopGhost;
},
{
place = "{572, 116}";
type = Stem;
}
);
layerId = "e11d8b17-ebce-493c-b2b7-02eab722b597";
paths = (
{
closed = 1;
nodes = (
"305 284 LINE",
"333 366 LINE",
"572 366 LINE",
"567 155 OFFCURVE",
"469 19 OFFCURVE",
"320 19 CURVE SMOOTH",
"267 19 OFFCURVE",
"210 35 OFFCURVE",
"167 75 CURVE",
"117 241 LINE",
"70 241 LINE",
"70 72 LINE",
"131 8 OFFCURVE",
"219 -21 OFFCURVE",
"315 -21 CURVE SMOOTH",
"525 -21 OFFCURVE",
"688 137 OFFCURVE",
"688 380 CURVE SMOOTH",
"688 624 OFFCURVE",
"521 760 OFFCURVE",
"310 760 CURVE SMOOTH",
"219 760 OFFCURVE",
"130 734 OFFCURVE",
"70 677 CURVE",
"70 515 LINE",
"122 515 LINE",
"171 674 LINE",
"210 709 OFFCURVE",
"264 723 OFFCURVE",
"316 723 CURVE SMOOTH",
"455 723 OFFCURVE",
"564 623 OFFCURVE",
"572 410 CURVE",
"332 410 LINE",
"305 491 LINE",
"268 491 LINE",
"268 284 LINE"
);
}
);
width = 733;
}
);
unicode = 042D;
},
{
glyphname = uni0404;
layers = (
{
hints = (
{
horizontal = 1;
place = "{-21, 40}";
type = Stem;
},
{
horizontal = 1;
place = "{366, 44}";
type = Stem;
},
{
horizontal = 1;
place = "{723, 37}";
type = Stem;
},
{
horizontal = 1;
place = "{491, -20}";
target = down;
type = TopGhost;
},
{
place = "{57, 116}";
type = Stem;
}
);
layerId = "e11d8b17-ebce-493c-b2b7-02eab722b597";
paths = (
{
closed = 1;
nodes = (
"477 284 LINE",
"477 491 LINE",
"440 491 LINE",
"413 410 LINE",
"173 410 LINE",
"181 623 OFFCURVE",
"290 723 OFFCURVE",
"429 723 CURVE SMOOTH",
"481 723 OFFCURVE",
"535 709 OFFCURVE",
"574 674 CURVE",
"623 515 LINE",
"675 515 LINE",
"675 677 LINE",
"615 734 OFFCURVE",
"526 760 OFFCURVE",
"435 760 CURVE SMOOTH",
"222 760 OFFCURVE",
"57 624 OFFCURVE",
"57 380 CURVE SMOOTH",
"57 137 OFFCURVE",
"219 -21 OFFCURVE",
"430 -21 CURVE SMOOTH",
"526 -21 OFFCURVE",
"614 8 OFFCURVE",
"675 72 CURVE",
"675 241 LINE",
"628 241 LINE",
"578 75 LINE",
"535 35 OFFCURVE",
"478 19 OFFCURVE",
"425 19 CURVE SMOOTH",
"276 19 OFFCURVE",
"178 155 OFFCURVE",
"173 366 CURVE",
"412 366 LINE",
"440 284 LINE"
);
}
);
width = 753;
}
);
unicode = 0404;
},
{
glyphname = uni042E;
layers = (
{
hints = (
{
horizontal = 1;
place = "{-19, 40}";
type = Stem;
},
{
horizontal = 1;
place = "{360, 45}";
type = Stem;
},
{
horizontal = 1;
place = "{728, 40}";
type = Stem;
},
{
horizontal = 1;
place = "{750, -20}";
target = down;
type = TopGhost;
},
{
horizontal = 1;
place = "{0, 21}";
target = up;
type = BottomGhost;
},
{
place = "{150, 105}";
type = Stem;
},
{
place = "{414, 116}";
type = Stem;
},
{
place = "{992, 114}";
type = Stem;
}
);
layerId = "e11d8b17-ebce-493c-b2b7-02eab722b597";
paths = (
{
closed = 1;
nodes = (
"760 768 LINE",
"566 768 OFFCURVE",
"426 633 OFFCURVE",
"415 405 CURVE",
"255 405 LINE",
"255 689 LINE",
"355 713 LINE",
"355 750 LINE",
"50 750 LINE",
"50 713 LINE",
"150 689 LINE",
"150 59 LINE",
"50 37 LINE",
"50 0 LINE",
"355 0 LINE",
"355 37 LINE",
"255 59 LINE",
"255 360 LINE",
"414 360 LINE",
"419 128 OFFCURVE",
"550 -19 OFFCURVE",
"759 -19 CURVE SMOOTH",
"973 -19 OFFCURVE",
"1106 136 OFFCURVE",
"1106 373 CURVE SMOOTH",
"1106 610 OFFCURVE",
"971 768 OFFCURVE",
"760 768 CURVE SMOOTH"
);
},
{
closed = 1;
nodes = (
"761 728 LINE",
"914 728 OFFCURVE",
"992 610 OFFCURVE",
"992 377 CURVE SMOOTH",
"992 137 OFFCURVE",
"910 21 OFFCURVE",
"757 21 CURVE SMOOTH",
"597 21 OFFCURVE",
"530 153 OFFCURVE",
"530 373 CURVE SMOOTH",
"530 602 OFFCURVE",
"602 728 OFFCURVE",
"761 728 CURVE SMOOTH"
);
}
);
width = 1146;
}
);
unicode = 042E;
},
{
glyphname = uni042F;
layers = (
{
hints = (
{
horizontal = 1;
place = "{339, 34}";
type = Stem;
},
{
horizontal = 1;
place = "{710, 40}";
type = Stem;
},
{
horizontal = 1;
place = "{0, 21}";
target = up;
type = BottomGhost;
},
{
place = "{134, 116}";
type = Stem;
},
{
place = "{530, 105}";
type = Stem;
}
);
layerId = "e11d8b17-ebce-493c-b2b7-02eab722b597";
paths = (
{
closed = 1;
nodes = (
"25 37 LINE",
"25 0 LINE",
"227 0 LINE",
"474 334 LINE",
"530 334 LINE",
"530 60 LINE",
"428 37 LINE",
"428 0 LINE",
"732 0 LINE",
"732 37 LINE",
"635 60 LINE",
"635 690 LINE",
"732 713 LINE",
"732 750 LINE",
"431 750 LINE SMOOTH",
"215 750 OFFCURVE",
"134 686 OFFCURVE",
"134 549 CURVE SMOOTH",
"134 398 OFFCURVE",
"234 339 OFFCURVE",
"359 339 CURVE",
"134 59 LINE"
);
},
{
closed = 1;
nodes = (
"530 373 LINE",
"418 373 LINE SMOOTH",
"306 373 OFFCURVE",
"250 422 OFFCURVE",
"250 542 CURVE SMOOTH",
"250 662 OFFCURVE",
"306 710 OFFCURVE",
"418 710 CURVE SMOOTH",
"530 710 LINE"
);
}
);
width = 792;
}
);
unicode = 042F;
},
{
glyphname = uni042A;
layers = (
{
hints = (
{
horizontal = 1;
place = "{0, 40}";
type = Stem;
},
{
horizontal = 1;
place = "{365, 40}";
type = Stem;
},
{
horizontal = 1;
place = "{707, 43}";
type = Stem;
},
{
place = "{284, 106}";
type = Stem;
},
{
place = "{666, 116}";
type = Stem;
}
);
layerId = "e11d8b17-ebce-493c-b2b7-02eab722b597";
paths = (
{
closed = 1;
nodes = (
"186 0 LINE",
"488 0 LINE SMOOTH",
"705 0 OFFCURVE",
"782 57 OFFCURVE",
"782 198 CURVE SMOOTH",
"782 379 OFFCURVE",
"652 405 OFFCURVE",
"480 405 CURVE SMOOTH",
"389 405 LINE",
"389 690 LINE",
"491 713 LINE",
"491 750 LINE",
"32 750 LINE",
"32 571 LINE",
"84 571 LINE",
"123 707 LINE",
"284 707 LINE",
"284 60 LINE",
"187 37 LINE"
);
},
{
closed = 1;
nodes = (
"390 40 LINE",
"390 365 LINE",
"501 365 LINE SMOOTH",
"612 365 OFFCURVE",
"666 321 OFFCURVE",
"666 202 CURVE SMOOTH",
"666 83 OFFCURVE",
"612 40 OFFCURVE",
"501 40 CURVE"
);
}
);
width = 794;
}
);
unicode = 042A;
},
{
glyphname = uni0409;
layers = (
{
hints = (
{
horizontal = 1;
place = "{0, 40}";
type = Stem;
},
{
horizontal = 1;
place = "{365, 40}";
type = Stem;
},
{
horizontal = 1;
place = "{750, -20}";
target = down;
type = TopGhost;
},
{
place = "{888, 116}";
type = Stem;
}
);
layerId = "e11d8b17-ebce-493c-b2b7-02eab722b597";
paths = (
{
closed = 1;
nodes = (
"365 625 LINE",
"585 59 LINE",
"489 37 LINE",
"489 0 LINE",
"710 0 LINE SMOOTH",
"927 0 OFFCURVE",
"1004 57 OFFCURVE",
"1004 198 CURVE SMOOTH",
"1004 379 OFFCURVE",
"874 405 OFFCURVE",
"702 405 CURVE SMOOTH",
"564 405 LINE",
"426 750 LINE",
"367 750 LINE",
"94 62 LINE",
"10 36 LINE",
"10 0 LINE",
"149 0 LINE"
);
},
{
closed = 1;
nodes = (
"580 365 LINE",
"723 365 LINE SMOOTH",
"834 365 OFFCURVE",
"888 321 OFFCURVE",
"888 202 CURVE SMOOTH",
"888 83 OFFCURVE",
"834 40 OFFCURVE",
"723 40 CURVE SMOOTH",
"709 40 LINE"
);
}
);
width = 1044;
}
);
unicode = 0409;
},
{
glyphname = Euro;
layers = (
{
hints = (
{
horizontal = 1;
place = "{-21, 40}";
type = Stem;
},
{
horizontal = 1;
place = "{275, 64}";
type = Stem;
},
{
horizontal = 1;
place = "{421, 64}";
type = Stem;
},
{
horizontal = 1;
place = "{723, 37}";
type = Stem;
}
);
layerId = "e11d8b17-ebce-493c-b2b7-02eab722b597";
paths = (
{
closed = 1;
nodes = (
"25 421 LINE",
"78 421 LINE",
"76 404 OFFCURVE",
"75 387 OFFCURVE",
"75 370 CURVE SMOOTH",
"75 359 OFFCURVE",
"75 350 OFFCURVE",
"76 339 CURVE",
"25 339 LINE",
"25 275 LINE",
"84 275 LINE",
"121 88 OFFCURVE",
"267 -21 OFFCURVE",
"448 -21 CURVE SMOOTH",
"544 -21 OFFCURVE",
"632 8 OFFCURVE",
"693 72 CURVE",
"693 241 LINE",
"646 241 LINE",
"596 75 LINE",
"553 35 OFFCURVE",
"496 19 OFFCURVE",
"443 19 CURVE SMOOTH",
"314 19 OFFCURVE",
"225 114 OFFCURVE",
"198 275 CURVE",
"500 275 LINE",
"500 339 LINE",
"191 339 LINE",
"191 373 LINE SMOOTH",
"191 389 OFFCURVE",
"192 405 OFFCURVE",
"193 421 CURVE",
"500 421 LINE",
"500 485 LINE",
"201 485 LINE",
"232 644 OFFCURVE",
"327 723 OFFCURVE",
"447 723 CURVE SMOOTH",
"499 723 OFFCURVE",
"550 712 OFFCURVE",
"589 677 CURVE",
"638 518 LINE",
"690 518 LINE",
"690 680 LINE",
"630 737 OFFCURVE",
"544 760 OFFCURVE",
"453 760 CURVE SMOOTH",
"278 760 OFFCURVE",
"131 658 OFFCURVE",
"88 485 CURVE",
"25 485 LINE"
);
}
);
width = 753;
}
);
unicode = 20AC;
},
{
glyphname = uni040A;
layers = (
{
hints = (
{
horizontal = 1;
place = "{0, 40}";
type = Stem;
},
{
horizontal = 1;
place = "{360, 45}";
type = Stem;
},
{
horizontal = 1;
place = "{750, -20}";
target = down;
type = TopGhost;
},
{
place = "{160, 105}";
type = Stem;
},
{
place = "{590, 105}";
type = Stem;
},
{
place = "{890, 116}";
type = Stem;
}
);
layerId = "e11d8b17-ebce-493c-b2b7-02eab722b597";
paths = (
{
closed = 1;
nodes = (
"492 0 LINE",
"712 0 LINE SMOOTH",
"929 0 OFFCURVE",
"1006 57 OFFCURVE",
"1006 198 CURVE SMOOTH",
"1006 379 OFFCURVE",
"876 405 OFFCURVE",
"704 405 CURVE SMOOTH",
"695 405 LINE",
"695 690 LINE",
"797 713 LINE",
"797 750 LINE",
"493 750 LINE",
"493 713 LINE",
"590 689 LINE",
"590 405 LINE",
"265 405 LINE",
"265 689 LINE",
"365 713 LINE",
"365 750 LINE",
"60 750 LINE",
"60 713 LINE",
"160 689 LINE",
"160 59 LINE",
"60 37 LINE",
"60 0 LINE",
"365 0 LINE",
"365 37 LINE",
"265 59 LINE",
"265 360 LINE",
"590 360 LINE",
"590 60 LINE",
"492 37 LINE"
);
},
{
closed = 1;
nodes = (
"725 365 LINE",
"836 365 OFFCURVE",
"890 321 OFFCURVE",
"890 202 CURVE SMOOTH",
"890 83 OFFCURVE",
"836 40 OFFCURVE",
"725 40 CURVE SMOOTH",
"695 40 LINE",
"695 365 LINE"
);
}
);
width = 1046;
}
);
unicode = 040A;
},
{
glyphname = uni040B;
layers = (
{
hints = (
{
horizontal = 1;
place = "{367, 38}";
type = Stem;
},
{
horizontal = 1;
place = "{579, 171}";
type = Stem;
},
{
horizontal = 1;
place = "{707, 43}";
type = Stem;
},
{
horizontal = 1;
place = "{0, 21}";
target = up;
type = BottomGhost;
},
{
place = "{263, 105}";
type = Stem;
},
{
place = "{651, 105}";
type = Stem;
}
);
layerId = "e11d8b17-ebce-493c-b2b7-02eab722b597";
paths = (
{
closed = 1;
nodes = (
"160 0 LINE",
"470 0 LINE",
"470 37 LINE",
"368 60 LINE",
"368 367 LINE",
"472 367 LINE SMOOTH",
"585 367 OFFCURVE",
"651 307 OFFCURVE",
"651 188 CURVE SMOOTH",
"651 60 LINE",
"551 37 LINE",
"551 0 LINE",
"855 0 LINE",
"855 37 LINE",
"756 61 LINE",
"756 190 LINE SMOOTH",
"756 369 OFFCURVE",
"623 405 OFFCURVE",
"451 405 CURVE SMOOTH",
"368 405 LINE",
"368 707 LINE",
"538 707 LINE",
"577 579 LINE",
"629 579 LINE",
"629 750 LINE",
"10 750 LINE",
"10 579 LINE",
"62 579 LINE",
"101 707 LINE",
"263 707 LINE",
"263 61 LINE",
"160 37 LINE"
);
}
);
width = 895;
}
);
unicode = 040B;
},
{
glyphname = uni0402;
layers = (
{
hints = (
{
horizontal = 1;
place = "{366, 38}";
type = Stem;
},
{
horizontal = 1;
place = "{561, 189}";
type = Stem;
},
{
horizontal = 1;
place = "{707, 43}";
type = Stem;
},
{
horizontal = 1;
place = "{0, 21}";
target = up;
type = BottomGhost;
},
{
horizontal = 1;
place = "{-305, 21}";
target = up;
type = BottomGhost;
},
{
place = "{251, 105}";
type = Stem;
},
{
place = "{645, 104}";
type = Stem;
}
);
layerId = "e11d8b17-ebce-493c-b2b7-02eab722b597";
paths = (
{
closed = 1;
nodes = (
"154 0 LINE",
"458 0 LINE",
"458 37 LINE",
"356 59 LINE",
"356 366 LINE",
"466 366 LINE SMOOTH",
"577 366 OFFCURVE",
"645 308 OFFCURVE",
"645 191 CURVE SMOOTH",
"645 38 LINE SMOOTH",
"645 -122 OFFCURVE",
"618 -189 OFFCURVE",
"565 -288 CURVE",
"593 -305 LINE",
"741 -121 OFFCURVE",
"745 -100 OFFCURVE",
"749 164 CURVE SMOOTH",
"749 190 LINE SMOOTH",
"749 368 OFFCURVE",
"615 404 OFFCURVE",
"444 404 CURVE SMOOTH",
"356 404 LINE",
"356 707 LINE",
"521 707 LINE",
"560 561 LINE",
"612 561 LINE",
"612 750 LINE",
"10 750 LINE",
"10 561 LINE",
"62 561 LINE",
"101 707 LINE",
"251 707 LINE",
"251 60 LINE",
"154 37 LINE"
);
}
);
width = 809;
}
);
unicode = 0402;
},
{
glyphname = uni0452;
layers = (
{
hints = (
{
horizontal = 1;
place = "{448, 45}";
type = Stem;
},
{
horizontal = 1;
place = "{571, 38}";
type = Stem;
},
{
horizontal = 1;
place = "{571, 179}";
type = Stem;
},
{
horizontal = 1;
place = "{0, 21}";
target = up;
type = BottomGhost;
},
{
horizontal = 1;
place = "{-270, 21}";
target = up;
type = BottomGhost;
},
{
place = "{40, 168}";
type = Stem;
},
{
place = "{113, 95}";
type = Stem;
},
{
place = "{447, 95}";
type = Stem;
}
);
layerId = "e11d8b17-ebce-493c-b2b7-02eab722b597";
paths = (
{
closed = 1;
nodes = (
"40 571 LINE",
"113 571 LINE",
"113 59 LINE",
"40 37 LINE",
"40 0 LINE",
"277 0 LINE",
"277 37 LINE",
"208 57 LINE",
"208 182 LINE SMOOTH",
"208 365 OFFCURVE",
"266 448 OFFCURVE",
"357 448 CURVE SMOOTH",
"416 448 OFFCURVE",
"447 411 OFFCURVE",
"447 315 CURVE SMOOTH",
"447 37 LINE SMOOTH",
"447 -107 OFFCURVE",
"446 -155 OFFCURVE",
"374 -241 CURVE SMOOTH",
"368 -248 LINE",
"397 -270 LINE",
"519 -136 OFFCURVE",
"542 -105 OFFCURVE",
"542 90 CURVE SMOOTH",
"542 317 LINE SMOOTH",
"542 436 OFFCURVE",
"480 493 OFFCURVE",
"379 493 CURVE SMOOTH",
"294 493 OFFCURVE",
"231 452 OFFCURVE",
"208 363 CURVE",
"208 571 LINE",
"354 571 LINE",
"354 609 LINE",
"208 609 LINE",
"208 750 LINE",
"40 750 LINE",
"40 714 LINE",
"113 702 LINE",
"113 609 LINE",
"40 609 LINE"
);
}
);
width = 582;
}
);
unicode = 0452;
},
{
glyphname = uni045B;
layers = (
{
hints = (
{
horizontal = 1;
place = "{449, 44}";
type = Stem;
},
{
horizontal = 1;
place = "{570, 40}";
type = Stem;
},
{
horizontal = 1;
place = "{570, 180}";
type = Stem;
},
{
horizontal = 1;
place = "{0, 21}";
target = up;
type = BottomGhost;
},
{
place = "{10, 168}";
type = Stem;
},
{
place = "{83, 95}";
type = Stem;
},
{
place = "{417, 95}";
type = Stem;
}
);
layerId = "e11d8b17-ebce-493c-b2b7-02eab722b597";
paths = (
{
closed = 1;
nodes = (
"10 570 LINE",
"83 570 LINE",
"83 59 LINE",
"10 37 LINE",
"10 0 LINE",
"247 0 LINE",
"247 37 LINE",
"178 57 LINE",
"178 182 LINE SMOOTH",
"178 365 OFFCURVE",
"236 449 OFFCURVE",
"327 449 CURVE SMOOTH",
"386 449 OFFCURVE",
"417 411 OFFCURVE",
"417 315 CURVE SMOOTH",
"417 58 LINE",
"348 37 LINE",
"348 0 LINE",
"585 0 LINE",
"585 37 LINE",
"512 58 LINE",
"512 317 LINE SMOOTH",
"512 436 OFFCURVE",
"450 493 OFFCURVE",
"349 493 CURVE SMOOTH",
"264 493 OFFCURVE",
"201 452 OFFCURVE",
"178 363 CURVE",
"178 570 LINE",
"324 570 LINE",
"324 610 LINE",
"178 610 LINE",
"178 750 LINE",
"16 750 LINE",
"16 714 LINE",
"83 702 LINE",
"83 610 LINE",
"10 610 LINE"
);
}
);
width = 595;
}
);
unicode = 045B;
},
{
glyphname = uni0431;
layers = (
{
hints = (
{
horizontal = 1;
place = "{-9, 41}";
type = Stem;
},
{
horizontal = 1;
place = "{451, 42}";
type = Stem;
},
{
horizontal = 1;
place = "{602, 38}";
type = Stem;
},
{
horizontal = 1;
place = "{767, -20}";
target = down;
type = TopGhost;
},
{
place = "{10, 107}";
type = Stem;
},
{
place = "{403, 100}";
type = Stem;
}
);
layerId = "e11d8b17-ebce-493c-b2b7-02eab722b597";
paths = (
{
closed = 1;
nodes = (
"266 493 LINE",
"207 493 OFFCURVE",
"161 475 OFFCURVE",
"118 448 CURVE",
"118 458 LINE SMOOTH",
"118 547 OFFCURVE",
"153 602 OFFCURVE",
"278 602 CURVE SMOOTH",
"350 602 OFFCURVE",
"398 611 OFFCURVE",
"437 638 CURVE",
"437 767 LINE",
"396 767 LINE",
"352 655 LINE",
"333 644 OFFCURVE",
"310 640 OFFCURVE",
"279 640 CURVE SMOOTH",
"24 640 OFFCURVE",
"10 416 OFFCURVE",
"10 294 CURVE SMOOTH",
"10 138 OFFCURVE",
"71 -9 OFFCURVE",
"259 -9 CURVE SMOOTH",
"410 -9 OFFCURVE",
"503 91 OFFCURVE",
"503 248 CURVE SMOOTH",
"503 410 OFFCURVE",
"401 493 OFFCURVE",
"266 493 CURVE SMOOTH"
);
},
{
closed = 1;
nodes = (
"258 32 LINE",
"163 32 OFFCURVE",
"117 97 OFFCURVE",
"117 245 CURVE SMOOTH",
"117 394 OFFCURVE",
"163 451 OFFCURVE",
"258 451 CURVE SMOOTH",
"365 451 OFFCURVE",
"403 386 OFFCURVE",
"403 247 CURVE SMOOTH",
"403 98 OFFCURVE",
"354 32 OFFCURVE",
"258 32 CURVE SMOOTH"
);
}
);
width = 528;
}
);
unicode = 0431;
},
{
glyphname = uni0432;
layers = (
{
hints = (
{
horizontal = 1;
place = "{0, 35}";
type = Stem;
},
{
horizontal = 1;
place = "{234, 42}";
type = Stem;
},
{
horizontal = 1;
place = "{450, 35}";
type = Stem;
},
{
place = "{37, 171}";
type = Stem;
},
{
place = "{114, 94}";
type = Stem;
},
{
place = "{429, 78}";
type = Stem;
},
{
place = "{442, 95}";
type = Stem;
}
);
layerId = "e11d8b17-ebce-493c-b2b7-02eab722b597";
paths = (
{
closed = 1;
nodes = (
"37 0 LINE",
"410 0 LINE SMOOTH",
"490 0 OFFCURVE",
"537 67 OFFCURVE",
"537 131 CURVE SMOOTH",
"537 178 OFFCURVE",
"514 223 OFFCURVE",
"459 243 CURVE",
"429 256 LINE",
"448 263 LINE",
"489 284 OFFCURVE",
"507 321 OFFCURVE",
"507 359 CURVE SMOOTH",
"507 418 OFFCURVE",
"456 485 OFFCURVE",
"380 485 CURVE SMOOTH",
"37 485 LINE",
"37 448 LINE",
"114 426 LINE",
"114 58 LINE",
"37 37 LINE"
);
},
{
closed = 1;
nodes = (
"351 234 LINE",
"411 234 OFFCURVE",
"442 182 OFFCURVE",
"442 132 CURVE SMOOTH",
"442 84 OFFCURVE",
"412 35 OFFCURVE",
"351 35 CURVE SMOOTH",
"208 35 LINE",
"208 234 LINE"
);
},
{
closed = 1;
nodes = (
"208 450 LINE",
"337 450 LINE SMOOTH",
"394 450 OFFCURVE",
"429 400 OFFCURVE",
"429 357 CURVE SMOOTH",
"429 318 OFFCURVE",
"407 281 OFFCURVE",
"358 276 CURVE",
"208 276 LINE"
);
}
);
width = 573;
}
);
unicode = 0432;
},
{
glyphname = uni0433;
layers = (
{
hints = (
{
horizontal = 1;
place = "{448, 36}";
type = Stem;
},
{
horizontal = 1;
place = "{0, 21}";
target = up;
type = BottomGhost;
},
{
place = "{111, 95}";
type = Stem;
}
);
layerId = "e11d8b17-ebce-493c-b2b7-02eab722b597";
paths = (
{
closed = 1;
nodes = (
"36 448 LINE",
"111 427 LINE",
"111 59 LINE",
"33 37 LINE",
"33 0 LINE",
"287 0 LINE",
"287 37 LINE",
"206 59 LINE",
"206 448 LINE",
"382 448 LINE",
"408 352 LINE",
"444 352 LINE",
"444 484 LINE",
"36 484 LINE"
);
}
);
width = 449;
}
);
unicode = 0433;
},
{
glyphname = uni0437;
layers = (
{
hints = (
{
horizontal = 1;
place = "{-11, 37}";
type = Stem;
},
{
horizontal = 1;
place = "{228, 38}";
type = Stem;
},
{
horizontal = 1;
place = "{457, 35}";
type = Stem;
},
{
place = "{298, 88}";
type = Stem;
},
{
place = "{313, 73}";
type = Stem;
},
{
place = "{313, 94}";
type = Stem;
}
);
layerId = "e11d8b17-ebce-493c-b2b7-02eab722b597";
paths = (
{
closed = 1;
nodes = (
"289 249 LINE",
"346 270 OFFCURVE",
"386 316 OFFCURVE",
"386 368 CURVE SMOOTH",
"386 453 OFFCURVE",
"291 492 OFFCURVE",
"199 492 CURVE SMOOTH",
"140 492 OFFCURVE",
"84 475 OFFCURVE",
"53 440 CURVE",
"53 329 LINE",
"91 329 LINE",
"126 430 LINE",
"150 451 OFFCURVE",
"178 457 OFFCURVE",
"205 457 CURVE SMOOTH",
"254 457 OFFCURVE",
"298 432 OFFCURVE",
"298 368 CURVE SMOOTH",
"298 309 OFFCURVE",
"266 266 OFFCURVE",
"214 266 CURVE SMOOTH",
"146 266 LINE",
"146 228 LINE",
"214 228 LINE SMOOTH",
"275 228 OFFCURVE",
"313 193 OFFCURVE",
"313 129 CURVE SMOOTH",
"313 57 OFFCURVE",
"254 26 OFFCURVE",
"201 26 CURVE SMOOTH",
"172 26 OFFCURVE",
"133 33 OFFCURVE",
"106 57 CURVE",
"72 156 LINE",
"35 156 LINE",
"35 40 LINE",
"70 5 OFFCURVE",
"136 -11 OFFCURVE",
"194 -11 CURVE SMOOTH",
"294 -11 OFFCURVE",
"407 34 OFFCURVE",
"407 129 CURVE SMOOTH",
"407 189 OFFCURVE",
"358 230 OFFCURVE",
"289 249 CURVE"
);
}
);
width = 430;
}
);
unicode = 0437;
},
{
glyphname = uni043A;
layers = (
{
hints = (
{
horizontal = 1;
place = "{0, 21}";
target = up;
type = BottomGhost;
},
{
horizontal = 1;
place = "{484, -20}";
target = down;
type = TopGhost;
},
{
horizontal = 1;
place = "{485, -20}";
target = down;
type = TopGhost;
},
{
place = "{40, 180}";
type = Stem;
},
{
place = "{123, 97}";
type = Stem;
}
);
layerId = "e11d8b17-ebce-493c-b2b7-02eab722b597";
paths = (
{
closed = 1;
nodes = (
"40 449 LINE",
"123 435 LINE",
"123 60 LINE",
"40 37 LINE",
"40 0 LINE",
"294 0 LINE",
"294 37 LINE",
"218 61 LINE",
"218 261 LINE",
"428 0 LINE",
"591 0 LINE",
"591 37 LINE",
"493 61 LINE",
"291 288 LINE",
"451 426 LINE",
"535 447 LINE",
"535 484 LINE",
"439 484 LINE",
"220 277 LINE",
"220 485 LINE",
"40 485 LINE"
);
}
);
width = 619;
}
);
unicode = 043A;
},
{
glyphname = uni0436;
layers = (
{
hints = (
{
horizontal = 1;
place = "{485, -20}";
target = down;
type = TopGhost;
},
{
horizontal = 1;
place = "{484, -20}";
target = down;
type = TopGhost;
},
{
horizontal = 1;
place = "{0, 21}";
target = up;
type = BottomGhost;
},
{
place = "{399, 95}";
type = Stem;
}
);
layerId = "e11d8b17-ebce-493c-b2b7-02eab722b597";
paths = (
{
closed = 1;
nodes = (
"556 485 LINE",
"332 485 LINE",
"332 449 LINE",
"399 435 LINE",
"399 279 LINE",
"157 484 LINE",
"67 484 LINE",
"67 447 LINE",
"151 426 LINE",
"331 291 LINE",
"130 61 LINE",
"32 37 LINE",
"32 0 LINE",
"190 0 LINE",
"399 261 LINE",
"399 61 LINE",
"323 37 LINE",
"323 0 LINE",
"570 0 LINE",
"570 37 LINE",
"494 61 LINE",
"494 261 LINE",
"704 0 LINE",
"862 0 LINE",
"862 37 LINE",
"764 61 LINE",
"560 288 LINE",
"740 426 LINE",
"824 447 LINE",
"824 484 LINE",
"736 484 LINE",
"494 279 LINE",
"494 435 LINE",
"556 449 LINE"
);
}
);
width = 895;
}
);
unicode = 0436;
},
{
glyphname = uni043B;
layers = (
{
hints = (
{
horizontal = 1;
place = "{1, 21}";
target = up;
type = BottomGhost;
},
{
horizontal = 1;
place = "{486, -20}";
target = down;
type = TopGhost;
},
{
horizontal = 1;
place = "{0, 21}";
target = up;
type = BottomGhost;
}
);
layerId = "e11d8b17-ebce-493c-b2b7-02eab722b597";
paths = (
{
closed = 1;
nodes = (
"264 402 LINE",
"388 55 LINE",
"319 38 LINE",
"319 1 LINE",
"573 1 LINE",
"573 38 LINE",
"495 55 LINE",
"318 486 LINE",
"259 486 LINE",
"80 55 LINE",
"5 38 LINE",
"5 0 LINE",
"128 0 LINE"
);
}
);
width = 578;
}
);
unicode = 043B;
},
{
glyphname = uni043C;
layers = (
{
hints = (
{
horizontal = 1;
place = "{0, 21}";
target = up;
type = BottomGhost;
},
{
horizontal = 1;
place = "{484, -20}";
target = down;
type = TopGhost;
},
{
horizontal = 1;
place = "{485, -20}";
target = down;
type = TopGhost;
},
{
place = "{120, 36}";
type = Stem;
},
{
place = "{562, 95}";
type = Stem;
}
);
layerId = "e11d8b17-ebce-493c-b2b7-02eab722b597";
paths = (
{
closed = 1;
nodes = (
"41 448 LINE",
"120 423 LINE",
"120 59 LINE",
"43 37 LINE",
"43 0 LINE",
"229 0 LINE",
"229 37 LINE",
"156 59 LINE",
"156 437 LINE",
"332 0 LINE",
"388 0 LINE",
"562 437 LINE",
"562 60 LINE",
"482 37 LINE",
"482 0 LINE",
"736 0 LINE",
"736 37 LINE",
"657 60 LINE",
"657 427 LINE",
"732 448 LINE",
"732 484 LINE",
"541 484 LINE",
"388 109 LINE",
"237 485 LINE",
"41 485 LINE"
);
}
);
width = 777;
}
);
unicode = 043C;
},
{
glyphname = uni0430;
layers = (
{
hints = (
{
horizontal = 1;
place = "{-9, 42}";
type = Stem;
},
{
horizontal = 1;
place = "{255, 35}";
type = Stem;
},
{
horizontal = 1;
place = "{455, 38}";
type = Stem;
},
{
horizontal = 1;
place = "{0, 21}";
target = up;
type = BottomGhost;
},
{
place = "{32, 96}";
type = Stem;
},
{
place = "{356, 94}";
type = Stem;
}
);
layerId = "e11d8b17-ebce-493c-b2b7-02eab722b597";
paths = (
{
closed = 1;
nodes = (
"450 60 LINE",
"450 309 LINE SMOOTH",
"450 453 OFFCURVE",
"369 493 OFFCURVE",
"237 493 CURVE SMOOTH",
"165 493 OFFCURVE",
"103 470 OFFCURVE",
"72 443 CURVE",
"72 330 LINE",
"109 330 LINE",
"142 429 LINE",
"166 444 OFFCURVE",
"206 455 OFFCURVE",
"238 455 CURVE SMOOTH",
"311 455 OFFCURVE",
"356 433 OFFCURVE",
"356 333 CURVE SMOOTH",
"356 290 LINE",
"135 286 OFFCURVE",
"32 242 OFFCURVE",
"32 122 CURVE SMOOTH",
"32 41 OFFCURVE",
"85 -9 OFFCURVE",
"193 -9 CURVE SMOOTH",
"272 -9 OFFCURVE",
"327 28 OFFCURVE",
"358 101 CURVE",
"358 0 LINE",
"534 0 LINE",
"534 37 LINE"
);
},
{
closed = 1;
nodes = (
"219 33 LINE",
"156 33 OFFCURVE",
"128 61 OFFCURVE",
"128 132 CURVE SMOOTH",
"128 216 OFFCURVE",
"170 255 OFFCURVE",
"356 255 CURVE",
"356 80 OFFCURVE",
"296 33 OFFCURVE",
"219 33 CURVE SMOOTH"
);
}
);
width = 545;
}
);
unicode = 0430;
},
{
glyphname = uni0441;
layers = (
{
hints = (
{
horizontal = 1;
place = "{-10, 38}";
type = Stem;
},
{
horizontal = 1;
place = "{458, 37}";
type = Stem;
},
{
place = "{25, 103}";
type = Stem;
}
);
layerId = "e11d8b17-ebce-493c-b2b7-02eab722b597";
paths = (
{
closed = 1;
nodes = (
"435 156 LINE",
"398 156 LINE",
"363 42 LINE",
"344 33 OFFCURVE",
"309 28 OFFCURVE",
"282 28 CURVE SMOOTH",
"187 28 OFFCURVE",
"128 91 OFFCURVE",
"128 239 CURVE SMOOTH",
"128 384 OFFCURVE",
"183 458 OFFCURVE",
"275 458 CURVE SMOOTH",
"303 458 OFFCURVE",
"343 452 OFFCURVE",
"363 437 CURVE",
"396 328 LINE",
"433 328 LINE",
"433 452 LINE",
"403 479 OFFCURVE",
"338 495 OFFCURVE",
"279 495 CURVE SMOOTH",
"136 495 OFFCURVE",
"25 402 OFFCURVE",
"25 239 CURVE SMOOTH",
"25 79 OFFCURVE",
"133 -10 OFFCURVE",
"273 -10 CURVE SMOOTH",
"333 -10 OFFCURVE",
"400 6 OFFCURVE",
"435 38 CURVE"
);
}
);
width = 478;
}
);
unicode = 0441;
},
{
glyphname = uni0440;
layers = (
{
hints = (
{
horizontal = 1;
place = "{-11, 44}";
type = Stem;
},
{
horizontal = 1;
place = "{449, 44}";
type = Stem;
},
{
horizontal = 1;
place = "{-315, 21}";
target = up;
type = BottomGhost;
},
{
place = "{30, 170}";
type = Stem;
},
{
place = "{105, 95}";
type = Stem;
},
{
place = "{473, 102}";
type = Stem;
}
);
layerId = "e11d8b17-ebce-493c-b2b7-02eab722b597";
paths = (
{
closed = 1;
nodes = (
"32 450 LINE",
"105 437 LINE",
"105 -256 LINE",
"30 -278 LINE",
"30 -315 LINE",
"273 -315 LINE",
"273 -278 LINE",
"200 -256 LINE",
"200 108 LINE",
"230 29 OFFCURVE",
"285 -11 OFFCURVE",
"366 -11 CURVE SMOOTH",
"488 -11 OFFCURVE",
"575 78 OFFCURVE",
"575 241 CURVE SMOOTH",
"575 404 OFFCURVE",
"488 493 OFFCURVE",
"365 493 CURVE SMOOTH",
"285 493 OFFCURVE",
"227 457 OFFCURVE",
"194 362 CURVE",
"194 485 LINE",
"32 485 LINE"
);
},
{
closed = 1;
nodes = (
"351 449 LINE",
"431 449 OFFCURVE",
"473 385 OFFCURVE",
"473 241 CURVE SMOOTH",
"473 105 OFFCURVE",
"435 33 OFFCURVE",
"351 33 CURVE SMOOTH",
"259 33 OFFCURVE",
"201 123 OFFCURVE",
"201 244 CURVE SMOOTH",
"201 374 OFFCURVE",
"267 449 OFFCURVE",
"351 449 CURVE SMOOTH"
);
}
);
width = 600;
}
);
unicode = 0440;
},
{
glyphname = uni043E;
layers = (
{
hints = (
{
horizontal = 1;
place = "{-9, 41}";
type = Stem;
},
{
horizontal = 1;
place = "{452, 42}";
type = Stem;
},
{
place = "{28, 101}";
type = Stem;
},
{
place = "{415, 100}";
type = Stem;
}
);
layerId = "e11d8b17-ebce-493c-b2b7-02eab722b597";
paths = (
{
closed = 1;
nodes = (
"273 452 LINE",
"377 452 OFFCURVE",
"415 377 OFFCURVE",
"415 242 CURVE SMOOTH",
"415 91 OFFCURVE",
"367 32 OFFCURVE",
"271 32 CURVE SMOOTH",
"178 32 OFFCURVE",
"129 89 OFFCURVE",
"129 239 CURVE SMOOTH",
"129 390 OFFCURVE",
"177 452 OFFCURVE",
"273 452 CURVE SMOOTH"
);
},
{
closed = 1;
nodes = (
"273 494 LINE",
"126 494 OFFCURVE",
"28 398 OFFCURVE",
"28 239 CURVE SMOOTH",
"28 80 OFFCURVE",
"125 -9 OFFCURVE",
"272 -9 CURVE SMOOTH",
"416 -9 OFFCURVE",
"515 77 OFFCURVE",
"515 240 CURVE SMOOTH",
"515 403 OFFCURVE",
"417 494 OFFCURVE",
"273 494 CURVE SMOOTH"
);
}
);
width = 543;
}
);
unicode = 043E;
},
{
glyphname = uni0445;
layers = (
{
hints = (
{
horizontal = 1;
place = "{0, 21}";
target = up;
type = BottomGhost;
},
{
horizontal = 1;
place = "{485, -20}";
target = down;
type = TopGhost;
}
);
layerId = "e11d8b17-ebce-493c-b2b7-02eab722b597";
paths = (
{
closed = 1;
nodes = (
"35 448 LINE",
"114 435 LINE",
"263 233 LINE",
"113 54 LINE",
"36 38 LINE",
"36 0 LINE",
"241 0 LINE",
"241 38 LINE",
"176 52 LINE",
"292 203 LINE",
"395 54 LINE",
"331 38 LINE",
"331 0 LINE",
"585 0 LINE",
"585 38 LINE",
"508 54 LINE",
"352 264 LINE",
"502 435 LINE",
"574 448 LINE",
"574 485 LINE",
"376 485 LINE",
"376 448 LINE",
"441 437 LINE",
"326 294 LINE",
"228 436 LINE",
"289 448 LINE",
"289 485 LINE",
"35 485 LINE"
);
}
);
width = 619;
}
);
unicode = 0445;
},
{
glyphname = uni0443;
layers = (
{
hints = (
{
horizontal = 1;
place = "{-240, 56}";
type = Stem;
},
{
horizontal = 1;
place = "{485, -20}";
target = down;
type = TopGhost;
},
{
horizontal = 1;
place = "{486, -20}";
target = down;
type = TopGhost;
}
);
layerId = "e11d8b17-ebce-493c-b2b7-02eab722b597";
paths = (
{
closed = 1;
nodes = (
"387 448 LINE",
"464 435 LINE",
"343 110 LINE",
"206 434 LINE",
"274 448 LINE",
"274 485 LINE",
"20 485 LINE",
"20 448 LINE",
"103 430 LINE",
"294 -2 LINE",
"251 -109 OFFCURVE",
"234 -179 OFFCURVE",
"165 -184 CURVE",
"140 -94 LINE",
"103 -94 LINE",
"103 -240 LINE",
"147 -240 LINE SMOOTH",
"237 -240 OFFCURVE",
"257 -201 OFFCURVE",
"310 -76 CURVE",
"518 436 LINE",
"597 448 LINE",
"597 486 LINE",
"387 486 LINE"
);
}
);
width = 607;
}
);
unicode = 0443;
},
{
glyphname = uni0435;
layers = (
{
hints = (
{
horizontal = 1;
place = "{-10, 38}";
type = Stem;
},
{
horizontal = 1;
place = "{267, 33}";
type = Stem;
},
{
horizontal = 1;
place = "{455, 39}";
type = Stem;
},
{
place = "{27, 100}";
type = Stem;
},
{
place = "{379, 80}";
type = Stem;
}
);
layerId = "e11d8b17-ebce-493c-b2b7-02eab722b597";
paths = (
{
closed = 1;
nodes = (
"459 169 LINE",
"422 169 LINE",
"385 63 LINE",
"385 60 OFFCURVE",
"340 28 OFFCURVE",
"271 28 CURVE SMOOTH",
"149 28 OFFCURVE",
"127 126 OFFCURVE",
"127 267 CURVE",
"466 267 LINE",
"466 340 OFFCURVE",
"450 494 OFFCURVE",
"265 494 CURVE SMOOTH",
"122 494 OFFCURVE",
"27 402 OFFCURVE",
"27 238 CURVE SMOOTH",
"27 90 OFFCURVE",
"103 -10 OFFCURVE",
"271 -10 CURVE SMOOTH",
"356 -10 OFFCURVE",
"424 15 OFFCURVE",
"459 55 CURVE"
);
},
{
closed = 1;
nodes = (
"263 455 LINE",
"332 455 OFFCURVE",
"379 411 OFFCURVE",
"379 300 CURVE",
"129 300 LINE",
"131 329 OFFCURVE",
"137 354 OFFCURVE",
"147 377 CURVE SMOOTH",
"163 417 OFFCURVE",
"199 455 OFFCURVE",
"263 455 CURVE SMOOTH"
);
}
);
width = 498;
}
);
unicode = 0435;
},
{
glyphname = uni043D;
layers = (
{
hints = (
{
horizontal = 1;
place = "{227, 36}";
type = Stem;
},
{
horizontal = 1;
place = "{0, 21}";
target = up;
type = BottomGhost;
},
{
horizontal = 1;
place = "{485, -20}";
target = down;
type = TopGhost;
},
{
place = "{116, 94}";
type = Stem;
},
{
place = "{447, 94}";
type = Stem;
}
);
layerId = "e11d8b17-ebce-493c-b2b7-02eab722b597";
paths = (
{
closed = 1;
nodes = (
"379 0 LINE",
"623 0 LINE",
"623 37 LINE",
"541 59 LINE",
"541 426 LINE",
"623 448 LINE",
"623 485 LINE",
"379 485 LINE",
"379 448 LINE",
"447 426 LINE",
"447 263 LINE",
"210 263 LINE",
"210 425 LINE",
"283 448 LINE",
"283 485 LINE",
"39 485 LINE",
"39 448 LINE",
"116 426 LINE",
"116 58 LINE",
"39 37 LINE",
"39 0 LINE",
"283 0 LINE",
"283 37 LINE",
"210 59 LINE",
"210 227 LINE",
"447 227 LINE",
"447 59 LINE",
"379 37 LINE"
);
}
);
width = 661;
}
);
unicode = 043D;
},
{
glyphname = uni043F;
layers = (
{
hints = (
{
horizontal = 1;
place = "{448, 36}";
type = Stem;
},
{
horizontal = 1;
place = "{0, 21}";
target = up;
type = BottomGhost;
},
{
place = "{116, 95}";
type = Stem;
},
{
place = "{449, 95}";
type = Stem;
}
);
layerId = "e11d8b17-ebce-493c-b2b7-02eab722b597";
paths = (
{
closed = 1;
nodes = (
"379 0 LINE",
"623 0 LINE",
"623 37 LINE",
"544 58 LINE",
"544 426 LINE",
"623 448 LINE",
"623 484 LINE",
"39 484 LINE",
"39 448 LINE",
"116 426 LINE",
"116 58 LINE",
"39 37 LINE",
"39 0 LINE",
"283 0 LINE",
"283 37 LINE",
"211 59 LINE",
"211 448 LINE",
"449 448 LINE",
"449 59 LINE",
"379 37 LINE"
);
}
);
width = 662;
}
);
unicode = 043F;
},
{
glyphname = uni0442;
layers = (
{
hints = (
{
horizontal = 1;
place = "{353, 128}";
type = Stem;
},
{
horizontal = 1;
place = "{445, 36}";
type = Stem;
},
{
horizontal = 1;
place = "{0, 21}";
target = up;
type = BottomGhost;
},
{
place = "{209, 94}";
type = Stem;
}
);
layerId = "e11d8b17-ebce-493c-b2b7-02eab722b597";
paths = (
{
closed = 1;
nodes = (
"129 0 LINE",
"383 0 LINE",
"383 37 LINE",
"303 58 LINE",
"303 445 LINE",
"434 445 LINE",
"459 353 LINE",
"496 353 LINE",
"496 481 LINE",
"16 481 LINE",
"16 353 LINE",
"53 353 LINE",
"78 445 LINE",
"209 445 LINE",
"209 59 LINE",
"129 37 LINE"
);
}
);
width = 512;
}
);
unicode = 0442;
},
{
glyphname = uni0438;
layers = (
{
hints = (
{
horizontal = 1;
place = "{0, 21}";
target = up;
type = BottomGhost;
},
{
horizontal = 1;
place = "{485, -20}";
target = down;
type = TopGhost;
},
{
place = "{117, 94}";
type = Stem;
},
{
place = "{458, 94}";
type = Stem;
}
);
layerId = "e11d8b17-ebce-493c-b2b7-02eab722b597";
paths = (
{
closed = 1;
nodes = (
"385 0 LINE",
"634 0 LINE",
"634 37 LINE",
"552 59 LINE",
"552 426 LINE",
"634 448 LINE",
"634 485 LINE",
"458 485 LINE",
"211 73 LINE",
"211 425 LINE",
"288 448 LINE",
"288 485 LINE",
"40 485 LINE",
"40 448 LINE",
"117 426 LINE",
"117 58 LINE",
"40 37 LINE",
"40 0 LINE",
"209 0 LINE",
"458 412 LINE",
"458 59 LINE",
"385 37 LINE"
);
}
);
width = 674;
}
);
unicode = 0438;
},
{
glyphname = uni0434;
layers = (
{
hints = (
{
horizontal = 1;
place = "{0, 36}";
type = Stem;
},
{
horizontal = 1;
place = "{-93, 21}";
target = up;
type = BottomGhost;
},
{
horizontal = 1;
place = "{489, -20}";
target = down;
type = TopGhost;
}
);
layerId = "e11d8b17-ebce-493c-b2b7-02eab722b597";
paths = (
{
closed = 1;
nodes = (
"6 36 LINE",
"6 -93 LINE",
"33 -93 LINE",
"72 0 LINE",
"528 0 LINE",
"564 -89 LINE",
"596 -89 LINE",
"596 36 LINE",
"514 36 LINE",
"333 489 LINE",
"279 489 LINE",
"88 36 LINE"
);
},
{
closed = 1;
nodes = (
"410 36 LINE",
"154 36 LINE",
"281 408 LINE"
);
}
);
width = 601;
}
);
unicode = 0434;
},
{
glyphname = uni0446;
layers = (
{
hints = (
{
horizontal = 1;
place = "{0, 36}";
type = Stem;
},
{
horizontal = 1;
place = "{-89, 21}";
target = up;
type = BottomGhost;
},
{
horizontal = 1;
place = "{484, -20}";
target = down;
type = TopGhost;
},
{
place = "{117, 95}";
type = Stem;
},
{
place = "{450, 95}";
type = Stem;
}
);
layerId = "e11d8b17-ebce-493c-b2b7-02eab722b597";
paths = (
{
closed = 1;
nodes = (
"642 -89 LINE",
"642 36 LINE",
"545 36 LINE",
"545 426 LINE",
"624 447 LINE",
"624 484 LINE",
"386 484 LINE",
"386 447 LINE",
"450 425 LINE",
"450 36 LINE",
"212 36 LINE",
"212 425 LINE",
"279 447 LINE",
"279 484 LINE",
"40 484 LINE",
"40 447 LINE",
"117 426 LINE",
"117 58 LINE",
"40 36 LINE",
"40 0 LINE",
"584 0 LINE",
"620 -89 LINE"
);
}
);
width = 647;
}
);
unicode = 0446;
},
{
glyphname = uni0448;
layers = (
{
hints = (
{
horizontal = 1;
place = "{0, 36}";
type = Stem;
},
{
horizontal = 1;
place = "{484, -20}";
target = down;
type = TopGhost;
},
{
place = "{120, 95}";
type = Stem;
},
{
place = "{400, 94}";
type = Stem;
},
{
place = "{680, 94}";
type = Stem;
}
);
layerId = "e11d8b17-ebce-493c-b2b7-02eab722b597";
paths = (
{
closed = 1;
nodes = (
"624 447 LINE",
"680 425 LINE",
"680 36 LINE",
"494 36 LINE",
"494 427 LINE",
"549 447 LINE",
"549 484 LINE",
"346 484 LINE",
"346 447 LINE",
"400 427 LINE",
"400 36 LINE",
"215 36 LINE",
"215 425 LINE",
"271 447 LINE",
"271 484 LINE",
"43 484 LINE",
"43 447 LINE",
"120 426 LINE",
"120 58 LINE",
"43 36 LINE",
"43 0 LINE",
"853 0 LINE",
"853 36 LINE",
"774 58 LINE",
"774 426 LINE",
"853 447 LINE",
"853 484 LINE",
"624 484 LINE"
);
}
);
width = 899;
}
);
unicode = 0448;
},
{
glyphname = uni0449;
layers = (
{
hints = (
{
horizontal = 1;
place = "{0, 36}";
type = Stem;
},
{
horizontal = 1;
place = "{484, -20}";
target = down;
type = TopGhost;
},
{
horizontal = 1;
place = "{-89, 21}";
target = up;
type = BottomGhost;
},
{
place = "{120, 95}";
type = Stem;
},
{
place = "{400, 94}";
type = Stem;
},
{
place = "{680, 94}";
type = Stem;
}
);
layerId = "e11d8b17-ebce-493c-b2b7-02eab722b597";
paths = (
{
closed = 1;
nodes = (
"624 447 LINE",
"680 425 LINE",
"680 36 LINE",
"494 36 LINE",
"494 427 LINE",
"549 447 LINE",
"549 484 LINE",
"346 484 LINE",
"346 447 LINE",
"400 427 LINE",
"400 36 LINE",
"215 36 LINE",
"215 425 LINE",
"271 447 LINE",
"271 484 LINE",
"43 484 LINE",
"43 447 LINE",
"120 426 LINE",
"120 58 LINE",
"43 36 LINE",
"43 0 LINE",
"813 0 LINE",
"849 -89 LINE",
"871 -89 LINE",
"871 36 LINE",
"853 36 LINE",
"774 37 LINE",
"774 426 LINE",
"853 447 LINE",
"853 484 LINE",
"624 484 LINE"
);
}
);
width = 884;
}
);
unicode = 0449;
},
{
glyphname = uni0447;
layers = (
{
hints = (
{
horizontal = 1;
place = "{0, 219}";
type = Stem;
},
{
horizontal = 1;
place = "{181, 38}";
type = Stem;
},
{
horizontal = 1;
place = "{482, -20}";
target = down;
type = TopGhost;
},
{
place = "{73, 95}";
type = Stem;
},
{
place = "{408, 94}";
type = Stem;
}
);
layerId = "e11d8b17-ebce-493c-b2b7-02eab722b597";
paths = (
{
closed = 1;
nodes = (
"330 0 LINE",
"584 0 LINE",
"584 37 LINE",
"502 59 LINE",
"502 423 LINE",
"584 445 LINE",
"584 482 LINE",
"330 482 LINE",
"330 445 LINE",
"406 423 LINE",
"394 282 OFFCURVE",
"340 219 OFFCURVE",
"260 219 CURVE SMOOTH",
"201 219 OFFCURVE",
"168 253 OFFCURVE",
"168 349 CURVE SMOOTH",
"168 421 LINE",
"254 445 LINE",
"254 482 LINE",
"0 482 LINE",
"0 445 LINE",
"73 424 LINE",
"73 357 LINE SMOOTH",
"73 237 OFFCURVE",
"136 181 OFFCURVE",
"233 181 CURVE SMOOTH",
"316 181 OFFCURVE",
"384 224 OFFCURVE",
"408 315 CURVE",
"408 59 LINE",
"330 37 LINE"
);
}
);
width = 622;
}
);
unicode = 0447;
},
{
glyphname = uni0444;
layers = (
{
hints = (
{
horizontal = 1;
place = "{-11, 36}";
type = Stem;
},
{
horizontal = 1;
place = "{457, 36}";
type = Stem;
},
{
horizontal = 1;
place = "{-314, 21}";
target = up;
type = BottomGhost;
},
{
horizontal = 1;
place = "{750, -20}";
target = down;
type = TopGhost;
},
{
place = "{10, 97}";
type = Stem;
},
{
place = "{292, 163}";
type = Stem;
},
{
place = "{371, 84}";
type = Stem;
},
{
place = "{720, 97}";
type = Stem;
}
);
layerId = "e11d8b17-ebce-493c-b2b7-02eab722b597";
paths = (
{
closed = 1;
nodes = (
"292 -314 LINE",
"536 -314 LINE",
"536 -277 LINE",
"455 -255 LINE",
"455 108 LINE",
"486 29 OFFCURVE",
"541 -11 OFFCURVE",
"622 -11 CURVE SMOOTH",
"759 -11 OFFCURVE",
"817 114 OFFCURVE",
"817 239 CURVE SMOOTH",
"817 366 OFFCURVE",
"757 493 OFFCURVE",
"621 493 CURVE SMOOTH",
"548 493 OFFCURVE",
"486 458 OFFCURVE",
"455 378 CURVE",
"455 750 LINE",
"292 750 LINE",
"292 713 LINE",
"371 691 LINE",
"371 378 LINE",
"342 458 OFFCURVE",
"279 493 OFFCURVE",
"206 493 CURVE SMOOTH",
"70 493 OFFCURVE",
"10 366 OFFCURVE",
"10 239 CURVE SMOOTH",
"10 114 OFFCURVE",
"67 -11 OFFCURVE",
"204 -11 CURVE SMOOTH",
"285 -11 OFFCURVE",
"341 29 OFFCURVE",
"371 108 CURVE",
"371 -255 LINE",
"292 -277 LINE"
);
},
{
closed = 1;
nodes = (
"222 457 LINE",
"300 457 OFFCURVE",
"370 378 OFFCURVE",
"370 241 CURVE SMOOTH",
"370 118 OFFCURVE",
"312 25 OFFCURVE",
"219 25 CURVE SMOOTH",
"136 25 OFFCURVE",
"107 129 OFFCURVE",
"107 236 CURVE SMOOTH",
"107 346 OFFCURVE",
"139 457 OFFCURVE",
"222 457 CURVE SMOOTH"
);
},
{
closed = 1;
nodes = (
"604 457 LINE",
"687 457 OFFCURVE",
"720 345 OFFCURVE",
"720 235 CURVE SMOOTH",
"720 129 OFFCURVE",
"690 25 OFFCURVE",
"607 25 CURVE SMOOTH",
"515 25 OFFCURVE",
"457 118 OFFCURVE",
"457 241 CURVE SMOOTH",
"457 377 OFFCURVE",
"525 457 OFFCURVE",
"604 457 CURVE SMOOTH"
);
}
);
width = 827;
}
);
unicode = 0444;
},
{
glyphname = uni044C;
layers = (
{
hints = (
{
horizontal = 1;
place = "{0, 36}";
type = Stem;
},
{
horizontal = 1;
place = "{223, 36}";
type = Stem;
},
{
horizontal = 1;
place = "{481, -20}";
target = down;
type = TopGhost;
},
{
place = "{109, 95}";
type = Stem;
},
{
place = "{392, 94}";
type = Stem;
}
);
layerId = "e11d8b17-ebce-493c-b2b7-02eab722b597";
paths = (
{
closed = 1;
nodes = (
"36 444 LINE",
"109 423 LINE",
"109 57 LINE",
"36 37 LINE",
"36 0 LINE",
"360 0 LINE SMOOTH",
"444 0 OFFCURVE",
"486 64 OFFCURVE",
"486 129 CURVE SMOOTH",
"486 194 OFFCURVE",
"444 259 OFFCURVE",
"360 259 CURVE SMOOTH",
"204 259 LINE",
"204 420 LINE",
"290 444 LINE",
"290 481 LINE",
"36 481 LINE"
);
},
{
closed = 1;
nodes = (
"302 223 LINE",
"362 223 OFFCURVE",
"392 176 OFFCURVE",
"392 129 CURVE SMOOTH",
"392 82 OFFCURVE",
"362 36 OFFCURVE",
"302 36 CURVE SMOOTH",
"204 36 LINE",
"204 223 LINE"
);
}
);
width = 501;
}
);
unicode = 044C;
},
{
glyphname = uni044E;
layers = (
{
hints = (
{
horizontal = 1;
place = "{-9, 41}";
type = Stem;
},
{
horizontal = 1;
place = "{227, 36}";
type = Stem;
},
{
horizontal = 1;
place = "{452, 33}";
type = Stem;
},
{
horizontal = 1;
place = "{494, -20}";
target = down;
type = TopGhost;
},
{
horizontal = 1;
place = "{0, 21}";
target = up;
type = BottomGhost;
},
{
place = "{106, 94}";
type = Stem;
},
{
place = "{295, 101}";
type = Stem;
},
{
place = "{663, 100}";
type = Stem;
}
);
layerId = "e11d8b17-ebce-493c-b2b7-02eab722b597";
paths = (
{
closed = 1;
nodes = (
"530 494 LINE",
"389 494 OFFCURVE",
"304 408 OFFCURVE",
"295 263 CURVE",
"200 263 LINE",
"200 425 LINE",
"283 448 LINE",
"283 485 LINE",
"29 485 LINE",
"29 448 LINE",
"106 426 LINE",
"106 58 LINE",
"29 37 LINE",
"29 0 LINE",
"283 0 LINE",
"283 37 LINE",
"200 59 LINE",
"200 227 LINE",
"295 227 LINE",
"299 74 OFFCURVE",
"385 -9 OFFCURVE",
"529 -9 CURVE SMOOTH",
"674 -9 OFFCURVE",
"763 76 OFFCURVE",
"763 240 CURVE SMOOTH",
"763 404 OFFCURVE",
"674 494 OFFCURVE",
"530 494 CURVE SMOOTH"
);
},
{
closed = 1;
nodes = (
"530 452 LINE",
"634 452 OFFCURVE",
"663 375 OFFCURVE",
"663 242 CURVE SMOOTH",
"663 91 OFFCURVE",
"624 32 OFFCURVE",
"528 32 CURVE SMOOTH",
"435 32 OFFCURVE",
"396 89 OFFCURVE",
"396 239 CURVE SMOOTH",
"396 390 OFFCURVE",
"434 452 OFFCURVE",
"530 452 CURVE SMOOTH"
);
}
);
width = 778;
}
);
unicode = 044E;
},
{
glyphname = uni044B;
layers = (
{
hints = (
{
horizontal = 1;
place = "{0, 36}";
type = Stem;
},
{
horizontal = 1;
place = "{223, 36}";
type = Stem;
},
{
horizontal = 1;
place = "{485, -20}";
target = down;
type = TopGhost;
},
{
place = "{114, 95}";
type = Stem;
},
{
place = "{397, 94}";
type = Stem;
},
{
place = "{594, 94}";
type = Stem;
}
);
layerId = "e11d8b17-ebce-493c-b2b7-02eab722b597";
paths = (
{
closed = 1;
nodes = (
"41 444 LINE",
"114 423 LINE",
"114 57 LINE",
"41 37 LINE",
"41 0 LINE",
"365 0 LINE SMOOTH",
"449 0 OFFCURVE",
"491 64 OFFCURVE",
"491 129 CURVE SMOOTH",
"491 194 OFFCURVE",
"449 259 OFFCURVE",
"365 259 CURVE SMOOTH",
"209 259 LINE",
"209 420 LINE",
"295 444 LINE",
"295 481 LINE",
"41 481 LINE"
);
},
{
closed = 1;
nodes = (
"307 223 LINE",
"367 223 OFFCURVE",
"397 176 OFFCURVE",
"397 129 CURVE SMOOTH",
"397 82 OFFCURVE",
"367 36 OFFCURVE",
"307 36 CURVE SMOOTH",
"209 36 LINE",
"209 223 LINE"
);
},
{
closed = 1;
nodes = (
"688 425 LINE",
"771 448 LINE",
"771 485 LINE",
"517 485 LINE",
"517 448 LINE",
"594 426 LINE",
"594 58 LINE",
"517 37 LINE",
"517 0 LINE",
"771 0 LINE",
"771 37 LINE",
"688 59 LINE"
);
}
);
width = 812;
}
);
unicode = 044B;
},
{
glyphname = uni044F;
layers = (
{
hints = (
{
horizontal = 1;
place = "{222, 36}";
type = Stem;
},
{
horizontal = 1;
place = "{445, 36}";
type = Stem;
},
{
horizontal = 1;
place = "{0, 21}";
target = up;
type = BottomGhost;
},
{
place = "{82, 94}";
type = Stem;
},
{
place = "{359, 95}";
type = Stem;
}
);
layerId = "e11d8b17-ebce-493c-b2b7-02eab722b597";
paths = (
{
closed = 1;
nodes = (
"527 37 LINE",
"454 58 LINE",
"454 424 LINE",
"527 444 LINE",
"527 481 LINE",
"208 481 LINE SMOOTH",
"132 481 OFFCURVE",
"82 417 OFFCURVE",
"82 352 CURVE SMOOTH",
"82 287 OFFCURVE",
"132 222 OFFCURVE",
"208 222 CURVE SMOOTH",
"261 222 LINE",
"120 61 LINE",
"29 37 LINE",
"29 0 LINE",
"174 0 LINE",
"341 222 LINE",
"359 222 LINE",
"359 61 LINE",
"282 37 LINE",
"282 0 LINE",
"527 0 LINE"
);
},
{
closed = 1;
nodes = (
"266 258 LINE",
"213 258 OFFCURVE",
"176 305 OFFCURVE",
"176 352 CURVE SMOOTH",
"176 399 OFFCURVE",
"213 445 OFFCURVE",
"266 445 CURVE SMOOTH",
"359 445 LINE",
"359 258 LINE"
);
}
);
width = 565;
}
);
unicode = 044F;
},
{
glyphname = uni044A;
layers = (
{
hints = (
{
horizontal = 1;
place = "{0, 36}";
type = Stem;
},
{
horizontal = 1;
place = "{223, 36}";
type = Stem;
},
{
horizontal = 1;
place = "{445, 36}";
type = Stem;
},
{
place = "{182, 96}";
type = Stem;
},
{
place = "{465, 94}";
type = Stem;
}
);
layerId = "e11d8b17-ebce-493c-b2b7-02eab722b597";
paths = (
{
closed = 1;
nodes = (
"363 448 LINE",
"363 481 LINE",
"26 481 LINE",
"26 349 LINE",
"62 349 LINE",
"88 445 LINE",
"182 445 LINE",
"182 58 LINE",
"102 37 LINE",
"102 0 LINE",
"433 0 LINE SMOOTH",
"517 0 OFFCURVE",
"559 64 OFFCURVE",
"559 129 CURVE SMOOTH",
"559 194 OFFCURVE",
"517 259 OFFCURVE",
"433 259 CURVE SMOOTH",
"278 259 LINE",
"278 424 LINE"
);
},
{
closed = 1;
nodes = (
"278 36 LINE",
"278 223 LINE",
"375 223 LINE SMOOTH",
"435 223 OFFCURVE",
"465 176 OFFCURVE",
"465 129 CURVE SMOOTH",
"465 82 OFFCURVE",
"435 36 OFFCURVE",
"375 36 CURVE"
);
}
);
width = 568;
}
);
unicode = 044A;
},
{
glyphname = uni044D;
layers = (
{
hints = (
{
horizontal = 1;
place = "{-10, 38}";
type = Stem;
},
{
horizontal = 1;
place = "{227, 37}";
type = Stem;
},
{
horizontal = 1;
place = "{458, 37}";
type = Stem;
},
{
place = "{351, 103}";
type = Stem;
}
);
layerId = "e11d8b17-ebce-493c-b2b7-02eab722b597";
paths = (
{
closed = 1;
nodes = (
"216 155 LINE",
"239 227 LINE",
"351 227 LINE",
"348 87 OFFCURVE",
"290 28 OFFCURVE",
"197 28 CURVE SMOOTH",
"170 28 OFFCURVE",
"135 33 OFFCURVE",
"116 42 CURVE",
"81 156 LINE",
"44 156 LINE",
"44 38 LINE",
"79 6 OFFCURVE",
"146 -10 OFFCURVE",
"206 -10 CURVE SMOOTH",
"346 -10 OFFCURVE",
"454 79 OFFCURVE",
"454 239 CURVE SMOOTH",
"454 402 OFFCURVE",
"343 495 OFFCURVE",
"200 495 CURVE SMOOTH",
"142 495 OFFCURVE",
"74 480 OFFCURVE",
"46 452 CURVE",
"46 328 LINE",
"83 328 LINE",
"116 437 LINE",
"136 452 OFFCURVE",
"176 458 OFFCURVE",
"204 458 CURVE SMOOTH",
"291 458 OFFCURVE",
"344 393 OFFCURVE",
"351 264 CURVE",
"239 264 LINE",
"216 331 LINE",
"184 331 LINE",
"184 155 LINE"
);
}
);
width = 477;
}
);
unicode = 044D;
},
{
glyphname = uni0454;
layers = (
{
hints = (
{
horizontal = 1;
place = "{-10, 38}";
type = Stem;
},
{
horizontal = 1;
place = "{227, 37}";
type = Stem;
},
{
horizontal = 1;
place = "{458, 37}";
type = Stem;
},
{
place = "{47, 103}";
type = Stem;
}
);
layerId = "e11d8b17-ebce-493c-b2b7-02eab722b597";
paths = (
{
closed = 1;
nodes = (
"323 155 LINE",
"323 331 LINE",
"291 331 LINE",
"267 264 LINE",
"150 264 LINE",
"157 393 OFFCURVE",
"210 458 OFFCURVE",
"297 458 CURVE SMOOTH",
"325 458 OFFCURVE",
"365 452 OFFCURVE",
"385 437 CURVE",
"418 328 LINE",
"455 328 LINE",
"455 452 LINE",
"425 479 OFFCURVE",
"360 495 OFFCURVE",
"301 495 CURVE SMOOTH",
"158 495 OFFCURVE",
"47 402 OFFCURVE",
"47 239 CURVE SMOOTH",
"47 79 OFFCURVE",
"155 -10 OFFCURVE",
"295 -10 CURVE SMOOTH",
"355 -10 OFFCURVE",
"422 6 OFFCURVE",
"457 38 CURVE",
"457 156 LINE",
"420 156 LINE",
"385 42 LINE",
"366 33 OFFCURVE",
"331 28 OFFCURVE",
"304 28 CURVE SMOOTH",
"211 28 OFFCURVE",
"153 87 OFFCURVE",
"150 227 CURVE",
"267 227 LINE",
"291 155 LINE"
);
}
);
width = 515;
}
);
unicode = 0454;
},
{
glyphname = uni040F;
layers = (
{
hints = (
{
horizontal = 1;
place = "{0, 46}";
type = Stem;
},
{
horizontal = 1;
place = "{-125, 21}";
target = up;
type = BottomGhost;
},
{
horizontal = 1;
place = "{750, -20}";
target = down;
type = TopGhost;
},
{
place = "{139, 105}";
type = Stem;
},
{
place = "{610, 105}";
type = Stem;
}
);
layerId = "e11d8b17-ebce-493c-b2b7-02eab722b597";
paths = (
{
closed = 1;
nodes = (
"458 -125 LINE",
"492 0 LINE",
"817 0 LINE",
"817 37 LINE",
"715 60 LINE",
"715 690 LINE",
"817 713 LINE",
"817 750 LINE",
"513 750 LINE",
"513 713 LINE",
"610 690 LINE",
"610 46 LINE",
"244 46 LINE",
"244 691 LINE",
"344 713 LINE",
"344 750 LINE",
"40 750 LINE",
"40 713 LINE",
"139 690 LINE",
"139 61 LINE",
"40 37 LINE",
"40 0 LINE",
"386 0 LINE",
"420 -125 LINE"
);
}
);
width = 857;
}
);
unicode = 040F;
},
{
glyphname = uni045F;
layers = (
{
hints = (
{
horizontal = 1;
place = "{0, 36}";
type = Stem;
},
{
horizontal = 1;
place = "{-125, 21}";
target = up;
type = BottomGhost;
},
{
horizontal = 1;
place = "{484, -20}";
target = down;
type = TopGhost;
},
{
place = "{137, 95}";
type = Stem;
},
{
place = "{470, 95}";
type = Stem;
}
);
layerId = "e11d8b17-ebce-493c-b2b7-02eab722b597";
paths = (
{
closed = 1;
nodes = (
"368 -125 LINE",
"402 0 LINE",
"644 0 LINE",
"644 36 LINE",
"565 58 LINE",
"565 426 LINE",
"644 447 LINE",
"644 484 LINE",
"390 484 LINE",
"390 447 LINE",
"470 425 LINE",
"470 36 LINE",
"232 36 LINE",
"232 425 LINE",
"314 447 LINE",
"314 484 LINE",
"60 484 LINE",
"60 447 LINE",
"137 426 LINE",
"137 58 LINE",
"60 36 LINE",
"60 0 LINE",
"296 0 LINE",
"330 -125 LINE"
);
}
);
width = 704;
}
);
unicode = 045F;
},
{
glyphname = uni0459;
layers = (
{
hints = (
{
horizontal = 1;
place = "{0, 36}";
type = Stem;
},
{
horizontal = 1;
place = "{223, 36}";
type = Stem;
},
{
horizontal = 1;
place = "{486, -20}";
target = down;
type = TopGhost;
},
{
place = "{612, 94}";
type = Stem;
}
);
layerId = "e11d8b17-ebce-493c-b2b7-02eab722b597";
paths = (
{
closed = 1;
nodes = (
"577 0 LINE",
"649 0 OFFCURVE",
"706 57 OFFCURVE",
"706 129 CURVE SMOOTH",
"706 200 OFFCURVE",
"649 259 OFFCURVE",
"577 259 CURVE SMOOTH",
"422 259 LINE",
"328 486 LINE",
"269 486 LINE",
"90 55 LINE",
"15 38 LINE",
"15 0 LINE",
"138 0 LINE",
"270 386 LINE",
"398 55 LINE",
"329 38 LINE",
"329 0 LINE"
);
},
{
closed = 1;
nodes = (
"519 223 LINE",
"569 223 OFFCURVE",
"612 180 OFFCURVE",
"612 129 CURVE SMOOTH",
"612 78 OFFCURVE",
"569 36 OFFCURVE",
"519 36 CURVE SMOOTH",
"514 36 LINE",
"437 223 LINE"
);
}
);
width = 746;
}
);
unicode = 0459;
},
{
glyphname = uni045A;
layers = (
{
hints = (
{
horizontal = 1;
place = "{0, 36}";
type = Stem;
},
{
horizontal = 1;
place = "{227, 39}";
type = Stem;
},
{
horizontal = 1;
place = "{485, -20}";
target = down;
type = TopGhost;
},
{
place = "{148, 94}";
type = Stem;
},
{
place = "{478, 95}";
type = Stem;
},
{
place = "{713, 94}";
type = Stem;
}
);
layerId = "e11d8b17-ebce-493c-b2b7-02eab722b597";
paths = (
{
closed = 1;
nodes = (
"401 0 LINE",
"681 0 LINE SMOOTH",
"765 0 OFFCURVE",
"807 66 OFFCURVE",
"807 132 CURVE SMOOTH",
"807 199 OFFCURVE",
"764 266 OFFCURVE",
"681 266 CURVE SMOOTH",
"573 266 LINE",
"573 426 LINE",
"655 448 LINE",
"655 485 LINE",
"401 485 LINE",
"401 448 LINE",
"478 426 LINE",
"478 263 LINE",
"242 263 LINE",
"242 425 LINE",
"325 448 LINE",
"325 485 LINE",
"71 485 LINE",
"71 448 LINE",
"148 426 LINE",
"148 58 LINE",
"71 37 LINE",
"71 0 LINE",
"325 0 LINE",
"325 37 LINE",
"242 59 LINE",
"242 227 LINE",
"478 227 LINE",
"478 58 LINE",
"401 37 LINE"
);
},
{
closed = 1;
nodes = (
"623 228 LINE",
"683 228 OFFCURVE",
"713 179 OFFCURVE",
"713 131 CURVE SMOOTH",
"713 83 OFFCURVE",
"683 36 OFFCURVE",
"623 36 CURVE SMOOTH",
"573 36 LINE",
"573 228 LINE"
);
}
);
width = 829;
}
);
unicode = 045A;
},
{
glyphname = uni0401;
layers = (
{
hints = (
{
horizontal = 1;
place = "{0, 43}";
type = Stem;
},
{
horizontal = 1;
place = "{364, 44}";
type = Stem;
},
{
horizontal = 1;
place = "{707, 43}";
type = Stem;
},
{
horizontal = 1;
place = "{821, 116}";
type = Stem;
},
{
horizontal = 1;
place = "{495, -20}";
target = down;
type = TopGhost;
},
{
place = "{159, 105}";
type = Stem;
},
{
place = "{198, 130}";
type = Stem;
},
{
place = "{421, 130}";
type = Stem;
}
);
layerId = "e11d8b17-ebce-493c-b2b7-02eab722b597";
paths = (
{
closed = 1;
nodes = (
"60 713 LINE",
"159 689 LINE",
"159 60 LINE",
"60 37 LINE",
"60 0 LINE",
"630 0 LINE",
"630 178 LINE",
"577 178 LINE",
"538 43 LINE",
"264 43 LINE",
"264 364 LINE",
"457 364 LINE",
"484 288 LINE",
"521 288 LINE",
"521 495 LINE",
"484 495 LINE",
"457 408 LINE",
"264 408 LINE",
"264 707 LINE",
"520 707 LINE",
"559 571 LINE",
"611 571 LINE",
"611 750 LINE",
"60 750 LINE"
);
},
{
closed = 1;
nodes = (
"263 937 LINE",
"224 937 OFFCURVE",
"198 916 OFFCURVE",
"198 879 CURVE SMOOTH",
"198 842 OFFCURVE",
"224 821 OFFCURVE",
"263 821 CURVE SMOOTH",
"306 821 OFFCURVE",
"328 846 OFFCURVE",
"328 879 CURVE SMOOTH",
"328 915 OFFCURVE",
"302 937 OFFCURVE",
"263 937 CURVE SMOOTH"
);
},
{
closed = 1;
nodes = (
"486 937 LINE",
"447 937 OFFCURVE",
"421 916 OFFCURVE",
"421 879 CURVE SMOOTH",
"421 842 OFFCURVE",
"447 821 OFFCURVE",
"486 821 CURVE SMOOTH",
"529 821 OFFCURVE",
"551 846 OFFCURVE",
"551 879 CURVE SMOOTH",
"551 915 OFFCURVE",
"525 937 OFFCURVE",
"486 937 CURVE SMOOTH"
);
}
);
width = 690;
}
);
unicode = 0401;
},
{
glyphname = uni0451;
layers = (
{
hints = (
{
horizontal = 1;
place = "{-10, 38}";
type = Stem;
},
{
horizontal = 1;
place = "{267, 33}";
type = Stem;
},
{
horizontal = 1;
place = "{455, 39}";
type = Stem;
},
{
horizontal = 1;
place = "{605, 116}";
type = Stem;
},
{
place = "{51, 100}";
type = Stem;
},
{
place = "{101, 130}";
type = Stem;
},
{
place = "{324, 130}";
type = Stem;
},
{
place = "{403, 80}";
type = Stem;
}
);
layerId = "e11d8b17-ebce-493c-b2b7-02eab722b597";
paths = (
{
closed = 1;
nodes = (
"483 169 LINE",
"446 169 LINE",
"409 63 LINE",
"409 60 OFFCURVE",
"364 28 OFFCURVE",
"295 28 CURVE SMOOTH",
"173 28 OFFCURVE",
"151 126 OFFCURVE",
"151 267 CURVE",
"490 267 LINE",
"490 340 OFFCURVE",
"474 494 OFFCURVE",
"289 494 CURVE SMOOTH",
"146 494 OFFCURVE",
"51 402 OFFCURVE",
"51 238 CURVE SMOOTH",
"51 90 OFFCURVE",
"127 -10 OFFCURVE",
"295 -10 CURVE SMOOTH",
"380 -10 OFFCURVE",
"448 15 OFFCURVE",
"483 55 CURVE"
);
},
{
closed = 1;
nodes = (
"287 455 LINE",
"356 455 OFFCURVE",
"403 411 OFFCURVE",
"403 300 CURVE",
"153 300 LINE",
"155 329 OFFCURVE",
"161 354 OFFCURVE",
"171 377 CURVE SMOOTH",
"187 417 OFFCURVE",
"223 455 OFFCURVE",
"287 455 CURVE SMOOTH"
);
},
{
closed = 1;
nodes = (
"166 721 LINE",
"127 721 OFFCURVE",
"101 700 OFFCURVE",
"101 663 CURVE SMOOTH",
"101 626 OFFCURVE",
"127 605 OFFCURVE",
"166 605 CURVE SMOOTH",
"209 605 OFFCURVE",
"231 630 OFFCURVE",
"231 663 CURVE SMOOTH",
"231 699 OFFCURVE",
"205 721 OFFCURVE",
"166 721 CURVE SMOOTH"
);
},
{
closed = 1;
nodes = (
"389 721 LINE",
"350 721 OFFCURVE",
"324 700 OFFCURVE",
"324 663 CURVE SMOOTH",
"324 626 OFFCURVE",
"350 605 OFFCURVE",
"389 605 CURVE SMOOTH",
"432 605 OFFCURVE",
"454 630 OFFCURVE",
"454 663 CURVE SMOOTH",
"454 699 OFFCURVE",
"428 721 OFFCURVE",
"389 721 CURVE SMOOTH"
);
}
);
width = 551;
}
);
unicode = 0451;
},
{
glyphname = aring;
layers = (
{
hints = (
{
horizontal = 1;
place = "{-9, 42}";
type = Stem;
},
{
horizontal = 1;
place = "{255, 35}";
type = Stem;
},
{
horizontal = 1;
place = "{455, 38}";
type = Stem;
},
{
horizontal = 1;
place = "{564, 30}";
type = Stem;
},
{
horizontal = 1;
place = "{765, 30}";
type = Stem;
},
{
horizontal = 1;
place = "{0, 21}";
target = up;
type = BottomGhost;
},
{
place = "{17, 96}";
type = Stem;
},
{
place = "{105, 51}";
type = Stem;
},
{
place = "{292, 48}";
type = Stem;
},
{
place = "{341, 94}";
type = Stem;
}
);
layerId = "e11d8b17-ebce-493c-b2b7-02eab722b597";
paths = (
{
closed = 1;
nodes = (
"435 60 LINE",
"435 309 LINE SMOOTH",
"435 453 OFFCURVE",
"354 493 OFFCURVE",
"222 493 CURVE SMOOTH",
"150 493 OFFCURVE",
"88 470 OFFCURVE",
"57 443 CURVE",
"57 330 LINE",
"94 330 LINE",
"127 429 LINE",
"151 444 OFFCURVE",
"191 455 OFFCURVE",
"223 455 CURVE SMOOTH",
"296 455 OFFCURVE",
"341 433 OFFCURVE",
"341 333 CURVE SMOOTH",
"341 290 LINE",
"120 286 OFFCURVE",
"17 242 OFFCURVE",
"17 122 CURVE SMOOTH",
"17 41 OFFCURVE",
"70 -9 OFFCURVE",
"178 -9 CURVE SMOOTH",
"257 -9 OFFCURVE",
"312 28 OFFCURVE",
"343 101 CURVE",
"343 0 LINE",
"519 0 LINE",
"519 37 LINE"
);
},
{
closed = 1;
nodes = (
"204 33 LINE",
"141 33 OFFCURVE",
"113 61 OFFCURVE",
"113 132 CURVE SMOOTH",
"113 216 OFFCURVE",
"155 255 OFFCURVE",
"341 255 CURVE",
"341 80 OFFCURVE",
"281 33 OFFCURVE",
"204 33 CURVE SMOOTH"
);
},
{
closed = 1;
nodes = (
"223 765 LINE",
"268 765 OFFCURVE",
"292 722 OFFCURVE",
"292 679 CURVE SMOOTH",
"292 635 OFFCURVE",
"268 594 OFFCURVE",
"223 594 CURVE SMOOTH",
"178 594 OFFCURVE",
"156 635 OFFCURVE",
"156 679 CURVE SMOOTH",
"156 722 OFFCURVE",
"179 765 OFFCURVE",
"223 765 CURVE SMOOTH"
);
},
{
closed = 1;
nodes = (
"227 795 LINE",
"144 795 OFFCURVE",
"105 737 OFFCURVE",
"105 678 CURVE SMOOTH",
"105 622 OFFCURVE",
"145 564 OFFCURVE",
"222 564 CURVE SMOOTH",
"299 564 OFFCURVE",
"340 622 OFFCURVE",
"340 681 CURVE SMOOTH",
"340 737 OFFCURVE",
"302 795 OFFCURVE",
"227 795 CURVE SMOOTH"
);
}
);
width = 532;
}
);
unicode = 00E5;
},
{
glyphname = Aring;
layers = (
{
hints = (
{
horizontal = 1;
place = "{252, 38}";
type = Stem;
},
{
horizontal = 1;
place = "{831, 30}";
type = Stem;
},
{
horizontal = 1;
place = "{1032, 30}";
type = Stem;
},
{
horizontal = 1;
place = "{0, 21}";
target = up;
type = BottomGhost;
},
{
horizontal = 1;
place = "{758, -20}";
target = down;
type = TopGhost;
},
{
place = "{349, 51}";
type = Stem;
},
{
place = "{536, 48}";
type = Stem;
}
);
layerId = "e11d8b17-ebce-493c-b2b7-02eab722b597";
paths = (
{
closed = 1;
nodes = (
"50 0 LINE",
"302 0 LINE",
"302 37 LINE",
"212 58 LINE",
"287 252 LINE",
"589 252 LINE",
"668 58 LINE",
"581 37 LINE",
"581 0 LINE",
"865 0 LINE",
"865 37 LINE",
"781 59 LINE",
"493 758 LINE",
"442 758 LINE",
"139 59 LINE",
"50 37 LINE"
);
},
{
closed = 1;
nodes = (
"301 290 LINE",
"435 641 LINE",
"575 290 LINE"
);
},
{
closed = 1;
nodes = (
"467 1032 LINE",
"512 1032 OFFCURVE",
"536 989 OFFCURVE",
"536 946 CURVE SMOOTH",
"536 902 OFFCURVE",
"512 861 OFFCURVE",
"467 861 CURVE SMOOTH",
"422 861 OFFCURVE",
"400 902 OFFCURVE",
"400 946 CURVE SMOOTH",
"400 989 OFFCURVE",
"423 1032 OFFCURVE",
"467 1032 CURVE SMOOTH"
);
},
{
closed = 1;
nodes = (
"471 1062 LINE",
"388 1062 OFFCURVE",
"349 1004 OFFCURVE",
"349 945 CURVE SMOOTH",
"349 889 OFFCURVE",
"389 831 OFFCURVE",
"466 831 CURVE SMOOTH",
"543 831 OFFCURVE",
"584 889 OFFCURVE",
"584 948 CURVE SMOOTH",
"584 1004 OFFCURVE",
"546 1062 OFFCURVE",
"471 1062 CURVE SMOOTH"
);
}
);
width = 915;
}
);
unicode = 00C5;
},
{
glyphname = Ntilde;
layers = (
{
hints = (
{
horizontal = 1;
place = "{883, 68}";
type = Stem;
},
{
horizontal = 1;
place = "{947, 68}";
type = Stem;
},
{
horizontal = 1;
place = "{750, -20}";
target = down;
type = TopGhost;
},
{
horizontal = 1;
place = "{0, 21}";
target = up;
type = BottomGhost;
},
{
place = "{199, 50}";
type = Stem;
},
{
place = "{737, 50}";
type = Stem;
}
);
layerId = "e11d8b17-ebce-493c-b2b7-02eab722b597";
paths = (
{
closed = 1;
nodes = (
"639 713 LINE",
"737 687 LINE",
"737 158 LINE",
"329 750 LINE",
"106 750 LINE",
"106 713 LINE",
"199 687 LINE",
"199 59 LINE",
"106 37 LINE",
"106 0 LINE",
"347 0 LINE",
"347 37 LINE",
"249 59 LINE",
"249 686 LINE",
"717 0 LINE",
"787 0 LINE",
"787 688 LINE",
"885 713 LINE",
"885 750 LINE",
"639 750 LINE"
);
},
{
closed = 1;
nodes = (
"267 889 LINE",
"300 932 OFFCURVE",
"324 947 OFFCURVE",
"347 947 CURVE SMOOTH",
"408 947 OFFCURVE",
"452 883 OFFCURVE",
"505 883 CURVE SMOOTH",
"538 883 OFFCURVE",
"575 905 OFFCURVE",
"626 989 CURVE",
"601 1007 LINE",
"572 964 OFFCURVE",
"549 951 OFFCURVE",
"526 951 CURVE SMOOTH",
"478 951 OFFCURVE",
"442 1015 OFFCURVE",
"380 1015 CURVE SMOOTH",
"331 1015 OFFCURVE",
"305 992 OFFCURVE",
"260 928 CURVE SMOOTH",
"245 907 LINE"
);
}
);
width = 789;
}
);
unicode = 00D1;
},
{
glyphname = section;
layers = (
{
hints = (
{
horizontal = 1;
place = "{-282, 41}";
type = Stem;
},
{
horizontal = 1;
place = "{709, 40}";
type = Stem;
},
{
place = "{67, 72}";
type = Stem;
},
{
place = "{400, 85}";
type = Stem;
},
{
place = "{424, 82}";
type = Stem;
},
{
place = "{67, 96}";
type = Stem;
}
);
layerId = "e11d8b17-ebce-493c-b2b7-02eab722b597";
paths = (
{
closed = 1;
nodes = (
"506 218 LINE",
"506 306 OFFCURVE",
"406 376 OFFCURVE",
"318 440 CURVE SMOOTH",
"238 499 OFFCURVE",
"163 551 OFFCURVE",
"163 616 CURVE SMOOTH",
"163 672 OFFCURVE",
"207 709 OFFCURVE",
"279 709 CURVE SMOOTH",
"310 709 OFFCURVE",
"330 703 OFFCURVE",
"349 684 CURVE",
"389 532 LINE",
"436 532 LINE",
"436 688 LINE",
"401 720 OFFCURVE",
"341 749 OFFCURVE",
"281 749 CURVE SMOOTH",
"159 749 OFFCURVE",
"67 665 OFFCURVE",
"67 574 CURVE SMOOTH",
"67 522 OFFCURVE",
"96 471 OFFCURVE",
"180 412 CURVE",
"108 357 OFFCURVE",
"62 305 OFFCURVE",
"62 249 CURVE SMOOTH",
"62 161 OFFCURVE",
"153 96 OFFCURVE",
"241 32 CURVE SMOOTH",
"319 -24 OFFCURVE",
"400 -84 OFFCURVE",
"400 -150 CURVE SMOOTH",
"400 -206 OFFCURVE",
"350 -241 OFFCURVE",
"278 -241 CURVE SMOOTH",
"245 -241 OFFCURVE",
"219 -236 OFFCURVE",
"199 -217 CURVE",
"159 -65 LINE",
"112 -65 LINE",
"112 -221 LINE",
"147 -253 OFFCURVE",
"214 -282 OFFCURVE",
"275 -282 CURVE SMOOTH",
"408 -282 OFFCURVE",
"482 -202 OFFCURVE",
"485 -114 CURVE SMOOTH",
"485 -110 LINE SMOOTH",
"485 -59 OFFCURVE",
"461 -10 OFFCURVE",
"384 51 CURVE",
"456 107 OFFCURVE",
"506 163 OFFCURVE",
"506 218 CURVE SMOOTH"
);
},
{
closed = 1;
nodes = (
"139 294 LINE",
"139 321 OFFCURVE",
"167 352 OFFCURVE",
"210 389 CURVE",
"401 246 OFFCURVE",
"424 219 OFFCURVE",
"424 175 CURVE SMOOTH",
"424 148 OFFCURVE",
"395 111 OFFCURVE",
"352 74 CURVE",
"162 219 OFFCURVE",
"139 248 OFFCURVE",
"139 294 CURVE SMOOTH"
);
}
);
width = 585;
}
);
unicode = 00A7;
},
{
glyphname = ampersand;
layers = (
{
hints = (
{
horizontal = 1;
place = "{-15, 35}";
type = Stem;
},
{
horizontal = 1;
place = "{732, 33}";
type = Stem;
},
{
horizontal = 1;
place = "{0, 21}";
target = up;
type = BottomGhost;
},
{
place = "{55, 106}";
type = Stem;
},
{
place = "{139, 96}";
type = Stem;
},
{
place = "{453, 78}";
type = Stem;
},
{
place = "{634, 45}";
type = Stem;
}
);
layerId = "e11d8b17-ebce-493c-b2b7-02eab722b597";
paths = (
{
closed = 1;
nodes = (
"639 0 LINE",
"794 0 LINE",
"794 37 LINE",
"715 58 LINE",
"613 157 LINE",
"666 254 OFFCURVE",
"679 317 OFFCURVE",
"679 391 CURVE",
"634 391 LINE",
"634 309 OFFCURVE",
"622 261 OFFCURVE",
"585 187 CURVE",
"351 424 LINE",
"482 480 OFFCURVE",
"531 519 OFFCURVE",
"531 605 CURVE SMOOTH",
"531 701 OFFCURVE",
"452 765 OFFCURVE",
"343 765 CURVE SMOOTH",
"223 765 OFFCURVE",
"139 698 OFFCURVE",
"139 598 CURVE SMOOTH",
"139 534 OFFCURVE",
"161 488 OFFCURVE",
"236 408 CURVE",
"105 336 OFFCURVE",
"55 288 OFFCURVE",
"55 195 CURVE SMOOTH",
"55 70 OFFCURVE",
"172 -15 OFFCURVE",
"322 -15 CURVE SMOOTH",
"413 -15 OFFCURVE",
"482 11 OFFCURVE",
"553 82 CURVE"
);
},
{
closed = 1;
nodes = (
"525 110 LINE",
"474 50 OFFCURVE",
"412 20 OFFCURVE",
"339 20 CURVE SMOOTH",
"238 20 OFFCURVE",
"161 98 OFFCURVE",
"161 214 CURVE SMOOTH",
"161 291 OFFCURVE",
"185 344 OFFCURVE",
"261 380 CURVE"
);
},
{
closed = 1;
nodes = (
"328 450 LINE",
"328 449 OFFCURVE",
"280 505 OFFCURVE",
"276 515 CURVE",
"245 556 OFFCURVE",
"235 586 OFFCURVE",
"235 627 CURVE SMOOTH",
"235 694 OFFCURVE",
"282 732 OFFCURVE",
"345 732 CURVE SMOOTH",
"413 732 OFFCURVE",
"453 684 OFFCURVE",
"453 619 CURVE SMOOTH",
"453 543 OFFCURVE",
"424 494 OFFCURVE",
"328 450 CURVE"
);
}
);
width = 804;
}
);
unicode = 0026;
},
{
glyphname = cent;
layers = (
{
hints = (
{
horizontal = 1;
place = "{-129, 21}";
target = up;
type = BottomGhost;
},
{
horizontal = 1;
place = "{607, -20}";
target = down;
type = TopGhost;
},
{
place = "{47, 103}";
type = Stem;
},
{
place = "{273, 42}";
type = Stem;
},
{
place = "{273, 182}";
type = Stem;
}
);
layerId = "e11d8b17-ebce-493c-b2b7-02eab722b597";
paths = (
{
closed = 1;
nodes = (
"273 -129 LINE",
"315 -129 LINE",
"315 -9 LINE",
"370 -6 OFFCURVE",
"426 9 OFFCURVE",
"457 38 CURVE",
"457 156 LINE",
"420 156 LINE",
"385 42 LINE",
"368 34 OFFCURVE",
"339 29 OFFCURVE",
"315 28 CURVE",
"315 457 LINE",
"340 454 OFFCURVE",
"369 448 OFFCURVE",
"385 437 CURVE",
"418 328 LINE",
"455 328 LINE",
"455 452 LINE",
"428 479 OFFCURVE",
"370 492 OFFCURVE",
"315 495 CURVE",
"315 607 LINE",
"273 607 LINE",
"273 494 LINE",
"144 481 OFFCURVE",
"47 392 OFFCURVE",
"47 239 CURVE SMOOTH",
"47 87 OFFCURVE",
"144 -1 OFFCURVE",
"273 -9 CURVE"
);
},
{
closed = 1;
nodes = (
"150 239 LINE",
"150 371 OFFCURVE",
"196 444 OFFCURVE",
"273 456 CURVE",
"273 30 LINE",
"196 43 OFFCURVE",
"150 107 OFFCURVE",
"150 239 CURVE SMOOTH"
);
}
);
width = 505;
}
);
unicode = 00A2;
},
{
glyphname = sterling;
layers = (
{
hints = (
{
horizontal = 1;
place = "{0, 30}";
type = Stem;
},
{
horizontal = 1;
place = "{364, 37}";
type = Stem;
},
{
horizontal = 1;
place = "{722, 35}";
type = Stem;
},
{
horizontal = 1;
place = "{0, 75}";
type = Stem;
},
{
place = "{135, 107}";
type = Stem;
}
);
layerId = "e11d8b17-ebce-493c-b2b7-02eab722b597";
paths = (
{
closed = 1;
nodes = (
"398 364 LINE",
"398 401 LINE",
"242 401 LINE",
"242 566 LINE SMOOTH",
"242 662 OFFCURVE",
"302 722 OFFCURVE",
"365 722 CURVE SMOOTH",
"398 722 OFFCURVE",
"430 713 OFFCURVE",
"457 678 CURVE",
"499 544 LINE",
"543 544 LINE",
"543 676 LINE",
"504 728 OFFCURVE",
"442 757 OFFCURVE",
"370 757 CURVE SMOOTH",
"182 757 OFFCURVE",
"135 620 OFFCURVE",
"135 451 CURVE SMOOTH",
"135 401 LINE",
"33 401 LINE",
"33 364 LINE",
"135 364 LINE",
"135 241 LINE SMOOTH",
"135 78 OFFCURVE",
"107 30 OFFCURVE",
"38 30 CURVE",
"38 0 LINE",
"570 0 LINE",
"570 75 LINE",
"152 75 LINE",
"214 132 OFFCURVE",
"239 162 OFFCURVE",
"242 364 CURVE"
);
}
);
width = 640;
}
);
unicode = 00A3;
},
{
glyphname = yen;
layers = (
{
hints = (
{
horizontal = 1;
place = "{222, 44}";
type = Stem;
},
{
horizontal = 1;
place = "{321, 44}";
type = Stem;
},
{
horizontal = 1;
place = "{0, 21}";
target = up;
type = BottomGhost;
},
{
horizontal = 1;
place = "{750, -20}";
target = down;
type = TopGhost;
},
{
place = "{353, 105}";
type = Stem;
}
);
layerId = "e11d8b17-ebce-493c-b2b7-02eab722b597";
paths = (
{
closed = 1;
nodes = (
"144 321 LINE",
"344 321 LINE",
"353 307 LINE",
"353 266 LINE",
"144 266 LINE",
"144 222 LINE",
"353 222 LINE",
"353 59 LINE",
"257 37 LINE",
"257 0 LINE",
"561 0 LINE",
"561 37 LINE",
"458 60 LINE",
"458 222 LINE",
"670 222 LINE",
"670 266 LINE",
"458 266 LINE",
"458 321 LINE",
"670 321 LINE",
"670 365 LINE",
"484 365 LINE",
"680 687 LINE",
"769 714 LINE",
"769 750 LINE",
"524 750 LINE",
"524 714 LINE",
"611 689 LINE",
"436 366 LINE",
"246 692 LINE",
"334 713 LINE",
"334 750 LINE",
"30 750 LINE",
"30 713 LINE",
"126 688 LINE",
"318 365 LINE",
"144 365 LINE"
);
}
);
width = 695;
}
);
unicode = 00A5;
},
{
glyphname = brokenbar;
layers = (
{
hints = (
{
horizontal = 1;
place = "{-188, 21}";
target = up;
type = BottomGhost;
},
{
horizontal = 1;
place = "{750, -20}";
target = down;
type = TopGhost;
},
{
place = "{246, 69}";
type = Stem;
}
);
layerId = "e11d8b17-ebce-493c-b2b7-02eab722b597";
paths = (
{
closed = 1;
nodes = (
"246 172 LINE",
"246 -188 LINE",
"315 -188 LINE",
"315 172 LINE"
);
},
{
closed = 1;
nodes = (
"246 750 LINE",
"246 378 LINE",
"315 378 LINE",
"315 750 LINE"
);
}
);
width = 562;
}
);
unicode = 00A6;
},
{
glyphname = macron;
layers = (
{
hints = (
{
horizontal = 1;
place = "{676, 74}";
type = Stem;
}
);
layerId = "e11d8b17-ebce-493c-b2b7-02eab722b597";
paths = (
{
closed = 1;
nodes = (
"136 750 LINE",
"136 676 LINE",
"425 676 LINE",
"425 750 LINE"
);
}
);
width = 562;
}
);
unicode = 00AF;
},
{
glyphname = degree;
layers = (
{
hints = (
{
horizontal = 1;
place = "{427, 66}";
type = Stem;
},
{
horizontal = 1;
place = "{708, 64}";
type = Stem;
},
{
place = "{56, 63}";
type = Stem;
},
{
place = "{328, 66}";
type = Stem;
}
);
layerId = "e11d8b17-ebce-493c-b2b7-02eab722b597";
paths = (
{
closed = 1;
nodes = (
"224 708 LINE",
"283 708 OFFCURVE",
"328 660 OFFCURVE",
"328 600 CURVE SMOOTH",
"328 540 OFFCURVE",
"288 493 OFFCURVE",
"225 493 CURVE SMOOTH",
"168 493 OFFCURVE",
"119 541 OFFCURVE",
"119 600 CURVE SMOOTH",
"119 659 OFFCURVE",
"168 708 OFFCURVE",
"224 708 CURVE SMOOTH"
);
},
{
closed = 1;
nodes = (
"228 772 LINE",
"137 772 OFFCURVE",
"56 697 OFFCURVE",
"56 601 CURVE SMOOTH",
"56 502 OFFCURVE",
"132 427 OFFCURVE",
"224 427 CURVE SMOOTH",
"317 427 OFFCURVE",
"394 501 OFFCURVE",
"394 600 CURVE SMOOTH",
"394 697 OFFCURVE",
"320 772 OFFCURVE",
"228 772 CURVE SMOOTH"
);
}
);
width = 450;
}
);
unicode = 00B0;
},
{
glyphname = exclamdown;
layers = (
{
hints = (
{
horizontal = 1;
place = "{631, 130}";
type = Stem;
},
{
horizontal = 1;
place = "{0, 21}";
target = up;
type = BottomGhost;
},
{
place = "{105, 131}";
type = Stem;
},
{
place = "{132, 77}";
type = Stem;
}
);
layerId = "e11d8b17-ebce-493c-b2b7-02eab722b597";
paths = (
{
closed = 1;
nodes = (
"171 631 LINE",
"207 631 OFFCURVE",
"236 656 OFFCURVE",
"236 695 CURVE SMOOTH",
"236 734 OFFCURVE",
"210 761 OFFCURVE",
"171 761 CURVE SMOOTH",
"132 761 OFFCURVE",
"105 732 OFFCURVE",
"105 695 CURVE SMOOTH",
"105 660 OFFCURVE",
"130 631 OFFCURVE",
"171 631 CURVE SMOOTH"
);
},
{
closed = 1;
nodes = (
"150 567 LINE",
"114 0 LINE",
"228 0 LINE",
"191 567 LINE"
);
}
);
width = 343;
}
);
unicode = 00A1;
},
{
glyphname = questiondown;
layers = (
{
hints = (
{
horizontal = 1;
place = "{-10, 36}";
type = Stem;
},
{
horizontal = 1;
place = "{633, 130}";
type = Stem;
},
{
place = "{33, 108}";
type = Stem;
},
{
place = "{228, 131}";
type = Stem;
},
{
place = "{273, 45}";
type = Stem;
}
);
layerId = "e11d8b17-ebce-493c-b2b7-02eab722b597";
paths = (
{
closed = 1;
nodes = (
"418 209 LINE",
"369 75 LINE",
"344 40 OFFCURVE",
"306 26 OFFCURVE",
"269 26 CURVE SMOOTH",
"205 26 OFFCURVE",
"141 72 OFFCURVE",
"141 156 CURVE SMOOTH",
"141 204 OFFCURVE",
"160 256 OFFCURVE",
"193 292 CURVE SMOOTH",
"227 328 LINE SMOOTH",
"299 405 OFFCURVE",
"318 443 OFFCURVE",
"318 531 CURVE SMOOTH",
"318 570 LINE",
"273 570 LINE",
"273 550 LINE SMOOTH",
"273 460 OFFCURVE",
"257 408 OFFCURVE",
"175 355 CURVE SMOOTH",
"144 335 LINE SMOOTH",
"68 287 OFFCURVE",
"33 221 OFFCURVE",
"33 160 CURVE SMOOTH",
"33 45 OFFCURVE",
"149 -10 OFFCURVE",
"264 -10 CURVE SMOOTH",
"348 -10 OFFCURVE",
"429 20 OFFCURVE",
"469 77 CURVE",
"469 209 LINE"
);
},
{
closed = 1;
nodes = (
"293 633 LINE",
"334 633 OFFCURVE",
"359 662 OFFCURVE",
"359 697 CURVE SMOOTH",
"359 734 OFFCURVE",
"332 763 OFFCURVE",
"293 763 CURVE SMOOTH",
"254 763 OFFCURVE",
"228 736 OFFCURVE",
"228 697 CURVE SMOOTH",
"228 658 OFFCURVE",
"257 633 OFFCURVE",
"293 633 CURVE SMOOTH"
);
}
);
width = 555;
}
);
unicode = 00BF;
},
{
glyphname = copyright;
layers = (
{
hints = (
{
horizontal = 1;
place = "{-11, 43}";
type = Stem;
},
{
horizontal = 1;
place = "{152, 31}";
type = Stem;
},
{
horizontal = 1;
place = "{574, 31}";
type = Stem;
},
{
horizontal = 1;
place = "{719, 43}";
type = Stem;
},
{
place = "{57, 52}";
type = Stem;
},
{
place = "{227, 90}";
type = Stem;
},
{
place = "{779, 51}";
type = Stem;
}
);
layerId = "e11d8b17-ebce-493c-b2b7-02eab722b597";
paths = (
{
closed = 1;
nodes = (
"596 298 LINE",
"564 298 LINE",
"531 197 LINE",
"514 188 OFFCURVE",
"481 183 OFFCURVE",
"457 183 CURVE SMOOTH",
"370 183 OFFCURVE",
"317 240 OFFCURVE",
"317 375 CURVE SMOOTH",
"317 508 OFFCURVE",
"367 574 OFFCURVE",
"450 574 CURVE SMOOTH",
"475 574 OFFCURVE",
"513 565 OFFCURVE",
"532 553 CURVE",
"562 457 LINE",
"594 457 LINE",
"594 565 LINE",
"567 590 OFFCURVE",
"506 605 OFFCURVE",
"454 605 CURVE SMOOTH",
"326 605 OFFCURVE",
"227 522 OFFCURVE",
"227 375 CURVE SMOOTH",
"227 230 OFFCURVE",
"324 152 OFFCURVE",
"449 152 CURVE SMOOTH",
"502 152 OFFCURVE",
"564 167 OFFCURVE",
"596 196 CURVE"
);
},
{
closed = 1;
nodes = (
"441 719 LINE",
"621 719 OFFCURVE",
"779 572 OFFCURVE",
"779 375 CURVE SMOOTH",
"779 188 OFFCURVE",
"627 32 OFFCURVE",
"443 32 CURVE SMOOTH",
"260 32 OFFCURVE",
"109 189 OFFCURVE",
"109 375 CURVE SMOOTH",
"109 562 OFFCURVE",
"261 719 OFFCURVE",
"441 719 CURVE SMOOTH"
);
},
{
closed = 1;
nodes = (
"448 762 LINE",
"220 762 OFFCURVE",
"57 582 OFFCURVE",
"57 375 CURVE SMOOTH",
"57 165 OFFCURVE",
"233 -11 OFFCURVE",
"443 -11 CURVE SMOOTH",
"654 -11 OFFCURVE",
"830 163 OFFCURVE",
"830 375 CURVE SMOOTH",
"830 588 OFFCURVE",
"655 762 OFFCURVE",
"448 762 CURVE SMOOTH"
);
}
);
width = 897;
}
);
unicode = 00A9;
},
